<?xml version="1.0" encoding="UTF-8"?>
<svg id="Layer_1" xmlns="http://www.w3.org/2000/svg" version="1.1" viewBox="0 0 1259.29 325.72">
  <!-- Generator: Adobe Illustrator 29.1.0, SVG Export Plug-In . SVG Version: 2.1.0 Build 142)  -->
  <defs>
    <style>
      .st0 {
        fill: #fff;
      }
    </style>
  </defs>
  <g>
    <path class="st0" d="M1254.71,209.63c-4.16-1.38-7.21-2.17-12.18-2.17-3.65,0-8.02,1.28-8.02,5.62,0,8.08,23.65,2.96,23.65,21.28,0,11.83-10.86,16.56-21.92,16.56-5.18,0-10.46-.89-15.43-2.17l.81-10.84c4.26,2.07,8.73,3.35,13.4,3.35,3.45,0,8.93-1.29,8.93-6.21,0-9.96-23.65-3.15-23.65-21.49,0-10.94,9.85-15.76,20.51-15.76,6.39,0,10.55.99,14.82,1.87l-.91,9.95Z"/>
    <polygon class="st0" points="1199.04 175.9 1199.04 175.9 1199.04 249.81 1212.65 249.81 1212.65 171.74 1199.04 175.9"/>
    <polygon class="st0" points="1177.6 175.9 1177.6 249.81 1191.21 249.81 1191.21 171.74 1177.6 175.9"/>
    <path class="st0" d="M1169.89,180.1c0-4.18-3.39-7.58-7.58-7.58s-7.58,3.39-7.58,7.58,3.39,7.58,7.58,7.58,7.58-3.39,7.58-7.58"/>
    <rect class="st0" x="1155.22" y="199.05" width="13.6" height="50.76"/>
    <polygon class="st0" points="1128.65 221.8 1147.92 199.05 1131.89 199.05 1115.65 219.35 1115.44 219.35 1115.44 171.74 1101.84 175.9 1101.84 249.81 1115.44 249.81 1115.44 225.17 1115.65 225.17 1133.1 249.81 1150.36 249.81 1128.65 221.8"/>
    <path class="st0" d="M1089.96,193.67c-4.31-1.86-9.12-2.94-13.92-2.94s-10.77,2.06-10.77,9.51c0,11.86,29.98,6.86,29.98,29.79,0,14.99-11.86,20.67-25.68,20.67-7.44,0-10.78-.98-17.54-2.64l1.27-12.35c4.7,2.54,10.09,4.21,15.48,4.21s12.15-2.64,12.15-8.82c0-13.04-29.98-7.65-29.98-30.28,0-15.28,11.86-20.87,23.91-20.87,5.88,0,11.37.78,16.36,2.45l-1.27,11.27Z"/>
    <path class="st0" d="M1143.47,86.94s24.14-4.27,32.04-23.46c0,0,140.54,28.79,57.57,103.76,0,0,30.79-28.99,13.6-52.18,0,0,9.6,28.79-27.99,48.18,0,0,81.51-57.9-75.23-76.3"/>
    <path class="st0" d="M1220.47,76.44c9.83,4.86,16.71,9.64,20.73,12.78,1.77-50.31-34.31-78.44-34.31-78.44-1.05,3.22-4.2,6.82-8.7,8.47-4.5,1.65-7.2,7.05-7.2,7.05,17.63,14.66,26.1,32.57,29.47,50.15"/>
    <path class="st0" d="M1171.78,67.04c2.13-3.18,2.73-5.36,2.73-5.36,9.28,1.65,17.62,3.82,25.05,6.26-15.4-43.91-44.04-67.93-44.04-67.93-.8,2.3-9.19,6.49-14.9,9-5.7,2.5-4.2,13.09-4.2,13.09,15.66,12.95,27.05,28.78,35.35,44.95"/>
    <path class="st0" d="M1230.69,115.67c-1.94,21.66-14.8,44.66-14.8,44.66,9.08-13.81,15.29-26.79,19.3-38.87-1.13-2.04-2.64-3.97-4.5-5.79"/>
    <path class="st0" d="M1229.01,114.13c-2.12-1.82-4.57-3.52-7.28-5.12-2.26,23.31-10.04,40.83-10.04,40.83,4.5-5.1,7.95-13.34,7.95-13.34.15,5.85-4.65,17.39-4.65,17.39,8.25-13.26,12.2-29.38,14.02-39.75"/>
    <path class="st0" d="M1180.23,159.52c-5-2.69-12.24-5.55-27.14-17.09,11.27,8.49,30.09,13.91,30.09,13.91-41.55-21.1-50.61-40.21-50.61-40.21-4-.13-6.41,2.41-7.99,3.28-1.59.87-5.9.8-5.9.8,15.84,25.53,61.56,39.32,61.56,39.32"/>
    <path class="st0" d="M1161.64,90.78c-13.81-2.28-23.95-3.17-23.95-3.17,5.52-1.38,10.21-3.07,14.23-4.91-19.43-14.15-38.79-17.63-38.79-17.63,0,0-3.6,1.19-4.1,7.2-.5,6-5.09,6.79-5.09,6.79,72.56,19.39,83.46,79.17,83.46,79.17-4.95-26.99-15.44-44.23-15.44-44.23,11.1,11.39,18.75,40.33,18.75,40.33-2.47-29.91-14.87-50.08-29.06-63.55"/>
    <path class="st0" d="M1183.36,95.11c10.45,32.23,10.64,59.53,10.64,59.53,7.73-14.99,5.7-49.48,5.7-49.48,7.2,14.09,6.3,52.48,6.3,52.48,3.69-20.17,3.83-38.62,1.72-55.22-7.67-2.94-16.09-5.34-24.36-7.31"/>
    <polygon class="st0" points="730.41 181.39 763.92 181.39 763.92 187.27 737.17 187.27 737.17 211.66 762.55 211.66 762.55 217.54 737.17 217.54 737.17 243.9 765.1 243.9 765.1 249.78 730.41 249.78 730.41 181.39"/>
    <path class="st0" d="M834.18,249.78v-33.22c0-1.83-.13-3.52-.39-5.1-.39-1.5-1.01-2.81-1.86-3.92-.79-1.18-1.87-2.09-3.24-2.75-1.37-.59-3.07-.88-5.1-.88-3.46,0-6.53,1.44-9.21,4.31-2.75,3-4.15,7.64-4.22,13.91v27.63h-6.17v-33.22c0-1.83-.13-3.52-.39-5.1-.39-1.5-1.02-2.81-1.87-3.92-.78-1.18-1.86-2.09-3.23-2.75-1.37-.59-3.07-.88-5.1-.88-3.46,0-6.53,1.44-9.21,4.31-2.74,3-4.15,7.64-4.21,13.91v27.63h-6.17v-38.22c0-3.85-.14-7.77-.39-11.76h5.98v8.43l.2.1c.45-.91,1.08-1.92,1.86-3.04.65-1.11,1.57-2.15,2.74-3.13,1.18-.98,2.65-1.83,4.41-2.55,1.76-.65,3.95-.98,6.56-.98,1.17,0,2.45.13,3.82.39,1.31.26,2.61.78,3.92,1.57,1.31.72,2.45,1.77,3.43,3.14.98,1.44,1.66,3.27,2.06,5.49h.2c1.24-3,3.23-5.52,5.98-7.54,2.68-1.96,6.01-2.98,9.99-3.04,5.1.07,9.02,1.64,11.76,4.7,2.68,3.01,4.02,7.02,4.02,12.05v34.39h-6.17Z"/>
    <path class="st0" d="M856.72,186.48h-6.17v-8.23h6.17v8.23ZM850.54,199.81h6.17v49.98h-6.17v-49.98Z"/>
    <path class="st0" d="M867.39,210.98c0-4.64-.13-8.36-.39-11.17h6.17v9.6h.2c1.17-2.94,2.85-5.45,5-7.55,2.09-2.09,4.7-3.16,7.84-3.23,1.63.07,3.07.26,4.31.59v6.47c-1.37-.39-2.88-.59-4.51-.59-2.41.07-4.41.65-5.98,1.76-1.57,1.17-2.84,2.78-3.82,4.8-.92,1.96-1.57,4.08-1.96,6.37-.46,2.42-.69,4.77-.69,7.05v24.7h-6.17v-38.8Z"/>
    <path class="st0" d="M923.83,241.75h-.2c-1.44,2.94-3.63,5.19-6.56,6.76-2.94,1.57-6.04,2.39-9.31,2.45-3.46-.07-6.27-.63-8.42-1.67-2.23-.98-3.92-2.22-5.1-3.72-2.09-3.27-3.07-6.17-2.94-8.72,0-4.18,1.02-7.48,3.04-9.9,1.96-2.41,4.48-4.14,7.54-5.19,3.07-1.12,6.4-1.83,10-2.16,3.53-.2,6.92-.29,10.19-.29h1.17v-2.54c.2-8.56-3.6-12.84-11.37-12.84-5.16-.06-10.06,1.31-14.7,4.12v-5.88c4.64-2.22,9.54-3.39,14.7-3.52,11.82-.13,17.67,6.07,17.54,18.62v22.05c-.07,3.78.1,7.28.49,10.48h-6.07v-8.03ZM923.24,224.6h-1.76c-2.68,0-5.36.07-8.04.2-2.81.26-5.36.82-7.64,1.66-2.29.79-4.12,2-5.49,3.63-1.5,1.63-2.25,3.82-2.25,6.56,0,3.2,1.04,5.49,3.13,6.86,1.96,1.44,4.38,2.16,7.25,2.16,3.6,0,6.43-.72,8.53-2.16,2.02-1.37,3.49-3,4.41-4.89.98-2.03,1.53-4.02,1.66-5.98.13-2.02.2-3.69.2-4.99v-3.04Z"/>
    <path class="st0" d="M960.77,205.1h-11.37v32.34c0,2.28.52,4.21,1.57,5.78.98,1.63,2.68,2.45,5.1,2.45,2.22,0,4.12-.39,5.68-1.17l.39,5.1c-.72.26-1.73.55-3.03.88-1.37.33-2.88.49-4.51.49-2.68,0-4.8-.46-6.37-1.37-1.51-.91-2.65-2.13-3.43-3.63-.65-1.57-1.08-3.33-1.27-5.29-.2-1.96-.29-4.08-.29-6.37v-29.2h-9.8v-5.29h9.8v-12.05l6.17-2.15v14.2h11.37v5.29Z"/>
    <path class="st0" d="M1000.46,248.21c-4.7,1.76-9.54,2.68-14.5,2.74-8.17-.13-14.01-2.64-17.54-7.54-3.53-4.77-5.26-10.98-5.19-18.62.07-7.78,2.02-14.08,5.88-18.92,3.73-4.76,8.78-7.18,15.19-7.25,6.99.13,12.08,2.58,15.28,7.35,3.07,4.7,4.61,10.52,4.61,17.44v3.14h-34.2c0,5.42,1.4,9.9,4.22,13.42,2.74,3.73,6.83,5.62,12.25,5.68,2.41,0,4.97-.42,7.64-1.27,2.68-.72,4.8-1.53,6.37-2.45v6.27ZM997.42,221.27c0-4.57-.95-8.55-2.84-11.95-2.03-3.46-5.33-5.26-9.9-5.39-4.51.13-8.07,1.96-10.68,5.49-2.68,3.53-4.02,7.48-4.02,11.86h27.44Z"/>
    <path class="st0" d="M1020.25,245.67c3.07,0,5.68-.82,7.84-2.45,2.09-1.51,3.17-3.66,3.24-6.47-.07-2.94-1.27-5.25-3.63-6.96-2.35-1.63-5.13-3.1-8.33-4.41-1.51-.72-2.94-1.47-4.31-2.25-1.37-.78-2.68-1.66-3.92-2.64-1.11-1.04-2.02-2.26-2.74-3.63-.72-1.31-1.08-2.84-1.08-4.61.07-4.96,1.76-8.49,5.1-10.58,3.2-2.02,6.92-3.03,11.17-3.03,1.44,0,3.3.14,5.59.4,2.28.41,4.53,1.06,6.76,1.94l-.59,5.29c-3.6-1.5-7.29-2.28-11.07-2.35-3.2,0-5.75.58-7.65,1.76-.98.58-1.73,1.39-2.25,2.43-.59,1.04-.88,2.4-.88,4.08,0,1.04.36,2.02,1.08,2.92.72.84,1.66,1.62,2.84,2.34,1.17.65,2.51,1.33,4.01,2.05,1.5.65,2.98,1.37,4.41,2.16,3.26,1.38,6.11,3.21,8.52,5.51,2.42,2.29,3.66,5.47,3.73,9.53,0,2.62-.52,4.82-1.57,6.58-1.12,1.83-2.52,3.31-4.22,4.42-3.66,2.16-7.54,3.24-11.66,3.24-4.84,0-9.51-.78-14.01-2.35l.59-6.07c3.78,2.02,8.13,3.07,13.03,3.13"/>
    <path class="st0" d="M1104.72,298.79c-1.47-.46-2.58-1.02-3.37-1.72.33-1.7.84-3.35,1.55-4.95.71-1.6,1.58-2.92,2.62-3.95,1.04-1.03,2.19-1.56,3.45-1.56s2.27.37,3.22,1.06c.95.7,1.7,1.6,2.24,2.69.54,1.1.8,2.22.8,3.37,0,3.83-2.17,5.74-6.54,5.74-1.19,0-2.52-.23-3.97-.69M1086.63,304.91c.14.28.35.48.65.58.31.1.76.15,1.37.15h2.19c2.02-.02,3.65-.31,4.87-.9,1.23-.57,2.33-1.53,3.33-2.89,1.59,1.44,3.3,2.48,5.09,3.13,1.79.67,3.78,1,5.97,1,2.61,0,4.86-.58,6.74-1.74,1.89-1.15,3.31-2.66,4.29-4.52.97-1.87,1.46-3.84,1.46-5.92s-.47-4.06-1.42-6.15c-.95-2.1-2.42-3.86-4.41-5.28-1.98-1.42-4.42-2.12-7.31-2.12-3.57,0-6.61,1.42-9.13,4.29-2.53,2.85-4.38,6.37-5.58,10.56-.42,1.44-1,2.45-1.73,3.02-.74.58-1.66.87-2.79.87h-1.55c-.92,0-1.51.14-1.8.42-.27.27-.42.74-.42,1.41v2.8c0,.58.07,1.02.2,1.3M1067.99,315.49c-1.04-1.3-1.83-2.86-2.4-4.72-.57-1.84-.88-3.55-.95-5.13h4.68c1.14,0,2.13.35,2.97,1.01.84.69,1.48,1.55,1.93,2.6.44,1.06.67,2.11.67,3.2,0,.65-.1,1.35-.31,2.12-.2.76-.54,1.44-1.04,2.01-.48.56-1.12.85-1.87.85-1.43,0-2.65-.65-3.68-1.94M1074.69,295.99c-.5.93-1.19,1.66-2.08,2.19-.9.54-1.91.8-3.05.8h-4.46c.39-2.88,1.34-5.64,2.86-8.29,1.5-2.61,2.9-3.92,4.22-3.92.45,0,.93.27,1.45.84.52.55.95,1.3,1.29,2.24.35.95.52,1.94.52,3.02,0,1.16-.25,2.19-.74,3.11M1081.48,309.32c-.5-1.26-1.24-2.48-2.19-3.68h9.79c.63-.02,1.1-.08,1.4-.18.31-.1.52-.29.65-.55.11-.28.17-.71.17-1.29v-2.8c0-.67-.14-1.14-.42-1.41-.29-.28-.88-.42-1.79-.42h-8.99c.78-1.07,1.42-2.22,1.89-3.43.48-1.21.72-2.45.72-3.7,0-1.86-.42-3.72-1.25-5.55-.83-1.83-1.97-3.33-3.41-4.5-1.45-1.18-3.07-1.77-4.85-1.77s-3.88.85-6.07,2.55c-2.36,1.86-4.27,4.22-5.75,7.09-1.47,2.88-2.59,5.97-3.34,9.31h-6.53c-.91,0-1.51.14-1.79.42-.27.27-.42.74-.42,1.41v2.8c0,.83.17,1.36.5,1.63.34.27.91.4,1.72.4h5.77c.26,3.12.97,6.07,2.11,8.84,1.15,2.77,2.77,5.04,4.85,6.79,2.08,1.76,4.6,2.64,7.53,2.64,1.85,0,3.58-.47,5.18-1.42,1.61-.94,2.9-2.24,3.86-3.91.97-1.66,1.44-3.5,1.44-5.56,0-1.21-.25-2.45-.76-3.7M1041.33,303.17c1.72,1.65,3.97,2.47,6.79,2.47h3.8c.87,0,1.46-.15,1.76-.46.3-.3.46-.83.46-1.57v-2.8c0-.67-.14-1.14-.43-1.41-.28-.28-.88-.42-1.79-.42h-1.89c-1.35,0-2.26-.42-2.71-1.26-.44-.84-.67-2.06-.67-3.66v-32.05h-7.9v33.69c0,3.33.86,5.81,2.56,7.46M1022.11,307.02c-.57,1.23-1.44,2.17-2.62,2.83-1.18.66-2.82,1.19-4.91,1.59l.97,6.75c3.75-.61,6.72-1.59,8.95-2.94,2.22-1.36,3.83-3.22,4.84-5.6,1.02-2.37,1.52-5.42,1.52-9.17v-19.74h-7.9v21.36c0,2.06-.29,3.71-.85,4.93M1002.95,305.67h7.9v-43.66h-7.9v43.66ZM976.95,272.66c.6-.35,1.06-.83,1.4-1.43.33-.6.5-1.24.5-1.93s-.18-1.33-.51-1.92c-.36-.6-.82-1.08-1.4-1.42-.58-.36-1.25-.54-1.98-.54-1.1,0-2.02.39-2.76,1.14-.76.77-1.13,1.67-1.13,2.75,0,.73.18,1.4.53,1.98.35.59.83,1.05,1.42,1.4.6.35,1.25.51,1.93.51.73,0,1.4-.17,1.99-.52M967.84,272.66c.59-.35,1.06-.83,1.4-1.43.34-.6.5-1.24.5-1.93s-.16-1.33-.51-1.92c-.35-.6-.81-1.08-1.4-1.42-.58-.36-1.24-.54-1.97-.54-1.1,0-2.02.39-2.77,1.14-.74.77-1.12,1.67-1.12,2.75,0,.73.18,1.4.54,1.98.35.59.83,1.05,1.43,1.4.59.35,1.24.51,1.92.51.73,0,1.4-.17,1.99-.52M946.92,302.87c2.84,1.85,7.14,2.77,12.95,2.77h35.18v-24.91h-7.9v18.26h-25.03c-3.31,0-5.83-.2-7.58-.61-1.76-.4-2.97-1.04-3.65-1.92-.67-.89-1.02-2.11-1.02-3.69,0-.85.04-1.61.13-2.3.07-.67.22-1.55.42-2.62l-7.01-.61c-.25,1.56-.43,2.82-.55,3.78-.12.96-.18,1.92-.18,2.9,0,4.14,1.42,7.13,4.25,8.97"/>
    <path class="st0" d="M918.41,306.08h3.96v-44.5h-3.96v44.5ZM884.78,319.17v2.17h9.61v-2.17h-.93c-1.51,0-2.72-.32-3.63-.98-.9-.65-1.35-1.55-1.35-2.7,0-.86.31-1.55.93-2.03.63-.48,1.51-.73,2.62-.73.7,0,1.3.07,1.79.19l.41-2.2c-.79-.12-1.59-.19-2.41-.19-1.76,0-3.11.42-4.07,1.26-.97.84-1.44,2-1.44,3.48,0,.74.19,1.47.57,2.18.37.72.86,1.29,1.44,1.72h-3.54ZM873.33,302.11v3.93h35.27v-44.5h-3.93v40.57h-13.47v-27.48h-3.9v27.48h-13.97ZM850.92,301.97c-1.31-.3-2.6-.72-3.87-1.25-1.27-.54-2.28-1.14-3.01-1.79,1.1-4.34,2.58-7.65,4.46-9.96,1.88-2.3,3.95-3.45,6.23-3.45,1.65,0,3.16.5,4.53,1.49,1.35.99,2.43,2.26,3.22,3.81.78,1.55,1.17,3.1,1.17,4.67,0,2.27-.82,3.99-2.44,5.17-1.64,1.18-3.99,1.76-7.06,1.76-.84,0-1.91-.14-3.22-.44M833.35,306.04h1.62c1.31-.01,2.42-.15,3.3-.39.87-.23,1.64-.63,2.29-1.19.65-.55,1.27-1.34,1.84-2.35,1.78,1.36,3.77,2.41,5.96,3.15,2.21.75,4.42,1.12,6.65,1.12,2.47,0,4.62-.47,6.43-1.4,1.79-.95,3.18-2.25,4.13-3.93.95-1.68,1.42-3.64,1.42-5.87s-.48-4.33-1.42-6.41c-.95-2.08-2.35-3.8-4.19-5.14-1.85-1.34-4.03-2.01-6.53-2.01-3.18,0-5.94,1.35-8.27,4.05-2.33,2.71-4.11,6.2-5.33,10.47l-.61,2.11c-.48,1.31-1.26,2.29-2.34,2.92-1.09.63-2.42.95-3.98.95h-.97c-.78,0-1.17.29-1.17.89v2.13c0,.6.39.9,1.17.9M823.63,303.77c1.34,1.52,3.22,2.27,5.65,2.27h3.13c.39,0,.7-.05.95-.17.23-.11.35-.39.35-.82v-2.24c0-.25-.12-.43-.37-.54-.25-.12-.55-.17-.87-.17h-1.8c-1.22,0-2.21-.2-2.99-.56-.78-.37-1.32-.97-1.62-1.78-.31-.81-.46-1.96-.46-3.45v-34.75h-3.97v35.96c0,2.64.67,4.72,2,6.24M806.89,309.62c-.68,1.81-1.81,3.24-3.37,4.27-1.58,1.04-3.8,1.84-6.69,2.37l.49,3.75h.07c3.41-.52,6.17-1.44,8.29-2.77,2.13-1.32,3.7-3.13,4.7-5.39,1-2.25,1.51-5.08,1.51-8.43v-21.32h-3.97v20.31c0,3-.34,5.4-1.02,7.2M790.95,306.08h3.97v-44.5h-3.97v44.5ZM760.06,273.48c.49.48,1.09.73,1.79.73s1.32-.25,1.79-.73c.48-.49.72-1.09.72-1.81s-.24-1.29-.72-1.78c-.47-.49-1.08-.73-1.79-.73-.68,0-1.27.25-1.78.74-.5.5-.76,1.08-.76,1.77,0,.72.25,1.32.75,1.81M752.02,273.48c.5.48,1.1.73,1.8.73s1.3-.25,1.78-.73c.49-.49.73-1.09.73-1.81,0-.69-.24-1.27-.73-1.77-.48-.5-1.08-.74-1.78-.74s-1.27.25-1.78.74c-.51.5-.76,1.08-.76,1.77,0,.72.25,1.32.74,1.81M732.48,301.79c1.37,1.62,3.2,2.73,5.48,3.35,2.28.6,4.99.91,8.12.91h35.27v-23.94h-3.96v20.01h-28.68c-3.48,0-6.29-.22-8.41-.67-2.11-.44-3.66-1.19-4.63-2.24-.99-1.1-1.48-2.94-1.48-5.52,0-1.47.11-2.79.35-3.96l-3.6-.35c-.35,2.46-.53,4.35-.53,5.64,0,2.89.69,5.14,2.07,6.77"/>
  </g>
  <rect class="st0" x="655.94" y="45.3" width="1.85" height="280.42"/>
  <polygon class="st0" points="248.74 190.36 247.68 190.36 247.68 103.05 215.05 103.05 215.05 89.26 295.64 89.26 295.64 103.05 262.87 103.05 262.87 190.36 248.74 190.36"/>
  <path class="st0" d="M346.17,190.35h-.72l-39.18-101.09h16.46l25.98,72.6c1.6,4.49,3.02,8.76,4.22,12.8,1.3-4.26,2.75-8.54,4.34-12.81l27.02-72.6h15.63l-39.58,101.09h-14.17Z"/>
  <polygon class="st0" points="534.39 190.35 534.39 189.32 535.43 189.32 534.39 189.32 534.39 190.35 533.32 190.35 533.32 103.1 500.7 103.1 500.7 89.26 581.29 89.26 581.29 103.1 548.54 103.1 548.54 190.35 534.39 190.35"/>
  <path class="st0" d="M164.23,190.35c-6.07,0-11.44-.55-16.15-1.72-4.72-1.14-8.78-2.83-12.14-5.1-3.41-2.27-6.5-5.36-9.3-9.24-2.83-3.95-5.12-8.84-6.9-14.74-1.81-5.92-2.68-12.67-2.68-20.28,0-8.93,1.3-16.89,3.93-23.92,2.64-7,6.67-12.81,12.03-17.33,4.14-3.54,9.15-5.98,14.97-7.31,4.18-.97,10.11-1.45,17.86-1.45h35.16v13.79h-15.22s-19.75,0-19.75,0c-7.73-.01-13.29.68-16.56,1.94-4.61,1.79-8.56,5.34-11.88,10.75-3.26,5.32-4.95,13.1-4.95,23.33,0,7.39.87,13.65,2.55,18.75,1.7,5.13,4.04,9.15,7.01,12.11,2.07,2.06,4.86,3.7,8.46,4.87,3.33,1.09,8.01,1.68,13.92,1.76l1.04.03v.05h35.39v13.73h-36.78Z"/>
  <path class="st0" d="M410.61,190.35v-59.09h69.98v13.71h-54.8v31.62h60.79v13.76h-75.98ZM410.61,103.1v-13.84h73.69v13.84h-73.69Z"/>
  <path class="st0" d="M100.27,120.21c-1.15-4.7-2.83-8.78-5.11-12.14-2.26-3.39-5.36-6.49-9.23-9.29-3.93-2.83-8.86-5.12-14.73-6.9-5.94-1.79-12.72-2.69-20.31-2.69-8.93,0-16.91,1.31-23.91,3.96-7.01,2.63-12.82,6.64-17.34,12-3.54,4.16-5.98,9.15-7.31,14.97-.99,4.2-1.45,10.12-1.45,17.87v52.29h13.81v-15.2h-.01v-30.63h62.5v-12.7H14.84c.29-4.46.89-7.86,1.77-10.14,1.79-4.6,5.3-8.57,10.74-11.87,5.3-3.26,13.08-4.95,23.33-4.95,7.39,0,13.64.87,18.77,2.56,5.13,1.69,9.13,4.04,12.1,7,2.07,2.06,3.71,4.87,4.88,8.45,1.08,3.33,1.68,8.01,1.74,13.92v1.02h.07v52.53h13.74v-53.91c0-6.05-.56-11.43-1.71-16.16"/>
  <path class="st0" d="M321.25,240.36c0-.29-.33-.61-1.01-.98-2.12-1.14-3.22-1.74-3.25-1.77-.78-.67-1.34-1.36-1.72-2.06-.46-.85-.69-1.74-.69-2.65,0-1.9.57-3.43,1.76-4.64,1.12-1.11,2.43-1.68,3.98-1.68,1.34,0,2.58.57,3.7,1.67,1.14,1.12,1.72,2.36,1.72,3.74v2.6h1.1v2.57h-1.5c-.39,0-.79-.22-1.17-.65-.37-.42-.56-.89-.56-1.38v-3.05c0-.9-.31-1.76-.93-2.57-.67-.87-1.45-1.32-2.3-1.32-.95,0-1.77.43-2.51,1.29-.79.92-1.16,2.01-1.16,3.31,0,.78.19,1.49.53,2.17.43.75,1.12,1.44,2.02,2.05.62.43,1.69.96,3.24,1.57.95.4,1.44.81,1.44,1.25,0,.63-.37,1.31-1.12,1.99-.8.76-1.84,1.38-3.13,1.85-1.49.52-3.06.78-4.77.78-1.55,0-3.14-.48-4.76-1.49-1.69-1.02-2.53-2.04-2.53-3.07,0-.42.65-1.15,1.95-2.22,1.22-.99,2.34-1.76,3.33-2.3v.4c-.54.57-.94,1.02-1.2,1.33-.82.99-1.24,1.72-1.24,2.19,0,.66.56,1.43,1.66,2.36,1.08.91,2.06,1.35,2.94,1.35,1.34,0,2.7-.3,4.1-.97,1.4-.66,2.1-1.23,2.1-1.68M315.13,246.79c.34,0,.64.14.89.44.24.28.37.65.37,1.08s-.13.76-.37,1.08c-.26.29-.55.44-.9.44s-.65-.15-.91-.44c-.23-.33-.37-.67-.37-1.08s.13-.78.37-1.08c.25-.3.55-.44.91-.44M318.2,246.18c.36,0,.66.16.9.45.25.29.36.65.36,1.09,0,.39-.11.74-.37,1.04-.24.31-.54.46-.89.46s-.63-.15-.89-.43c-.25-.29-.38-.63-.38-1.06s.13-.8.38-1.09c.24-.29.54-.45.89-.45"/>
  <rect class="st0" x="330.85" y="230.59" width="2.57" height="10.58" transform="translate(95.85 567.72) rotate(-89.93)"/>
  <rect class="st0" x="341.42" y="230.59" width="2.57" height="10.58" transform="translate(106.41 578.3) rotate(-89.93)"/>
  <rect class="st0" x="352.01" y="230.58" width="2.57" height="10.6" transform="translate(116.98 588.89) rotate(-89.93)"/>
  <rect class="st0" x="362.6" y="230.59" width="2.57" height="10.58" transform="translate(127.56 599.48) rotate(-89.93)"/>
  <rect class="st0" x="373.19" y="230.59" width="2.57" height="10.59" transform="translate(138.14 610.07) rotate(-89.93)"/>
  <path class="st0" d="M384.27,234.6v-4.12c0-.21-.02-.4-.08-.57-.16-.5-.57-.76-1.24-.76h-.54v-.75l3.99-.84v7.04h1.99v2.56h-8.62v-2.56h4.5ZM385.06,240.36c.34,0,.65.16.89.45.24.3.38.67.38,1.1,0,.4-.14.75-.38,1.05-.24.31-.55.46-.89.46s-.63-.15-.88-.45c-.26-.27-.38-.66-.38-1.06,0-.43.12-.8.37-1.1.24-.29.54-.45.89-.45"/>
  <rect class="st0" x="392.4" y="230.59" width="2.57" height="10.58" transform="translate(157.33 629.28) rotate(-89.93)"/>
  <rect class="st0" x="402.98" y="230.59" width="2.57" height="10.58" transform="translate(167.89 639.86) rotate(-89.93)"/>
  <path class="st0" d="M425.48,234.6c0,.37.16.76.44,1.15.28.37.58.57.89.57v.84h-17.26v-2.56h13.79v-2.25c0-.93-.35-1.72-1.01-2.36-.63-.55-1.36-.84-2.16-.84h-1.34c-1.12,0-2.06.36-2.83,1.12-.76.71-1.15,1.59-1.15,2.62v.76h-2.11v-13.45c0-.44-.12-.78-.34-1-.23-.22-.57-.33-.98-.33h-.52v-.76l3.95-.84v11.35c.52-.35,1.11-.61,1.77-.8.67-.2,1.42-.26,2.26-.26h1.29c1.81,0,3.15.39,4.01,1.19.85.78,1.29,2,1.29,3.6v2.25ZM420.11,222.84c0,.42-.11.76-.37,1.06-.25.3-.55.45-.9.45s-.63-.15-.87-.44c-.26-.29-.38-.65-.38-1.08s.12-.78.37-1.1c.23-.29.52-.44.89-.44s.65.15.9.44c.25.31.37.67.37,1.1"/>
  <path class="st0" d="M439.8,234.6h2v2.56h-2.51c-.55,1.7-1.42,3.33-2.54,4.87-1.34,1.83-2.87,3.2-4.57,4.07v-.27c1.27-1.23,2.47-2.93,3.61-5.13,1.26-2.37,1.89-4.31,1.89-5.84v-1.38c0-1.19-.31-2.23-.93-3.07-.65-.83-1.38-1.26-2.26-1.26-.82,0-1.46.29-1.96.82-.46.52-.69,1.15-.69,1.9s.23,1.38.72,1.92c.48.54,1.06.81,1.78.81h2.29v.27c0,.44-.08.96-.25,1.55-.05.18-.14.44-.25.75h-1.64c-1.06,0-2.06-.31-2.94-.93-1.22-.85-1.81-2.07-1.81-3.72,0-1.49.52-2.71,1.53-3.68.89-.85,1.92-1.28,3.05-1.28,1.68,0,3.01.47,3.96,1.46,1.01,1.06,1.53,2.53,1.53,4.47v1.12Z"/>
  <rect class="st0" x="445.81" y="230.59" width="2.57" height="10.58" transform="translate(210.67 682.69) rotate(-89.93)"/>
  <rect class="st0" x="456.39" y="230.59" width="2.57" height="10.58" transform="translate(221.24 693.27) rotate(-89.93)"/>
  <path class="st0" d="M467.48,234.6v-4.12c0-.21-.02-.4-.08-.57-.16-.5-.57-.76-1.25-.76h-.52v-.75l3.98-.84v7.04c0,.61.22,1.15.67,1.57.14.14.36.3.65.48v.52h-7.95v-2.56h4.52ZM466.96,240.36c.34,0,.63.16.89.45.25.3.36.67.36,1.1,0,.4-.1.75-.36,1.05-.25.31-.55.46-.89.46-.36,0-.65-.15-.9-.45-.25-.27-.37-.66-.37-1.06,0-.43.12-.8.36-1.1.26-.29.55-.45.91-.45"/>
  <path class="st0" d="M479.16,237.16h-4.79v-.52c.31-.18.53-.32.68-.47.43-.42.65-.95.65-1.58v-14.4c0-.44-.11-.79-.33-1-.23-.22-.55-.33-.98-.33h-.54v-.76l3.97-.84v17.32c0,.61.22,1.15.67,1.57.12.14.36.31.66.48v.52ZM478.16,216.18h-4.2v-1.26h.83l-.61-1.49c.63-.65,1.02-1.04,1.23-1.18.51-.4,1.06-.59,1.61-.59h.67v1.16c-.38,0-.69.05-.98.18-.3.15-.57.38-.87.7.34.38.67.69.99.92.33.21.65.3,1.01.3h.33v1.26Z"/>
  <path class="st0" d="M500.46,237.16c-.18,2.11-.89,3.96-2.13,5.55-1.12,1.45-2.62,2.56-4.44,3.4v-.27c.59-.5,1.17-1.13,1.75-1.87.77-1.02,1.41-2.09,1.87-3.25.58-1.46.87-2.91.87-4.37v-5.86c0-.46-.1-.78-.34-1-.22-.22-.54-.33-.97-.33h-.52v-.75l3.96-.84v7.04h1.99v2.56h-2.03ZM499.18,221.3c.34,0,.65.15.9.44.24.31.36.67.36,1.1s-.12.76-.36,1.06c-.25.3-.56.46-.9.46s-.65-.16-.88-.44c-.26-.29-.38-.64-.38-1.07s.12-.79.36-1.1c.23-.29.53-.44.9-.44"/>
  <rect class="st0" x="506.5" y="230.59" width="2.57" height="10.58" transform="translate(271.29 743.38) rotate(-89.93)"/>
  <rect class="st0" x="517.09" y="230.59" width="2.57" height="10.58" transform="translate(281.86 753.96) rotate(-89.93)"/>
  <rect class="st0" x="527.67" y="230.59" width="2.57" height="10.58" transform="translate(292.43 764.55) rotate(-89.93)"/>
  <path class="st0" d="M535.58,229.15v-1.75l8.38-10.13h1.78l-8.52,10.29h3.67c2.05,0,3.43.29,4.14.9.78.67,1.17,2.02,1.17,4.05v4.65h-11.95v-2.56h9.83v-2.18c0-1.11-.27-1.89-.76-2.35-.68-.61-1.91-.92-3.75-.92h-3.99Z"/>
  <path class="st0" d="M555.72,237.16c-.18,2.11-.9,3.96-2.13,5.55-1.14,1.45-2.62,2.56-4.46,3.39v-.27c.59-.51,1.19-1.13,1.76-1.87.77-1.02,1.4-2.09,1.87-3.25.59-1.46.89-2.91.89-4.37v-5.86c0-.46-.13-.78-.34-1-.23-.23-.57-.33-.99-.33h-.54v-.75l3.97-.84v7.04h2v2.56h-2.03Z"/>
  <rect class="st0" x="561.76" y="230.59" width="2.57" height="10.59" transform="translate(326.47 798.64) rotate(-89.93)"/>
  <path class="st0" d="M581.59,237.16h-13.26v-2.56h9.82v-5.45h-1.86c-1.01,0-1.8.39-2.38,1.12-.53.67-.8,1.45-.8,2.36v1.01h-2.12v-1.29c0-1.4.42-2.54,1.26-3.41.91-.91,2.17-1.38,3.73-1.38h4.29v7.04c0,.44.14.84.43,1.17.29.37.59.55.89.55v.84Z"/>
  <path class="st0" d="M326.35,271.63v-4.11c0-.23-.03-.42-.1-.57-.16-.5-.58-.77-1.23-.77h-.54v-.74l3.98-.86v7.05h1.98v2.56h-15.26c-1.79,0-3.19-.45-4.14-1.32-.78-.72-1.15-1.55-1.15-2.51,0-.51.63-1.48,1.91-2.93,1.35-1.53,2.46-2.46,3.39-2.86v.4s-.25.23-.68.7c-.55.61-.98,1.17-1.29,1.68-.46.78-.69,1.44-.69,2.02,0,.48.33.96.99,1.42.79.55,1.79.83,2.98.83h9.83ZM320.5,277.4c.35,0,.65.14.89.44.25.31.37.67.37,1.09s-.11.77-.37,1.06c-.23.31-.54.46-.89.46s-.65-.16-.89-.46c-.26-.3-.39-.65-.39-1.07s.13-.78.39-1.09c.23-.29.53-.44.89-.44"/>
  <polygon class="st0" points="341.03 274.22 330.45 274.2 330.45 271.63 341.03 271.63 341.03 274.22"/>
  <polygon class="st0" points="351.62 274.22 341.04 274.2 341.04 271.63 351.62 271.63 351.62 274.22"/>
  <polygon class="st0" points="362.21 274.22 351.63 274.2 351.63 271.63 362.21 271.63 362.21 274.22"/>
  <path class="st0" d="M366.72,271.63v-4.11c0-.23-.03-.42-.08-.57-.16-.5-.59-.77-1.25-.77h-.53v-.74l3.97-.86v7.05c0,.62.23,1.14.67,1.57.14.15.37.29.66.46v.54h-7.96v-2.56h4.52ZM364.92,278.01c.36,0,.65.14.89.46.26.27.38.65.38,1.06s-.12.78-.38,1.08c-.24.27-.54.44-.89.44-.34,0-.63-.17-.87-.44-.26-.31-.37-.67-.37-1.08s.11-.78.35-1.1c.26-.27.55-.42.89-.42M368.02,277.4c.37,0,.65.14.91.44.24.29.36.66.36,1.08s-.12.74-.37,1.06c-.24.29-.54.44-.89.44s-.63-.15-.87-.44c-.25-.29-.39-.65-.39-1.07s.14-.79.37-1.08c.24-.29.55-.44.9-.44"/>
  <path class="st0" d="M379.73,273.13c0,2.38-.63,4.46-1.91,6.25-1.14,1.61-2.73,2.86-4.7,3.73v-.25c.58-.48,1.17-1.1,1.76-1.87.76-1,1.4-2.09,1.86-3.24.57-1.45.88-2.9.88-4.36v-5.86c0-.46-.11-.8-.34-.99-.23-.23-.57-.35-.99-.35h-.52v-.73l3.96-.87v8.55Z"/>
  <path class="st0" d="M397.9,274.19h-15.26v-2.56h11.16v-2.34c0-.9-.38-1.65-1.1-2.27-.66-.55-1.34-.85-2.09-.85h-6.64v-1.59h6.64c1.94,0,3.32.4,4.13,1.18.79.72,1.17,1.96,1.17,3.63v2.24h1.98v2.56Z"/>
  <polygon class="st0" points="408.5 274.22 397.91 274.2 397.91 271.63 408.5 271.63 408.5 274.22"/>
  <polygon class="st0" points="419.07 274.22 408.5 274.2 408.5 271.63 419.07 271.63 419.07 274.22"/>
  <path class="st0" d="M423.61,271.63v-4.11c0-.23-.04-.41-.1-.57-.16-.5-.59-.77-1.25-.77h-.53v-.74l3.97-.86v7.05h2v2.56h-8.63v-2.56h4.53ZM421.3,260.56c.35,0,.64.16.89.45.23.31.37.66.37,1.09,0,.4-.14.76-.37,1.06-.25.31-.55.45-.89.45s-.64-.14-.89-.45c-.25-.3-.37-.67-.37-1.06,0-.44.12-.79.36-1.09.23-.29.54-.45.89-.45M424.4,259.95c.35,0,.65.15.87.45.25.29.38.65.38,1.08,0,.4-.12.75-.38,1.04-.23.32-.54.45-.87.45s-.64-.13-.89-.42c-.26-.29-.38-.66-.38-1.07,0-.44.12-.8.37-1.08.23-.3.53-.45.9-.45"/>
  <path class="st0" d="M430.89,271.63v-14.39c0-.23-.03-.41-.08-.57-.16-.5-.58-.76-1.25-.76h-.54v-.74l3.99-.86v17.33c0,.63.22,1.15.67,1.57.13.15.35.29.66.46v.54h-6.64v-2.57h3.18Z"/>
  <path class="st0" d="M442.56,274.19h-4.77v-.53c.3-.15.53-.29.68-.44.43-.42.65-.97.65-1.59v-14.39c0-.46-.13-.78-.34-1-.22-.23-.55-.35-.99-.35h-.52v-.74l3.97-.86v17.33c0,.62.22,1.14.65,1.57.14.15.38.29.66.46v.53Z"/>
  <path class="st0" d="M453.43,270.54c0-1.21-.31-2.23-.95-3.08-.63-.84-1.38-1.28-2.24-1.28-.8,0-1.46.27-1.95.83-.48.52-.7,1.14-.7,1.91s.25,1.38.72,1.91c.46.54,1.06.8,1.78.8h2.28v.27c0,.44-.08.99-.23,1.55-.05.21-.15.46-.26.76h-1.64c-1.06,0-2.06-.3-2.94-.93-1.19-.84-1.81-2.08-1.81-3.73,0-1.49.52-2.7,1.52-3.67.89-.85,1.92-1.29,3.05-1.29,1.68,0,3,.51,3.96,1.48,1.02,1.04,1.53,2.52,1.53,4.46v1.11c0,.95-.3,2.13-.85,3.57-.66,1.58-1.51,3.03-2.56,4.38-1.27,1.57-2.66,2.75-4.19,3.54v-.25c1.25-1.23,2.45-2.93,3.6-5.11,1.27-2.39,1.89-4.33,1.89-5.85v-1.36Z"/>
  <path class="st0" d="M476.36,274.19c0,1.22-.52,2.41-1.55,3.6-1.15,1.3-2.64,2.23-4.54,2.83,1.6-1.55,2.66-2.84,3.22-3.89.51-.89.76-1.92.76-3.07v-4.27c0-1.41.42-2.54,1.29-3.41.89-.93,2.15-1.4,3.71-1.4h4.29v7.05h1.98v2.56h-7.96v-2.56h3.86v-5.45h-1.85c-1.01,0-1.81.4-2.39,1.13-.54.68-.8,1.46-.8,2.36v4.53Z"/>
  <polygon class="st0" points="496.1 274.22 485.52 274.2 485.52 271.63 496.1 271.63 496.1 274.22"/>
  <polygon class="st0" points="506.71 274.22 496.1 274.2 496.1 271.63 506.71 271.63 506.71 274.22"/>
  <path class="st0" d="M511.2,271.63v-4.11c0-.23-.02-.42-.08-.57-.16-.5-.57-.77-1.25-.77h-.54v-.74l3.99-.86v7.05h2v2.56h-8.63v-2.56h4.5ZM509.44,278.01c.35,0,.63.14.89.46.26.27.38.65.38,1.06s-.12.78-.38,1.08c-.25.27-.54.44-.89.44s-.64-.17-.89-.44c-.25-.31-.37-.67-.37-1.08s.12-.78.37-1.1c.25-.27.54-.42.89-.42M512.53,277.4c.35,0,.66.14.9.44.25.29.37.66.37,1.08s-.12.74-.37,1.06c-.25.29-.55.44-.9.44s-.65-.15-.89-.44c-.25-.29-.36-.65-.36-1.07s.11-.79.36-1.08c.24-.29.53-.44.89-.44"/>
  <path class="st0" d="M518.5,271.63v-14.39c0-.23-.02-.41-.08-.57-.16-.5-.59-.76-1.25-.76h-.53v-.74l3.98-.86v17.33h2v2.57h-7.29v-2.57h3.17Z"/>
  <polygon class="st0" points="533.21 274.22 522.63 274.2 522.63 271.63 533.21 271.63 533.21 274.22"/>
  <polygon class="st0" points="543.79 274.22 533.21 274.2 533.21 271.63 543.79 271.63 543.79 274.22"/>
  <path class="st0" d="M559.04,274.19h-15.25v-2.56h5.02c-.27-.24-.82-1.03-1.59-2.41-.55-.95-1.26-1.44-2.11-1.44.23-.98.73-1.72,1.47-2.24.61-.42,1.41-.68,2.42-.84.64-.07,1.56-.12,2.74-.12h1.12c1.29,0,2.3.31,3.02.93.76.67,1.15,1.64,1.15,2.94,0,.71-.09,1.33-.26,1.85-.17.54-.4.99-.7,1.32h2.94v2.56ZM554.92,268.09c0-.66-.25-1.15-.76-1.45-.51-.3-1.23-.46-2.14-.46h-.27c-1.04,0-1.72.05-2.03.16-.55.19-.84.63-.84,1.32,0,.65.52,1.47,1.53,2.48,1.02.99,1.91,1.48,2.66,1.48.42-.31.72-.59.92-.83.62-.65.92-1.31.92-1.95v-.76Z"/>
  <path class="st0" d="M563.56,271.63v-4.11c0-.23-.03-.41-.07-.57-.18-.5-.6-.77-1.26-.77h-.54v-.74l3.99-.86v7.05h2v2.56h-8.64v-2.56h4.52ZM561.27,260.56c.35,0,.65.16.89.45.25.31.37.66.37,1.09,0,.4-.12.76-.37,1.06-.24.31-.54.45-.89.45s-.64-.14-.89-.45c-.24-.3-.36-.67-.36-1.06,0-.44.12-.79.36-1.09.23-.29.54-.45.89-.45M564.37,259.95c.35,0,.65.15.89.45.24.29.37.65.37,1.08,0,.4-.12.75-.37,1.04-.25.32-.55.45-.88.45-.35,0-.65-.13-.89-.42-.25-.29-.37-.66-.37-1.07,0-.44.12-.8.37-1.08.23-.3.53-.45.9-.45"/>
  <path class="st0" d="M570.85,271.63v-14.39c0-.23-.02-.41-.08-.57-.16-.5-.58-.76-1.25-.76h-.53v-.74l3.97-.86v17.33h1.98v2.57h-7.28v-2.57h3.17Z"/>
  <path class="st0" d="M578.15,271.63v-14.39c0-.23-.02-.41-.08-.57-.16-.5-.58-.76-1.25-.76h-.54v-.74l3.98-.86v17.33c0,.63.23,1.15.67,1.57.14.15.35.29.65.46v.54h-6.64v-2.57h3.2Z"/>
  <path class="st0" d="M319.22,314.43c0-.29-.32-.61-1-.98-2.15-1.14-3.22-1.74-3.25-1.78-.78-.67-1.36-1.36-1.74-2.05-.46-.83-.69-1.73-.69-2.66,0-1.87.59-3.41,1.76-4.61,1.11-1.14,2.42-1.68,3.97-1.68,1.34,0,2.58.55,3.71,1.66,1.12,1.11,1.7,2.36,1.7,3.72v2.62h1.1v2.57h-1.47c-.41,0-.82-.22-1.17-.64-.38-.42-.57-.89-.57-1.41v-3.03c0-.91-.33-1.77-.95-2.58-.67-.88-1.43-1.32-2.28-1.32-.95,0-1.79.43-2.53,1.29-.76.89-1.14,2-1.14,3.29,0,.8.19,1.51.55,2.17.42.75,1.09,1.45,1.99,2.07.63.43,1.7.96,3.21,1.56.99.42,1.47.82,1.47,1.24,0,.65-.38,1.33-1.14,2.02-.8.75-1.84,1.36-3.13,1.84-1.47.52-3.06.78-4.76.78-1.55,0-3.13-.48-4.76-1.48-1.69-1.03-2.51-2.06-2.51-3.08,0-.4.63-1.14,1.94-2.22,1.21-.99,2.32-1.75,3.34-2.27v.4c-.55.56-.96,1-1.22,1.33-.81.98-1.22,1.71-1.22,2.16,0,.67.54,1.46,1.63,2.37,1.09.91,2.08,1.36,2.95,1.36,1.34,0,2.71-.33,4.1-.98,1.42-.65,2.1-1.19,2.1-1.66M313.09,320.86c.33,0,.65.14.89.45.27.29.38.65.38,1.06s-.11.78-.37,1.09c-.25.29-.56.44-.89.44-.36,0-.65-.15-.91-.44-.23-.31-.35-.66-.35-1.09s.11-.78.35-1.06c.26-.31.55-.45.91-.45M316.16,320.25c.37,0,.67.14.9.44.25.29.37.65.37,1.08,0,.4-.12.75-.37,1.04-.25.32-.54.45-.9.45-.34,0-.63-.13-.88-.44-.24-.28-.37-.64-.37-1.06s.13-.8.37-1.08c.23-.3.52-.44.88-.44"/>
  <rect class="st0" x="328.8" y="304.64" width="2.58" height="10.6" transform="translate(19.75 639.65) rotate(-89.93)"/>
  <rect class="st0" x="339.39" y="304.65" width="2.58" height="10.58" transform="translate(30.32 650.24) rotate(-89.93)"/>
  <rect class="st0" x="349.98" y="304.64" width="2.58" height="10.59" transform="translate(40.9 660.83) rotate(-89.93)"/>
  <rect class="st0" x="360.56" y="304.65" width="2.58" height="10.58" transform="translate(51.47 671.41) rotate(-89.93)"/>
  <path class="st0" d="M371.66,308.65v-4.1c0-.23-.03-.42-.08-.57-.16-.52-.59-.75-1.25-.75h-.53v-.76l3.97-.85v7.03h2v2.57h-8.63v-2.57h4.52ZM371.13,295.36c.33,0,.65.16.88.45.25.32.38.67.38,1.1,0,.4-.12.76-.38,1.06-.23.29-.55.44-.88.44-.36,0-.64-.14-.9-.44-.25-.28-.38-.65-.38-1.06s.12-.78.38-1.1c.25-.29.54-.45.9-.45"/>
  <rect class="st0" x="379.77" y="304.65" width="2.58" height="10.58" transform="translate(70.65 690.62) rotate(-89.93)"/>
  <rect class="st0" x="390.36" y="304.64" width="2.58" height="10.59" transform="translate(81.23 701.21) rotate(-89.93)"/>
  <path class="st0" d="M405.83,303.24h-1.41c-.61,0-1.22.19-1.75.62-.69.52-1.03,1.23-1.03,2.09v1.76h-2.05v-1.31c0-1.57.4-2.76,1.19-3.6.73-.8,1.74-1.19,3.03-1.19h2.02v-.27c0-.44-.12-.78-.34-.99-.23-.23-.55-.33-.98-.33h-.52v-.76l3.97-.85v3.2h1.62c1.52,0,2.68.4,3.46,1.19.76.79,1.14,1.99,1.14,3.6v2.24h1.99v2.57h-19.24v-2.57h8.89v-5.42ZM407.97,308.65h4.13v-2.81c0-.86-.36-1.53-1.09-2.03-.61-.4-1.23-.58-1.89-.58h-1.15v5.42Z"/>
  <path class="st0" d="M430.12,311.23h-13.94v-2.58h9.83v-5.41h-1.86c-1.01,0-1.79.35-2.39,1.1-.53.65-.79,1.45-.79,2.36v1.02h-2.13v-1.3c0-1.4.42-2.54,1.27-3.4.9-.95,2.15-1.4,3.73-1.4h4.27v7.03h2v2.58Z"/>
  <path class="st0" d="M433.29,308.65v-14.39c0-.23-.02-.41-.08-.57-.16-.5-.58-.75-1.23-.75h-.53v-.75l3.97-.85v17.32c0,.63.22,1.15.66,1.59.14.12.37.29.67.45v.54h-6.63v-2.57h3.18Z"/>
  <path class="st0" d="M444.98,311.23h-4.78v-.53c.29-.16.52-.3.65-.44.44-.42.67-.95.67-1.6v-14.39c0-.44-.12-.78-.35-1-.22-.22-.53-.33-.97-.33h-.54v-.74l3.98-.85v17.32c0,.63.23,1.15.66,1.59.14.12.37.29.68.45v.53Z"/>
  <path class="st0" d="M455.83,307.56c0-1.22-.33-2.22-.93-3.07-.64-.85-1.37-1.26-2.25-1.26-.81,0-1.47.24-1.96.8-.46.53-.69,1.16-.69,1.91s.23,1.38.71,1.92c.48.53,1.07.8,1.8.8h2.28v.27c0,.45-.1.99-.23,1.55-.07.2-.15.44-.26.75h-1.64c-1.08,0-2.06-.31-2.94-.92-1.2-.85-1.8-2.09-1.8-3.71,0-1.51.49-2.74,1.51-3.69.9-.87,1.92-1.29,3.04-1.29,1.68,0,3.02.5,3.98,1.47,1.01,1.04,1.52,2.52,1.52,4.47v1.1c0,.97-.29,2.15-.85,3.56-.66,1.61-1.51,3.05-2.56,4.41-1.25,1.58-2.66,2.75-4.19,3.53v-.25c1.26-1.23,2.46-2.93,3.6-5.11,1.26-2.39,1.89-4.35,1.89-5.87v-1.36Z"/>
  <path class="st0" d="M486.32,314.43c0-.29-.34-.61-1.01-.98-2.13-1.14-3.23-1.74-3.25-1.78-.78-.67-1.34-1.36-1.73-2.05-.47-.83-.69-1.73-.69-2.66,0-1.87.58-3.41,1.74-4.61,1.12-1.14,2.44-1.68,3.98-1.68,1.35,0,2.58.55,3.73,1.66,1.12,1.11,1.69,2.36,1.69,3.72v2.62h1.1v2.57h-1.49c-.39,0-.8-.22-1.17-.64-.38-.42-.57-.89-.57-1.41v-3.03c0-.91-.31-1.77-.94-2.58-.67-.88-1.43-1.32-2.3-1.32-.97,0-1.78.43-2.51,1.29-.77.89-1.15,2-1.15,3.29,0,.8.16,1.51.54,2.17.42.75,1.08,1.45,1.99,2.07.62.43,1.7.96,3.22,1.56.97.42,1.46.82,1.46,1.24,0,.65-.37,1.33-1.12,2.02-.79.75-1.85,1.36-3.13,1.84-1.47.52-3.05.78-4.76.78-1.55,0-3.15-.48-4.77-1.48-1.68-1.03-2.51-2.06-2.51-3.08,0-.4.64-1.14,1.94-2.22,1.2-.99,2.33-1.75,3.34-2.27v.4c-.55.56-.95,1-1.22,1.33-.81.98-1.21,1.71-1.21,2.16,0,.67.54,1.46,1.63,2.37,1.09.91,2.07,1.36,2.94,1.36,1.34,0,2.7-.33,4.12-.98,1.41-.65,2.09-1.19,2.09-1.66M480.17,320.86c.34,0,.65.14.89.45.25.29.39.65.39,1.06s-.13.78-.37,1.09c-.26.29-.55.44-.91.44-.33,0-.63-.15-.87-.44-.25-.31-.39-.66-.39-1.09s.13-.78.39-1.06c.24-.31.54-.45.87-.45M483.25,320.25c.38,0,.67.14.92.44.23.29.37.65.37,1.08,0,.4-.14.75-.37,1.04-.25.32-.57.45-.92.45-.33,0-.61-.13-.87-.44-.25-.28-.37-.64-.37-1.06s.11-.8.37-1.08c.23-.3.54-.44.87-.44"/>
  <rect class="st0" x="495.9" y="304.64" width="2.58" height="10.6" transform="translate(186.64 806.75) rotate(-89.93)"/>
  <rect class="st0" x="506.48" y="304.65" width="2.58" height="10.58" transform="translate(197.21 817.33) rotate(-89.93)"/>
  <path class="st0" d="M517.58,308.65v-4.1c0-.23-.04-.42-.08-.57-.17-.52-.58-.75-1.25-.75h-.53v-.76l3.97-.85v7.03h1.98v2.57h-8.62v-2.57h4.53ZM517.04,295.36c.35,0,.65.16.89.45.25.32.37.67.37,1.1,0,.4-.12.76-.37,1.06-.23.29-.54.44-.89.44-.33,0-.65-.14-.9-.44-.24-.28-.37-.65-.37-1.06s.12-.78.37-1.1c.25-.29.54-.45.9-.45"/>
  <rect class="st0" x="525.69" y="304.64" width="2.58" height="10.59" transform="translate(216.39 836.54) rotate(-89.93)"/>
  <rect class="st0" x="536.28" y="304.65" width="2.58" height="10.58" transform="translate(226.98 847.14) rotate(-89.93)"/>
  <path class="st0" d="M558.12,311.22h-15.26v-2.57h11.14v-2.35c0-1.25-.38-2.35-1.13-3.27-.76-.95-1.64-1.42-2.58-1.42-.72,0-1.33.19-1.81.62-.55.44-.85,1.1-.85,1.89,0,.62.24,1.26.73,1.87.62.78,1.47,1.31,2.58,1.56h-3.85c-.42-.2-.78-.52-1.07-1.01-.33-.55-.5-1.23-.5-1.99,0-1.36.44-2.43,1.36-3.27.91-.85,2.04-1.26,3.4-1.26,1.67,0,3.08.6,4.18,1.81,1.1,1.23,1.66,2.74,1.66,4.57v2.24h1.99v2.57ZM546.16,293.76c.35,0,.63.16.87.47.25.29.37.65.37,1.06s-.11.78-.37,1.06c-.25.31-.53.45-.87.45s-.66-.14-.91-.45c-.23-.29-.38-.64-.38-1.06s.13-.79.38-1.09c.24-.29.55-.44.91-.44M549.23,293.16c.36,0,.66.16.9.44.24.27.37.66.37,1.08s-.12.76-.38,1.06c-.24.29-.54.44-.89.44s-.64-.15-.89-.44c-.24-.29-.37-.64-.37-1.06s.12-.81.37-1.08c.23-.29.55-.44.89-.44"/>
  <path class="st0" d="M562.64,308.65v-4.09c0-.23-.03-.43-.08-.57-.18-.54-.59-.76-1.25-.76h-.54v-.77l3.99-.85v7.03h2v2.58h-8.63v-2.58h4.52ZM560.34,297.6c.33,0,.66.14.88.44.25.29.37.65.37,1.08s-.12.76-.37,1.06c-.22.31-.55.46-.88.46s-.64-.15-.89-.46c-.23-.31-.38-.65-.38-1.06s.14-.8.37-1.08c.25-.29.55-.44.9-.44M563.43,296.98c.34,0,.65.17.89.45.24.29.37.65.37,1.08,0,.4-.12.76-.37,1.06-.25.29-.55.46-.89.46s-.65-.17-.89-.44c-.24-.29-.37-.65-.37-1.08s.13-.8.36-1.08c.25-.28.55-.45.91-.45"/>
  <path class="st0" d="M569.95,308.65v-14.39c0-.23-.05-.41-.1-.57-.16-.5-.57-.75-1.23-.75h-.54v-.75l3.99-.85v17.32c0,.63.22,1.15.65,1.59.16.12.38.29.68.45v.54h-6.63v-2.57h3.19Z"/>
  <path class="st0" d="M581.59,311.23h-4.77v-.53c.29-.16.52-.3.67-.44.42-.42.67-.95.67-1.6v-14.39c0-.44-.12-.78-.34-1-.23-.22-.55-.33-.98-.33h-.54v-.74l3.97-.85v17.32c0,.63.23,1.15.67,1.59.14.12.36.29.66.45v.53Z"/>
  <rect class="st0" x="289.27" y="215.73" width="3.11" height="104.2"/>
  <path class="st0" d="M12.86,238.03h-.29c-.28,0-.46-.26-.46-.54v-9.25H1.83v9.25c0,.28-.2.54-.48.54h-.28c-.27,0-.47-.26-.47-.54v-14.9c0-3.69,1.21-5.42,5.38-5.42h1.96c4.18,0,5.38,1.74,5.38,5.42v14.9c0,.28-.2.54-.47.54M12.11,222.59c0-3.22-.91-4.27-4.16-4.27h-1.96c-3.26,0-4.15,1.05-4.15,4.27v4.45h10.28v-4.45Z"/>
  <path class="st0" d="M12.86,238.57h-.28c-.57,0-1.01-.47-1.01-1.08v-8.72H2.37v8.72c0,.59-.46,1.08-1.02,1.08h-.27c-.56,0-1.01-.49-1.01-1.08v-14.9c0-4.23,1.71-5.96,5.92-5.96h1.95c4.22,0,5.94,1.74,5.94,5.96v14.9c0,.59-.46,1.08-1.02,1.08M5.98,217.7c-3.63,0-4.84,1.23-4.84,4.89v14.9h.21l-.05-9.79h11.33v9.79h.15v-14.9c0-3.65-1.22-4.89-4.85-4.89h-1.95ZM12.63,227.57H1.3v-4.99c0-3.59,1.17-4.81,4.68-4.81h1.95c3.52,0,4.7,1.22,4.7,4.81v4.99ZM2.37,226.5h9.19v-3.91c0-2.99-.71-3.73-3.63-3.73h-1.95c-2.91,0-3.61.74-3.61,3.73v3.91Z"/>
  <path class="st0" d="M24.55,238.19c-1.59,0-3.46-.28-4.7-.53-.34-.08-.42-.21-.42-.54v-19.43c0-.27.2-.53.48-.53h.28c.28,0,.48.25.48.53v5.53c1.12-.27,2.8-.42,3.88-.42,3.65,0,5.52,2.28,5.52,6.7v1.85c0,4.05-1.64,6.83-5.52,6.83M28.83,229.51c0-3.69-1.18-5.6-4.28-5.6-1.08,0-2.82.14-3.88.35v12.47c1,.16,2.55.36,3.88.36,3.15,0,4.28-2.09,4.28-5.73v-1.85Z"/>
  <path class="st0" d="M24.56,238.73c-1.96,0-4.18-.4-4.81-.54-.6-.15-.85-.47-.85-1.06v-19.43c0-.59.46-1.08,1.02-1.08h.27c.56,0,1.02.48,1.02,1.08v4.87c1.02-.18,2.36-.29,3.34-.29,2.76,0,6.04,1.26,6.04,7.24v1.85c0,4.75-2.14,7.37-6.04,7.37M21.16,237.35c.95.14,2.23.3,3.39.3,4.1,0,4.97-3.43,4.97-6.3v-1.85c0-4.14-1.62-6.17-4.97-6.17-.59,0-1.32.05-2.02.13.72-.07,1.44-.11,2.02-.11,4.31,0,4.81,3.5,4.81,6.15v1.85c0,4.22-1.58,6.27-4.81,6.27-1.13,0-2.39-.14-3.39-.27M19.97,237.13c.05,0,.1.02.16.03v-19.46h-.21l.05,19.43ZM21.21,236.26c.88.13,2.2.29,3.34.29,2.61,0,3.73-1.55,3.73-5.19v-1.85c0-3.6-1.08-5.07-3.73-5.07-.95,0-2.36.11-3.34.27v11.56Z"/>
  <path class="st0" d="M40.93,238.19h-.54c-1.9,0-5.08-1.02-5.08-5.66v-9.04c0-.29.2-.55.48-.55h.29c.27,0,.47.25.47.55v9.04c0,3.59,1.94,4.5,3.84,4.5h.54c1.91,0,3.84-.91,3.84-4.5v-9.04c0-.29.2-.55.48-.55h.27c.29,0,.48.25.48.55v9.04c0,4.64-3.17,5.66-5.08,5.66"/>
  <path class="st0" d="M40.93,238.72h-.54c-2.6,0-5.62-1.62-5.62-6.19v-9.04c0-.6.46-1.09,1.02-1.09h.29c.55,0,1.01.49,1.01,1.09v9.04c0,2.66,1.08,3.95,3.3,3.95h.54c2.22,0,3.3-1.29,3.3-3.95v-9.04c0-.61.45-1.09,1.03-1.09h.27c.57,0,1.02.48,1.02,1.09v9.04c0,4.57-3.03,6.19-5.62,6.19M35.79,223.47l.06,9.06c0,4.75,3.47,5.12,4.53,5.12h.54c1.06,0,4.53-.37,4.53-5.12v-9.04h-.21s.05,9.04.05,9.04c0,4.38-2.73,5.03-4.37,5.03h-.54c-1.63,0-4.37-.65-4.37-5.03v-9.04h-.23Z"/>
  <path class="st0" d="M66.62,238.19c-2.24,0-3.77-.09-4.59-.23-.25-.06-.49-.29-.49-.53v-19.66c0-.26.23-.47.49-.53.82-.15,2.36-.23,4.59-.23,4.78,0,8.2,2.28,8.2,8.85v3.47c0,6.46-3.42,8.85-8.2,8.85M73.58,225.87c0-5.99-3.03-7.76-6.96-7.76-1.63,0-2.6.08-3.84.17v18.69c1.24.1,2.21.11,3.84.11,3.93,0,6.96-1.81,6.96-7.74v-3.47Z"/>
  <path class="st0" d="M66.63,238.72c-2.19,0-3.81-.08-4.7-.23-.53-.11-.93-.57-.93-1.06v-19.65c0-.49.4-.95.91-1.06.87-.16,2.44-.24,4.72-.24,5.7,0,8.72,3.26,8.72,9.4v3.47c0,7.75-4.75,9.38-8.72,9.38M62.49,237.49c.91.1,2.33.16,4.14.16,5.07,0,7.64-2.79,7.64-8.31v-3.47c0-5.6-2.51-8.32-7.64-8.32-2.74,0-3.97.12-4.5.22l-.06,19.66c.06.01.12.02.18.03v-19.69l1.07-.07c.99-.08,1.92-.14,3.31-.14,4.96,0,7.48,2.79,7.48,8.31v3.47c0,5.49-2.53,8.28-7.48,8.28-1.63,0-2.62-.01-3.9-.12l-.25-.02ZM63.32,236.47c1.02.06,1.94.08,3.31.08,4.31,0,6.4-2.36,6.4-7.2v-3.47c0-4.93-2.03-7.23-6.4-7.23-1.36,0-2.23.06-3.24.12h-.08v17.7Z"/>
  <path class="st0" d="M90.25,238.19h-.27c-.27,0-.45-.25-.45-.53v-9.47c0-2.75-1.15-4.28-4.16-4.28-1.2,0-2.71.2-3.78.48v13.27c0,.28-.2.53-.48.53h-.27c-.29,0-.48-.25-.48-.53v-19.96c0-.27.19-.53.48-.53h.27c.29,0,.48.25.48.53v5.61c1.09-.27,2.55-.5,3.78-.5,3.9,0,5.35,2.23,5.35,5.38v9.47c0,.28-.16.53-.47.53"/>
  <path class="st0" d="M90.25,238.72h-.27c-.55,0-.99-.47-.99-1.07v-9.46c0-2.63-1.08-3.76-3.62-3.76-.99,0-2.24.15-3.24.38v12.84c0,.59-.45,1.07-1.01,1.07h-.29c-.55,0-1-.48-1-1.07v-19.96c0-.59.45-1.07,1-1.07h.29c.56,0,1.01.48,1.01,1.07v4.93c1.11-.23,2.28-.36,3.24-.36,3.81,0,5.9,2.1,5.9,5.92v9.46c0,.61-.44,1.07-1.02,1.07M85.36,223.36c3.16,0,4.7,1.58,4.7,4.83v9.46h.12v-9.46c0-3.26-1.57-4.85-4.82-4.85-.67,0-1.41.07-2.07.18.71-.1,1.44-.15,2.07-.15M81.05,217.69h-.23s.07,19.96.07,19.96h.22l-.06-19.96Z"/>
  <path class="st0" d="M105.75,237.58c-1.34.38-2.83.61-4.23.61-4.27,0-5.66-1.46-5.66-4.52v-.37c0-2.95,1.81-4.33,6.92-4.33h2.17v-1c0-2.93-.82-4.06-3.54-4.06-1.85,0-2.67.11-3.98.25-.35.02-.65-.09-.65-.41v-.18c0-.31.22-.47.65-.51,1.17-.13,2.13-.25,3.98-.25,3.79,0,4.76,2.13,4.76,5.16v9.04c0,.35-.08.5-.42.57M104.94,230.1h-2.17c-4.23,0-5.66.82-5.66,3.2v.37c0,2.28.76,3.42,4.4,3.42,1.4,0,2.86-.22,3.43-.33v-6.66Z"/>
  <path class="st0" d="M101.52,238.72c-4.35,0-6.21-1.51-6.21-5.06v-.36c0-3.43,2.24-4.87,7.46-4.87h1.64v-.46c0-2.73-.67-3.53-3.01-3.53-1.61,0-2.39.08-3.48.2l-.59.05c-.27,0-.5-.06-.69-.18-.25-.18-.4-.45-.4-.76v-.17c0-.22.08-.96,1.14-1.04l.2-.03c1.1-.12,2.06-.23,3.83-.23,4.75,0,5.3,3.25,5.3,5.7v9.04c0,.22,0,.91-.83,1.1-1.46.4-2.96.61-4.35.61M102.77,229.51c-5.3,0-6.38,1.52-6.38,3.8v.36c0,2.46.84,3.99,5.12,3.99.61,0,1.26-.05,1.91-.14-.58.07-1.25.11-1.91.11-3.61,0-4.95-1.08-4.95-3.96v-.36c0-3.12,2.37-3.75,6.2-3.75h2.71v7.54s.08-.02.12-.03l.03-9.1c0-3.29-1.21-4.63-4.22-4.63-1.7,0-2.64.1-3.72.23l-.2.03c-.14.01-.2.03-.21.05-.02-.02-.04-.03-.05-.04l.1.55.05-.54.44-.04c1.08-.12,1.92-.21,3.59-.21,3.39,0,4.08,1.84,4.08,4.61v1.54h-2.71ZM102.77,230.64c-4.35,0-5.12.86-5.12,2.67v.36c0,1.74.27,2.88,3.87,2.88,1.13,0,2.28-.15,2.89-.23v-5.68h-1.64Z"/>
  <path class="st0" d="M117.12,238.19c-1.6,0-3.48-.28-4.71-.53-.34-.08-.42-.21-.42-.54v-19.43c0-.27.2-.53.48-.53h.28c.27,0,.47.25.47.53v5.53c1.14-.27,2.81-.42,3.9-.42,3.64,0,5.5,2.28,5.5,6.7v1.85c0,4.05-1.64,6.83-5.5,6.83M121.38,229.51c0-3.69-1.17-5.6-4.26-5.6-1.09,0-2.83.14-3.9.35v12.47c1.02.16,2.56.36,3.9.36,3.13,0,4.26-2.09,4.26-5.73v-1.85Z"/>
  <path class="st0" d="M117.12,238.73c-1.91,0-4.01-.37-4.82-.54-.58-.15-.85-.49-.85-1.06v-19.43c0-.59.45-1.08,1.02-1.08h.27c.56,0,1.02.48,1.02,1.08v4.87c1.05-.19,2.37-.3,3.36-.3,2.75,0,6.04,1.26,6.04,7.24v1.85c0,4.75-2.14,7.37-6.04,7.37M113.68,237.34c.94.15,2.24.31,3.44.31,4.11,0,4.97-3.43,4.97-6.3v-1.85c0-4.14-1.63-6.17-4.97-6.17-.57,0-1.25.05-1.93.11.69-.05,1.38-.09,1.93-.09,4.31,0,4.8,3.5,4.8,6.15v1.85c0,4.22-1.57,6.27-4.8,6.27-1.14,0-2.43-.14-3.44-.29M112.69,217.7h-.21l.05,19.43s.1.02.16.03v-19.46ZM113.76,236.26c.99.14,2.26.29,3.36.29,2.62,0,3.73-1.55,3.73-5.19v-1.85c0-3.6-1.08-5.07-3.73-5.07-.95,0-2.36.11-3.36.27v11.56Z"/>
  <path class="st0" d="M129,220.15h-.16c-.28,0-.53-.21-.53-.54v-2.07c0-.27.25-.52.53-.52h.16c.29,0,.54.25.54.52v2.07c0,.33-.25.54-.54.54M129,238.19h-.16c-.28,0-.53-.25-.53-.53v-14.17c0-.29.25-.55.53-.55h.16c.29,0,.54.25.54.55v14.17c0,.28-.25.53-.54.53"/>
  <path class="st0" d="M129,238.73h-.16c-.57,0-1.07-.49-1.07-1.07v-14.17c0-.59.5-1.08,1.07-1.08h.16c.57,0,1.08.49,1.08,1.08v14.17c0,.58-.5,1.07-1.08,1.07M128.84,223.48l.02,14.18h.12s.01-14.17.01-14.17h-.16ZM129,220.69h-.16c-.59,0-1.07-.47-1.07-1.08v-2.07c0-.58.5-1.07,1.07-1.07h.16c.57,0,1.08.49,1.08,1.07v2.07c0,.63-.46,1.08-1.08,1.08M129,217.55h-.16s.02,2.07.02,2.07h.15s-.01-2.07-.01-2.07Z"/>
  <path class="st0" d="M156.67,237.9c-.72.09-2.26.28-4.85.28-3.5,0-6.86-2.04-6.86-8.74v-3.68c0-6.74,3.35-8.76,6.86-8.76,2.58,0,4.12.2,4.85.29.26.02.54.18.54.47v.34c0,.28-.14.34-.37.34h-.17c-1.02-.12-3.1-.26-4.85-.26-3.15,0-5.64,2.03-5.64,7.58v3.68c0,5.55,2.5,7.56,5.64,7.56,1.75,0,3.83-.14,4.85-.25h.17c.23,0,.37.05.37.33v.35c0,.28-.28.44-.54.47"/>
  <path class="st0" d="M151.82,238.72c-2.23,0-7.41-.89-7.41-9.27v-3.69c0-8.08,4.64-9.29,7.41-9.29,2.57,0,4.12.19,4.86.28.63.06,1.06.49,1.06,1.02v.33c0,.55-.33.89-.9.89h-.16c-.99-.11-3.09-.26-4.85-.26-3.33,0-5.1,2.43-5.1,7.03v3.69c0,4.59,1.76,7.02,5.1,7.02,1.78,0,3.89-.15,4.8-.24h.22c.84,0,.9.66.9.85v.35c0,.52-.41.93-1,1-.76.09-2.31.28-4.92.28M151.82,217.55c-2.88,0-6.32,1.42-6.32,8.21v3.69c0,6.78,3.44,8.2,6.32,8.2,2.54,0,4.05-.18,4.78-.27v-.08c-.89.1-2.99.25-4.78.25-2.3,0-6.18-1.05-6.18-8.1v-3.69c0-7.05,3.88-8.1,6.18-8.1,1.67,0,3.72.13,4.85.25v-.14c-.84-.05-2.35-.22-4.85-.22"/>
  <path class="st0" d="M172.48,230.76h-9.48v.59c0,4.73,2.28,5.73,5.08,5.73,1.23,0,2.78-.2,4.14-.48.07,0,.12-.01.18-.01.22,0,.42.1.42.38v.2c0,.31-.11.44-.53.54-1.36.29-2.96.48-4.21.48-3.47,0-6.3-1.51-6.3-6.83v-1.85c0-3.86,1.96-6.7,5.66-6.7s5.59,2.7,5.59,6.67v.76c0,.31-.26.52-.53.52M171.78,229.48c0-3.54-1.17-5.58-4.35-5.58s-4.43,2.28-4.43,5.61v.15h8.78v-.18Z"/>
  <path class="st0" d="M168.07,238.73c-4.54,0-6.84-2.48-6.84-7.37v-1.85c0-4.4,2.43-7.24,6.2-7.24s6.12,2.63,6.12,7.21v.76c0,.59-.47,1.06-1.07,1.06l-8.95.05c0,4.57,2.18,5.19,4.54,5.19,1.08,0,2.56-.17,4.04-.47.18-.02.23-.03.28-.03.56,0,.97.39.97.93v.2c0,.77-.55.97-.97,1.06-1.45.31-3.07.49-4.32.49M167.42,223.34c-3.16,0-5.12,2.36-5.12,6.17v1.85c0,4.29,1.83,6.3,5.76,6.3,1.17,0,2.74-.18,4.1-.47.1-.01.13-.03.15-.04-.03,0-.07,0-.1,0-.81.17-2.57.48-4.15.48-2.41,0-5.62-.65-5.62-6.27v-1.12h10.02v-.75c0-2.81-.87-6.14-5.05-6.14M172.32,230.19h-9.87v-.69c0-3.9,1.81-6.15,4.97-6.15s4.89,2,4.89,6.12v.71ZM163.54,229.12h7.69c-.08-3.24-1.26-4.68-3.81-4.68-3.03,0-3.8,2.45-3.88,4.68"/>
  <path class="st0" d="M188.48,238.19h-.28c-.27,0-.48-.25-.48-.53v-9.68c0-3.52-1.62-3.99-3.51-3.99h-1.19c-1.88,0-3.52.48-3.52,3.99v9.68c0,.28-.19.53-.47.53h-.29c-.27,0-.48-.25-.48-.53v-9.68c0-4.71,2.81-5.16,4.75-5.16h1.19c1.94,0,4.75.45,4.75,5.16v9.68c0,.28-.19.53-.48.53"/>
  <path class="st0" d="M188.48,238.72h-.29c-.55,0-1.01-.48-1.01-1.07v-9.68c0-3.19-1.34-3.45-2.98-3.45h-1.18c-1.63,0-2.98.26-2.98,3.45v9.68c0,.59-.46,1.07-1.01,1.07h-.29c-.55,0-1.01-.48-1.01-1.07v-9.68c0-5.7,3.97-5.7,5.29-5.7h1.18c1.32,0,5.29,0,5.29,5.7v9.68c0,.61-.44,1.07-1.01,1.07M183.02,223.44h1.18c2.02,0,4.06.54,4.06,4.53v9.68h.15v-9.68c0-4.08-2.12-4.63-4.21-4.63h-1.18c-2.08,0-4.22.55-4.22,4.63v9.68h.23l-.07-9.68c0-3.99,2.04-4.53,4.05-4.53"/>
  <path class="st0" d="M200.6,238.1c-.36.06-1.29.09-2.12.09-2.49,0-3.84-.82-3.84-3.6v-14.79c0-.29.22-.55.52-.55h.23c.28,0,.5.25.5.55v3.15h4.72c.31,0,.54.14.54.45v.27c0,.26-.23.44-.54.44h-4.72v10.49c0,2.17.71,2.49,2.6,2.49h2.12c.42,0,.59.11.59.37v.21c0,.22-.07.38-.59.44"/>
  <path class="st0" d="M198.48,238.73c-2.04,0-4.38-.47-4.38-4.14v-14.79c0-.6.48-1.08,1.06-1.08h.23c.57,0,1.04.48,1.04,1.08v2.6h4.18c.62,0,1.08.42,1.08,1v.26c0,.56-.46.98-1.08.98h-4.18v9.95c0,1.79.36,1.96,2.05,1.96h2.13c1.01,0,1.13.63,1.13.9v.2c0,.39-.19.87-1.06.99-.42.05-1.44.08-2.19.08M195.16,219.79v14.8c.01,2.26.89,3.06,3.32,3.06.44,0,.9,0,1.29-.03h-1.29c-2.07,0-3.13-.47-3.13-3.03v-11.03h5.25v-.16s-5.25.08-5.25.08v-3.68h-.2Z"/>
  <path class="st0" d="M211.03,223.9h-.88c-1.42,0-2.19.16-3.05.67v13.08c0,.28-.2.53-.48.53h-.27c-.28,0-.44-.25-.44-.53v-13.3c0-.23.13-.39.24-.45,1.38-.84,2.56-1.1,4.05-1.1,1.26,0,1.41.14,1.41.5v.14c0,.34-.18.46-.57.46"/>
  <path class="st0" d="M206.63,238.72h-.27c-.56,0-1-.47-1-1.07v-13.3c0-.48.29-.79.53-.93,1.36-.82,2.61-1.15,4.31-1.15.91,0,1.96,0,1.96,1.04v.14c0,.31-.12.99-1.12.99h-.88c-1.2,0-1.84.12-2.51.46v12.76c0,.59-.45,1.07-1.01,1.07M206.57,224.28s-.09.05-.14.08v13.3h.14v-13.38ZM210.2,223.34c-.39,0-.75.01-1.09.06.31-.03.67-.04,1.04-.04h.72c-.15,0-.36-.02-.67-.02"/>
  <path class="st0" d="M225.93,230.76h-9.49v.59c0,4.73,2.28,5.73,5.08,5.73,1.23,0,2.77-.2,4.14-.48.07,0,.11-.01.17-.01.22,0,.42.1.42.38v.2c0,.31-.1.44-.52.54-1.36.29-2.96.48-4.21.48-3.48,0-6.32-1.51-6.32-6.83v-1.85c0-3.86,1.96-6.7,5.67-6.7s5.57,2.7,5.57,6.67v.76c0,.31-.25.52-.52.52M225.22,229.48c0-3.54-1.17-5.58-4.35-5.58s-4.44,2.28-4.44,5.61v.15h8.79v-.18Z"/>
  <path class="st0" d="M221.52,238.73c-4.55,0-6.86-2.48-6.86-7.37v-1.85c0-4.4,2.43-7.24,6.21-7.24s6.11,2.63,6.11,7.21v.76c0,.59-.48,1.06-1.06,1.06l-8.95.05c0,4.57,2.19,5.19,4.54,5.19,1.08,0,2.56-.17,4.04-.47.16-.02.22-.03.27-.03.55,0,.97.39.97.93v.2c0,.77-.55.98-.97,1.06-1.45.31-3.06.49-4.31.49M217.84,224.31c-1.34,1.02-2.1,2.84-2.1,5.2v1.85c0,4.29,1.84,6.3,5.78,6.3,1.17,0,2.73-.18,4.1-.47.1-.01.14-.03.16-.05h-.11c-.81.18-2.58.49-4.15.49-2.42,0-5.62-.65-5.62-6.27v-1.12h10.03l-.02-.75c0-2.81-.87-6.14-5.04-6.14-.77,0-1.46.14-2.08.41.61-.27,1.29-.39,2.08-.39,3.29,0,4.89,2,4.89,6.12v.71h-9.86v-.69c0-2.43.67-4.2,1.94-5.2M216.98,229.12h7.7c-.08-3.24-1.27-4.68-3.81-4.68s-3.8,1.57-3.89,4.68"/>
  <path class="st0" d="M247.41,218.11h-2.13c-1.87,0-2.62.34-2.62,2.51v2.32h4.75c.31,0,.53.15.53.46v.26c0,.27-.23.44-.53.44h-4.75v13.55c0,.28-.21.53-.5.53h-.2c-.31,0-.53-.25-.53-.53v-17.03c0-2.79,1.37-3.61,3.84-3.61.84,0,1.76.02,2.13.08.5.07.58.23.58.46v.2c0,.25-.16.37-.58.37"/>
  <path class="st0" d="M242.16,238.72h-.2c-.59,0-1.07-.48-1.07-1.06v-17.03c0-3.68,2.35-4.15,4.39-4.15.79,0,1.78.02,2.21.08.69.1,1.05.44,1.05.99v.2c0,.27-.11.9-1.13.9h-2.13c-1.65,0-2.08.19-2.08,1.98v1.77h4.2c.63,0,1.08.42,1.08,1v.26c0,.57-.46.97-1.08.97h-4.2v13.02c0,.59-.47,1.06-1.04,1.06M245.28,217.55c-2.44,0-3.31.8-3.31,3.07v17.03h.14s.01-14.09.01-14.09h5.28v-.16l-5.28.08v-2.85c0-2.57,1.11-3.06,3.15-3.06h1.2c-.35-.01-.78-.01-1.2-.01"/>
  <path class="st0" d="M256.62,238.19c-3.85,0-5.78-2.47-5.78-6.72v-1.96c0-4.23,1.93-6.7,5.78-6.7s5.79,2.47,5.79,6.7v1.96c0,4.25-1.94,6.72-5.79,6.72M261.17,229.51c0-3.44-1.27-5.6-4.55-5.6s-4.53,2.17-4.53,5.6v1.96c0,3.47,1.26,5.62,4.53,5.62s4.55-2.15,4.55-5.62v-1.96Z"/>
  <path class="st0" d="M256.63,238.72c-4.08,0-6.32-2.57-6.32-7.26v-1.96c0-4.67,2.24-7.24,6.32-7.24s6.32,2.57,6.32,7.24v1.96c0,4.68-2.24,7.26-6.32,7.26M256.63,223.34c-4.33,0-5.25,3.35-5.25,6.17v1.96c0,2.83.91,6.19,5.25,6.19s5.24-3.36,5.24-6.19v-1.96c0-2.81-.91-6.17-5.24-6.17M256.63,237.62c-3.37,0-5.08-2.07-5.08-6.16v-1.96c0-5.08,2.77-6.15,5.08-6.15s5.08,1.07,5.08,6.15v1.96c0,4.09-1.71,6.16-5.08,6.16M256.63,224.44c-2.73,0-3.99,1.62-3.99,5.07v1.96c0,3.47,1.27,5.08,3.99,5.08s3.99-1.61,3.99-5.08v-1.96c0-3.45-1.27-5.07-3.99-5.07"/>
  <path class="st0" d="M272.93,223.9h-.87c-1.44,0-2.19.16-3.05.67v13.08c0,.28-.2.53-.48.53h-.28c-.28,0-.44-.25-.44-.53v-13.3c0-.23.14-.39.24-.45,1.37-.84,2.55-1.1,4.04-1.1,1.27,0,1.44.14,1.44.5v.14c0,.34-.21.46-.59.46"/>
  <path class="st0" d="M268.54,238.72h-.28c-.57,0-.99-.45-.99-1.07v-13.3c0-.47.28-.79.52-.93,1.36-.83,2.61-1.16,4.31-1.16.92,0,1.98,0,1.98,1.04v.14c0,.23-.08.99-1.14.99h-.87c-1.19,0-1.84.12-2.51.46v12.76c0,.6-.45,1.07-1.01,1.07M268.47,224.28c-.06.03-.08.05-.14.08v13.3s.12,0,.12,0v-13.37ZM272.09,223.34c-.4,0-.76.02-1.12.06.32-.03.69-.04,1.08-.04h.7c-.14,0-.36-.02-.67-.02"/>
  <path class="st0" d="M14.31,255.8h-5.99v19.17c0,.27-.2.53-.48.53h-.28c-.27,0-.46-.25-.46-.53v-19.17H1.07c-.31,0-.54-.16-.54-.43v-.25c0-.27.22-.48.54-.48h13.23c.29,0,.53.21.53.48v.25c0,.27-.24.43-.53.43"/>
  <path class="st0" d="M7.84,276.04h-.29c-.55,0-1-.48-1-1.06v-18.64H1.08c-.63,0-1.08-.4-1.08-.97v-.25c0-.58.46-1.02,1.08-1.02h13.23c.59,0,1.06.45,1.06,1.02v.25c0,.55-.45.97-1.06.97h-5.45v18.64c0,.59-.44,1.06-1.02,1.06M1.08,255.26h6.54v19.73l.16-.02v-19.7h6.52v-.14l-13.21.05v.08Z"/>
  <path class="st0" d="M25,268.26h-9.45v.59c0,4.72,2.24,5.73,5.06,5.73,1.23,0,2.76-.19,4.14-.48.06,0,.1-.03.18-.03.22,0,.42.11.42.41v.17c0,.33-.12.46-.54.55-1.34.27-2.94.46-4.2.46-3.46,0-6.29-1.52-6.29-6.82v-1.85c0-3.87,1.96-6.72,5.65-6.72s5.57,2.71,5.57,6.69v.76c0,.3-.25.53-.53.53M24.3,266.97c0-3.54-1.17-5.59-4.33-5.59s-4.42,2.28-4.42,5.62v.16h8.74v-.18Z"/>
  <path class="st0" d="M20.61,276.21c-4.53,0-6.83-2.48-6.83-7.36v-1.85c0-4.4,2.42-7.24,6.19-7.24s6.1,2.62,6.1,7.22v.76c0,.58-.5,1.08-1.06,1.08l-8.92.04c0,4.57,2.17,5.19,4.52,5.19,1.12,0,2.59-.17,4.03-.47.12-.02.19-.03.28-.03.55,0,.95.38.95.94v.18c0,.78-.55.99-.95,1.08-1.47.3-3.08.48-4.31.48M16.83,261.88c-1.27,1.05-1.98,2.83-1.98,5.12v1.85c0,4.28,1.84,6.28,5.76,6.28,1.14,0,2.71-.17,4.1-.45.11-.03.15-.05.15-.05h-.11c-1.4.3-2.94.48-4.14.48-2.41,0-5.59-.65-5.59-6.26v-1.12h9.99l-.02-.76c0-2.81-.87-6.15-5.02-6.15-.78,0-1.47.14-2.08.41.61-.26,1.3-.39,2.08-.39,3.28,0,4.87,2,4.87,6.13v.72h-9.82v-.69c0-2.37.63-4.1,1.81-5.12M16.09,266.61h7.67c-.08-3.25-1.26-4.7-3.79-4.7-3.05,0-3.8,2.47-3.88,4.7"/>
  <path class="st0" d="M37.17,275.42c-1.17.14-2.49.24-3.39.24-4.01,0-5.55-3.12-5.55-6.79v-1.89c0-3.71,1.54-6.71,5.55-6.71.89,0,2.21.12,3.39.26.41.05.52.2.52.5v.19c0,.28-.2.4-.48.4h-.11c-1.31-.16-2.41-.26-3.32-.26-3.2,0-4.31,2.23-4.31,5.62v1.89c0,3.41,1.12,5.7,4.31,5.7.91,0,2.01-.08,3.32-.25h.11c.27,0,.48.11.48.4v.18c0,.31-.11.45-.52.52"/>
  <path class="st0" d="M33.78,276.21c-3.81,0-6.09-2.74-6.09-7.33v-1.89c0-4.6,2.22-7.24,6.09-7.24,1.08,0,2.62.16,3.44.26.83.1,1,.62,1,1.03v.19c0,.56-.41.93-1.01.93h-.18c-1.32-.17-2.39-.25-3.26-.25-2.61,0-3.78,1.56-3.78,5.07v1.89c0,4.63,2.16,5.16,3.78,5.16.91,0,2-.08,3.26-.25h.18c.61,0,1.01.37,1.01.94v.18c0,.61-.33.96-1,1.04-1.32.16-2.6.26-3.44.26M33.78,260.82c-4.37,0-5.02,3.86-5.02,6.17v1.89c0,2.34.65,6.25,5.02,6.25.8,0,2.04-.09,3.31-.24h.05v-.02h-.05c-1.21.16-2.36.24-3.31.24-3.22,0-4.85-2.09-4.85-6.23v-1.89c0-4.08,1.64-6.15,4.85-6.15.9,0,2.01.08,3.37.26h0s-.03-.02-.05-.03c-1.35-.17-2.56-.25-3.31-.25"/>
  <path class="st0" d="M50.38,275.67h-.29c-.27,0-.43-.24-.43-.54v-9.46c0-2.73-1.16-4.28-4.15-4.28-1.21,0-2.71.2-3.77.5v13.25c0,.3-.22.54-.48.54h-.27c-.29,0-.49-.24-.49-.54v-19.93c0-.3.2-.56.49-.56h.27c.27,0,.48.26.48.56v5.6c1.08-.27,2.53-.51,3.77-.51,3.9,0,5.33,2.24,5.33,5.38v9.46c0,.3-.16.54-.46.54"/>
  <path class="st0" d="M50.38,276.21h-.29c-.56,0-.97-.47-.97-1.08v-9.45c0-2.64-1.08-3.76-3.61-3.76-1.02,0-2.28.15-3.23.39v12.82c0,.61-.45,1.08-1.02,1.08h-.27c-.57,0-1.02-.48-1.02-1.08v-19.94c0-.61.45-1.08,1.02-1.08h.27c.56,0,1.02.48,1.02,1.08v4.93c1.1-.22,2.27-.37,3.23-.37,3.84,0,5.87,2.05,5.87,5.92v9.45c0,.62-.42,1.08-1,1.08M40.99,255.17l.06,19.95h.22l-.05-13.64h0,0v-6.3h-.22ZM45.52,260.84c3.1,0,4.68,1.62,4.68,4.83v9.45h.1v-9.45c.01-3.26-1.56-4.85-4.78-4.85-.58,0-1.19.05-1.79.13.61-.07,1.22-.11,1.79-.11"/>
  <path class="st0" d="M64.3,275.67h-.28c-.27,0-.47-.24-.47-.54v-9.68c0-3.52-1.62-3.97-3.5-3.97h-1.2c-1.85,0-3.5.46-3.5,3.97v9.68c0,.3-.19.54-.47.54h-.27c-.29,0-.48-.24-.48-.54v-9.68c0-4.7,2.79-5.16,4.72-5.16h1.2c1.94,0,4.74.46,4.74,5.16v9.68c0,.3-.2.54-.48.54"/>
  <path class="st0" d="M64.3,276.21h-.28c-.56,0-1.02-.48-1.02-1.08v-9.68c0-3.18-1.33-3.44-2.96-3.44h-1.2c-1.61,0-2.96.26-2.96,3.44v9.68c0,.61-.44,1.08-1.01,1.08h-.27c-.57,0-1.01-.48-1.01-1.08v-9.68c0-5.69,3.95-5.69,5.25-5.69h1.2c1.31,0,5.27,0,5.27,5.69v9.68c0,.61-.44,1.08-1.02,1.08M58.84,260.82c-2.06,0-4.18.54-4.18,4.62v9.68h.22l-.07-9.68c0-3.97,2.05-4.52,4.04-4.52h1.2c2,0,4.04.54,4.04,4.52v9.68h.16v-9.68c0-4.08-2.12-4.62-4.2-4.62h-1.2Z"/>
  <path class="st0" d="M69.17,257.64h-.17c-.28,0-.54-.2-.54-.52v-2.08c0-.29.25-.54.54-.54h.17c.27,0,.53.25.53.54v2.08c0,.31-.26.52-.53.52M69.17,275.67h-.17c-.28,0-.54-.24-.54-.54v-14.17c0-.28.25-.52.54-.52h.17c.27,0,.53.23.53.52v14.17c0,.3-.26.54-.53.54"/>
  <path class="st0" d="M69.16,276.2h-.17c-.57,0-1.07-.5-1.07-1.08v-14.17c0-.57.5-1.05,1.07-1.05h.17c.58,0,1.07.48,1.07,1.05v14.17c0,.58-.49,1.08-1.07,1.08M69.16,260.96l-.16.03v14.14h.15v-14.17ZM69.16,258.18h-.17c-.6,0-1.07-.46-1.07-1.06v-2.08c0-.57.5-1.08,1.07-1.08h.17c.57,0,1.07.52,1.07,1.08v2.08c0,.61-.47,1.06-1.07,1.06M68.99,255.03v2.09s.17-.01.17-.01h0v-2.07s-.18,0-.18,0Z"/>
  <path class="st0" d="M82.02,275.42c-1.17.14-2.48.24-3.38.24-4.01,0-5.55-3.12-5.55-6.79v-1.89c0-3.71,1.55-6.71,5.55-6.71.9,0,2.21.12,3.38.26.42.05.53.2.53.5v.19c0,.28-.2.4-.46.4h-.12c-1.31-.16-2.4-.26-3.32-.26-3.19,0-4.31,2.23-4.31,5.62v1.89c0,3.41,1.12,5.7,4.31,5.7.92,0,2.01-.08,3.32-.25h.12c.27,0,.46.11.46.4v.18c0,.31-.1.45-.53.52"/>
  <path class="st0" d="M78.64,276.21c-3.82,0-6.09-2.74-6.09-7.33v-1.89c0-4.6,2.23-7.24,6.09-7.24,1.08,0,2.62.16,3.44.26.67.07,1,.42,1,1.03v.19c0,.56-.41.93-1,.93h-.2c-1.34-.17-2.38-.25-3.25-.25-2.61,0-3.77,1.56-3.77,5.07v1.89c0,4.63,2.15,5.16,3.77,5.16.92,0,1.99-.08,3.25-.25h.2c.59,0,1,.37,1,.94v.18c0,.61-.34.96-1,1.04-1.34.16-2.6.26-3.44.26M78.64,260.82c-4.37,0-5.01,3.86-5.01,6.17v1.89c0,2.34.65,6.25,5.01,6.25.8,0,2.04-.09,3.31-.24h.05v-.02h-.05c-1.24.16-2.35.24-3.32.24-3.21,0-4.85-2.09-4.85-6.23v-1.89c0-4.08,1.64-6.15,4.85-6.15.92,0,1.99.08,3.37.26h0s-.03-.02-.06-.03c-1.38-.17-2.56-.25-3.31-.25"/>
  <path class="st0" d="M94.69,275.07c-1.36.38-2.83.59-4.23.59-4.25,0-5.66-1.44-5.66-4.51v-.35c0-2.94,1.82-4.33,6.91-4.33h2.17v-1.03c0-2.92-.82-4.06-3.52-4.06-1.85,0-2.67.12-3.98.25-.33.03-.64-.09-.64-.42v-.18c0-.3.22-.45.64-.5,1.17-.14,2.13-.26,3.98-.26,3.76,0,4.75,2.14,4.75,5.16v9.06c0,.33-.08.49-.42.57M93.88,267.59h-2.17c-4.22,0-5.64.82-5.64,3.2v.35c0,2.3.76,3.42,4.39,3.42,1.4,0,2.86-.23,3.42-.33v-6.64Z"/>
  <path class="st0" d="M90.46,276.21c-4.33,0-6.19-1.51-6.19-5.06v-.35c0-3.41,2.23-4.86,7.45-4.86h1.62v-.5c0-2.73-.67-3.52-2.99-3.52-1.53,0-2.34.08-3.35.19l-.7.07c-.27,0-.5-.07-.69-.19-.25-.18-.4-.46-.4-.78v-.17c0-.27.12-.92,1.12-1.03,1.21-.14,2.19-.26,4.03-.26,4.74,0,5.29,3.24,5.29,5.69v9.05c0,.6-.27.97-.82,1.1-1.41.4-2.92.61-4.36.61M91.72,267.01c-5.29,0-6.37,1.52-6.37,3.79v.35c0,2.46.85,3.97,5.11,3.97.66,0,1.33-.05,2-.14-.58.07-1.29.12-2,.12-3.59,0-4.93-1.08-4.93-3.96v-.35c0-3.12,2.37-3.74,6.19-3.74h2.7v7.53s.08-.03.12-.04l.02-9.11c0-3.29-1.22-4.61-4.21-4.61-1.77,0-2.68.1-3.84.23-.18.02-.25.05-.29.06,0-.02-.02-.02-.03-.04l.1.55.05-.54.54-.06c1.05-.12,1.87-.2,3.47-.2,3.37,0,4.06,1.84,4.06,4.6v1.57h-2.7ZM91.72,268.13c-4.35,0-5.11.86-5.11,2.67v.35c0,1.74.27,2.88,3.85,2.88,1.14,0,2.28-.15,2.88-.25v-5.65h-1.62Z"/>
  <path class="st0" d="M99.68,275.67h-.29c-.27,0-.46-.24-.46-.54v-19.93c0-.3.19-.56.46-.56h.29c.28,0,.48.26.48.56v19.93c0,.3-.2.54-.48.54"/>
  <path class="st0" d="M99.68,276.21h-.28c-.56,0-1.02-.48-1.02-1.08v-19.94c0-.61.46-1.08,1.02-1.08h.28c.57,0,1.02.48,1.02,1.08v19.94c0,.61-.44,1.08-1.02,1.08M99.4,255.17l.07,19.95h.15v-19.94s-.22-.01-.22-.01Z"/>
  <path class="st0" d="M120.6,275.07c-1.35.38-2.83.59-4.22.59-4.25,0-5.66-1.44-5.66-4.51v-.35c0-2.94,1.81-4.33,6.91-4.33h2.15v-1.03c0-2.92-.8-4.06-3.52-4.06-1.85,0-2.66.12-3.98.25-.31.03-.64-.09-.64-.42v-.18c0-.3.23-.45.64-.5,1.18-.14,2.13-.26,3.98-.26,3.78,0,4.76,2.14,4.76,5.16v9.06c0,.33-.08.49-.41.57M119.78,267.59h-2.15c-4.22,0-5.64.82-5.64,3.2v.35c0,2.3.75,3.42,4.39,3.42,1.4,0,2.85-.23,3.4-.33v-6.64Z"/>
  <path class="st0" d="M116.38,276.21c-4.35,0-6.19-1.51-6.19-5.06v-.35c0-3.41,2.22-4.86,7.44-4.86h1.61v-.5c0-2.73-.68-3.52-2.99-3.52-1.53,0-2.33.08-3.33.19l-.72.07c-.26,0-.5-.07-.68-.19-.26-.18-.41-.46-.41-.78v-.17c0-.27.1-.91,1.11-1.03,1.23-.16,2.21-.26,4.04-.26,4.74,0,5.3,3.24,5.3,5.69v9.05c0,.23,0,.91-.84,1.1-1.38.4-2.9.61-4.33.61M117.63,267.01c-5.29,0-6.38,1.52-6.38,3.79v.35c0,2.46.86,3.97,5.12,3.97.65,0,1.32-.05,2-.14-.6.07-1.3.12-2,.12-3.6,0-4.93-1.08-4.93-3.96v-.35c0-3.12,2.36-3.74,6.19-3.74h2.68v7.53s.09-.01.14-.04l.03-9.11c0-3.29-1.23-4.61-4.23-4.61-1.76,0-2.67.1-3.82.23-.19.02-.26.05-.29.06-.01-.02-.03-.02-.05-.04l.1.55.05-.54.56-.06c1.04-.12,1.86-.2,3.45-.2,3.37,0,4.06,1.84,4.06,4.6v1.57h-2.68ZM117.63,268.13c-4.34,0-5.1.86-5.1,2.67v.35c0,1.74.26,2.88,3.85,2.88,1.13,0,2.26-.15,2.86-.25v-5.65h-1.61Z"/>
  <path class="st0" d="M134.6,275.67h-.28c-.27,0-.47-.24-.47-.54v-9.68c0-3.52-1.62-3.97-3.5-3.97h-1.19c-1.89,0-3.51.46-3.51,3.97v9.68c0,.3-.19.54-.47.54h-.28c-.27,0-.48-.24-.48-.54v-9.68c0-4.7,2.81-5.16,4.74-5.16h1.19c1.93,0,4.73.46,4.73,5.16v9.68c0,.3-.19.54-.48.54"/>
  <path class="st0" d="M134.59,276.21h-.27c-.57,0-1.01-.48-1.01-1.08v-9.68c0-3.18-1.33-3.44-2.96-3.44h-1.19c-1.62,0-2.97.26-2.97,3.44v9.68c0,.61-.44,1.08-1.01,1.08h-.28c-.56,0-1.01-.48-1.01-1.08v-9.68c0-5.69,3.96-5.69,5.27-5.69h1.19c1.31,0,5.26,0,5.26,5.69v9.68c0,.61-.44,1.08-1.01,1.08M129.15,260.82c-2.08,0-4.19.54-4.19,4.62v9.68h.21l-.07-9.68c0-3.97,2.04-4.52,4.05-4.52h1.19c2,0,4.05.54,4.05,4.52v9.68h.14v-9.68c.01-4.08-2.11-4.62-4.18-4.62h-1.19Z"/>
  <path class="st0" d="M148.24,275.13c-1.23.25-3.11.54-4.7.54-3.85,0-5.46-2.77-5.46-6.81v-1.86c0-4.42,1.83-6.71,5.46-6.71,1.1,0,2.78.19,3.88.44v-5.53c0-.29.21-.55.49-.55h.27c.28,0,.49.26.49.55v19.41c0,.34-.09.45-.42.53M147.42,261.74c-1.04-.22-2.79-.36-3.88-.36-3.07,0-4.25,1.92-4.25,5.61v1.86c0,3.61,1.14,5.73,4.25,5.73,1.36,0,2.88-.2,3.88-.37v-12.48Z"/>
  <path class="st0" d="M143.53,276.2c-3.86,0-6-2.62-6-7.36v-1.85c0-5.99,3.26-7.24,6-7.24.96,0,2.29.12,3.35.31v-4.87c0-.61.46-1.08,1.02-1.08h.27c.57,0,1.02.47,1.02,1.08v19.42c0,.58-.26.91-.84,1.04-.63.14-2.81.55-4.83.55M143.53,260.82c-3.32,0-4.93,2.02-4.93,6.17v1.85c0,2.86.86,6.28,4.93,6.28.85,0,1.72-.08,2.48-.18-.76.08-1.63.16-2.48.16-3.22,0-4.78-2.05-4.78-6.26v-1.85c0-2.64.48-6.15,4.78-6.15.46,0,1.02.03,1.62.07-.59-.05-1.15-.09-1.62-.09M147.96,261.31v13.32c.05,0,.12-.03.15-.03v-19.42s-.2-.01-.2-.01l.05,6.13ZM143.53,261.91c-2.59,0-3.71,1.52-3.71,5.08v1.85c0,3.64,1.12,5.19,3.71,5.19,1.19,0,2.48-.16,3.35-.29v-11.56c-1.03-.18-2.47-.28-3.35-.28"/>
  <path class="st0" d="M173.9,255.33l-5.73,18.97c-.29.95-.93,1.36-1.81,1.36s-1.55-.42-1.81-1.36l-5.75-18.97s-.03-.13-.03-.17c0-.29.16-.53.48-.53h.29c.2,0,.4.18.46.4l5.71,18.9c.14.45.33.57.65.57.29,0,.49-.12.63-.57l5.72-18.9c.05-.22.24-.4.44-.4h.31c.31,0,.47.24.47.53,0,.04,0,.13-.03.17"/>
  <path class="st0" d="M166.36,276.21c-1.18,0-2.01-.63-2.34-1.76l-5.73-18.92c-.07-.15-.07-.29-.07-.37,0-.61.43-1.06,1.02-1.06h.31c.45,0,.86.34.98.8l5.7,18.86c.1.35.08.2.08.2.08,0,.12-.05.18-.21l5.7-18.88c.09-.43.52-.78.96-.78h.31c.59,0,1.01.44,1.01,1.06,0,.08,0,.23-.07.4l-5.72,18.9c-.33,1.12-1.16,1.75-2.32,1.75M159.31,255.18h0l5.74,18.97c.2.68.59.99,1.31.99s1.09-.31,1.3-.99l5.73-18.97h-.24s-5.63,18.9-5.63,18.9c-.21.65-.58.96-1.15.96s-.97-.31-1.17-.95l-5.7-18.89h-.17Z"/>
  <path class="st0" d="M180.68,275.66c-3.82,0-5.76-2.46-5.76-6.69v-1.98c0-4.25,1.94-6.71,5.76-6.71s5.78,2.47,5.78,6.71v1.98c0,4.23-1.94,6.69-5.78,6.69M185.21,266.99c0-3.45-1.26-5.61-4.53-5.61s-4.52,2.17-4.52,5.61v1.98c0,3.44,1.27,5.61,4.52,5.61s4.53-2.17,4.53-5.61v-1.98Z"/>
  <path class="st0" d="M180.68,276.2c-4.06,0-6.3-2.57-6.3-7.24v-1.98c0-4.67,2.24-7.24,6.3-7.24s6.32,2.57,6.32,7.24v1.98c0,4.67-2.24,7.24-6.32,7.24M180.68,260.82c-4.31,0-5.22,3.35-5.22,6.17v1.98c0,2.81.91,6.16,5.22,6.16s5.25-3.35,5.25-6.16v-1.98c0-2.82-.91-6.17-5.25-6.17M180.68,275.11c-2.3,0-5.07-1.06-5.07-6.14v-1.98c0-5.08,2.77-6.15,5.07-6.15,3.37,0,5.08,2.07,5.08,6.15v1.98c0,5.08-2.76,6.14-5.08,6.14M180.68,261.91c-2.72,0-3.99,1.61-3.99,5.08v1.98c0,3.46,1.27,5.07,3.99,5.07s4-1.61,4-5.07v-1.98c0-3.46-1.27-5.08-4-5.08"/>
  <path class="st0" d="M198.07,275.42c-1.17.14-2.49.24-3.37.24-4.01,0-5.55-3.12-5.55-6.79v-1.89c0-3.71,1.53-6.71,5.55-6.71.89,0,2.2.12,3.37.26.42.05.53.2.53.5v.19c0,.28-.2.4-.47.4h-.12c-1.32-.16-2.39-.26-3.31-.26-3.2,0-4.33,2.23-4.33,5.62v1.89c0,3.41,1.13,5.7,4.33,5.7.92,0,2-.08,3.31-.25h.12c.27,0,.47.11.47.4v.18c0,.31-.1.45-.53.52"/>
  <path class="st0" d="M194.7,276.21c-3.8,0-6.08-2.74-6.08-7.33v-1.89c0-4.6,2.22-7.24,6.08-7.24,1.08,0,2.62.16,3.44.26.84.1,1,.62,1,1.03v.19c0,.56-.4.93-1.02.93h-.18c-1.36-.17-2.39-.25-3.25-.25-1.62,0-3.78.53-3.78,5.07v1.89c0,4.63,2.16,5.16,3.78,5.16.91,0,1.97-.08,3.25-.25h.18c.62,0,1.02.37,1.02.94v.18c0,.42-.17.94-1,1.04-1.32.16-2.62.26-3.44.26M194.7,260.82c-4.36,0-5,3.86-5,6.17v1.89c0,2.34.65,6.25,5,6.25.79,0,2.04-.09,3.31-.24.02,0,.04,0,.05-.01h0s-.05,0-.05,0c-1.26.16-2.37.24-3.32.24-3.22,0-4.86-2.09-4.86-6.23v-1.89c0-4.08,1.64-6.15,4.86-6.15.9,0,1.97.08,3.37.26h0s-.03-.02-.05-.03c-1.38-.17-2.56-.25-3.31-.25"/>
  <path class="st0" d="M210.74,275.07c-1.36.38-2.84.59-4.22.59-4.26,0-5.67-1.44-5.67-4.51v-.35c0-2.94,1.81-4.33,6.92-4.33h2.15v-1.03c0-2.92-.8-4.06-3.52-4.06-1.83,0-2.65.12-3.95.25-.35.03-.65-.09-.65-.42v-.18c0-.3.23-.45.65-.5,1.16-.14,2.13-.26,3.95-.26,3.78,0,4.77,2.14,4.77,5.16v9.06c0,.33-.09.49-.42.57M209.92,267.59h-2.15c-4.22,0-5.64.82-5.64,3.2v.35c0,2.3.75,3.42,4.4,3.42,1.38,0,2.84-.23,3.39-.33v-6.64Z"/>
  <path class="st0" d="M206.52,276.21c-4.35,0-6.2-1.51-6.2-5.06v-.35c0-3.41,2.22-4.86,7.45-4.86h1.61v-.5c0-2.73-.67-3.52-2.98-3.52-1.53,0-2.33.08-3.35.19l-.7.07c-.27,0-.51-.07-.7-.19-.25-.18-.4-.46-.4-.78v-.17c0-.27.1-.92,1.12-1.03,1.19-.14,2.18-.26,4.03-.26,4.74,0,5.3,3.24,5.3,5.69v9.05c0,.59-.29.97-.84,1.1-1.4.4-2.92.61-4.35.61M207.77,267.01c-5.29,0-6.38,1.52-6.38,3.79v.35c0,2.46.86,3.97,5.13,3.97.61,0,1.26-.05,1.92-.12-.61.06-1.28.11-1.92.11-3.6,0-4.94-1.08-4.94-3.96v-.35c0-3.12,2.36-3.74,6.19-3.74h2.69v7.53s.09-.01.14-.04l.03-9.11c0-3.29-1.22-4.61-4.23-4.61-1.78,0-2.69.1-3.84.25-.18,0-.25.03-.27.05-.01-.02-.03-.02-.05-.04l.12.55.05-.54.54-.06c1.04-.12,1.87-.2,3.46-.2,3.37,0,4.06,1.84,4.06,4.6v1.57h-2.69ZM207.77,268.13c-4.35,0-5.11.86-5.11,2.67v.35c0,1.74.27,2.88,3.86,2.88,1.04,0,2.14-.14,2.86-.25v-5.66h-1.61Z"/>
  <path class="st0" d="M220.66,275.6c-.36.04-1.28.06-2.13.06-2.46,0-3.83-.81-3.83-3.58v-14.8c0-.27.23-.54.54-.54h.22c.28,0,.5.27.5.54v3.16h4.7c.31,0,.54.14.54.43v.25c0,.29-.23.44-.54.44h-4.7v10.51c0,2.15.71,2.5,2.58,2.5h2.13c.43,0,.6.12.6.37v.18c0,.23-.09.4-.6.48"/>
  <path class="st0" d="M218.53,276.21c-2.04,0-4.37-.48-4.37-4.13v-14.79c0-.59.5-1.08,1.08-1.08h.22c.56,0,1.03.5,1.03,1.08v2.62h4.17c.63,0,1.07.4,1.07.97v.26c0,.57-.46.97-1.07.97h-4.17v9.97c0,1.78.39,1.96,2.04,1.96h2.13c1.06,0,1.14.69,1.14.9v.18c0,.85-.81.97-1.06,1-.42.05-1.42.08-2.21.08M215.24,257.28v14.8c0,2.25.86,3.05,3.29,3.05.44,0,.87,0,1.23-.02h-1.23c-2.06,0-3.11-.46-3.11-3.03v-11.04h5.24v-.05h-5.24v-3.7h-.18Z"/>
  <path class="st0" d="M224.65,257.64h-.16c-.28,0-.54-.2-.54-.52v-2.08c0-.29.25-.54.54-.54h.16c.28,0,.53.25.53.54v2.08c0,.31-.25.52-.53.52M224.65,275.67h-.16c-.28,0-.54-.24-.54-.54v-14.17c0-.28.25-.52.54-.52h.16c.28,0,.53.23.53.52v14.17c0,.3-.25.54-.53.54"/>
  <path class="st0" d="M224.65,276.2h-.16c-.59,0-1.08-.5-1.08-1.08v-14.17c0-.57.49-1.05,1.08-1.05h.16c.58,0,1.08.48,1.08,1.05v14.17c0,.58-.5,1.08-1.08,1.08M224.65,260.96l-.16.03v14.14h.15v-14.17ZM224.65,258.18h-.16c-.6,0-1.08-.46-1.08-1.06v-2.08c0-.57.5-1.08,1.08-1.08h.16c.56,0,1.08.52,1.08,1.08v2.08c0,.61-.48,1.06-1.08,1.06M224.49,255.03v2.09s.16-.01.16-.01h.01v-2.07s-.18,0-.18,0Z"/>
  <path class="st0" d="M234.36,275.66c-3.83,0-5.76-2.46-5.76-6.69v-1.98c0-4.25,1.93-6.71,5.76-6.71s5.76,2.47,5.76,6.71v1.98c0,4.23-1.92,6.69-5.76,6.69M238.88,266.99c0-3.45-1.25-5.61-4.52-5.61s-4.54,2.17-4.54,5.61v1.98c0,3.44,1.27,5.61,4.54,5.61s4.52-2.17,4.52-5.61v-1.98Z"/>
  <path class="st0" d="M234.36,276.2c-4.07,0-6.3-2.57-6.3-7.24v-1.98c0-4.67,2.24-7.24,6.3-7.24s6.29,2.57,6.29,7.24v1.98c0,4.67-2.23,7.24-6.29,7.24M234.36,260.82c-4.32,0-5.23,3.35-5.23,6.17v1.98c0,2.81.91,6.16,5.23,6.16s5.21-3.35,5.21-6.16v-1.98c0-2.82-.91-6.17-5.21-6.17M234.36,275.11c-2.32,0-5.09-1.06-5.09-6.14v-1.98c0-4.08,1.72-6.15,5.09-6.15s5.05,2.07,5.05,6.15v1.98c0,4.07-1.7,6.14-5.05,6.14M234.36,261.91c-2.73,0-4.01,1.61-4.01,5.08v1.98c0,3.46,1.27,5.07,4.01,5.07s3.98-1.61,3.98-5.07v-1.98c0-3.46-1.26-5.08-3.98-5.08"/>
  <path class="st0" d="M253.27,275.67h-.27c-.28,0-.48-.24-.48-.54v-9.68c0-3.52-1.61-3.97-3.48-3.97h-1.2c-1.89,0-3.51.46-3.51,3.97v9.68c0,.3-.2.54-.48.54h-.28c-.26,0-.46-.24-.46-.54v-9.68c0-4.7,2.79-5.16,4.73-5.16h1.2c1.92,0,4.72.46,4.72,5.16v9.68c0,.3-.2.54-.48.54"/>
  <path class="st0" d="M253.27,276.21h-.28c-.57,0-1.02-.48-1.02-1.08v-9.68c0-3.18-1.33-3.44-2.94-3.44h-1.19c-1.64,0-2.98.26-2.98,3.44v9.68c0,.61-.44,1.08-1,1.08h-.29c-.55,0-.99-.48-.99-1.08v-9.68c0-5.69,3.95-5.69,5.27-5.69h1.19c1.29,0,5.26,0,5.26,5.69v9.68c0,.61-.44,1.08-1.02,1.08M247.84,260.82c-2.08,0-4.2.54-4.2,4.62v9.68h.21l-.06-9.68c0-3.97,2.04-4.52,4.05-4.52h1.19c1.99,0,4.01.54,4.01,4.52v9.68h.17v-9.68c0-4.08-2.11-4.62-4.18-4.62h-1.19Z"/>
  <path class="st0" d="M266.46,275.07c-1.34.38-2.82.59-4.22.59-4.25,0-5.65-1.44-5.65-4.51v-.35c0-2.94,1.82-4.33,6.92-4.33h2.15v-1.03c0-2.92-.82-4.06-3.52-4.06-1.87,0-2.66.12-3.97.25-.34.03-.65-.09-.65-.42v-.18c0-.3.22-.45.65-.5,1.17-.14,2.11-.26,3.97-.26,3.76,0,4.75,2.14,4.75,5.16v9.06c0,.33-.08.49-.43.57M265.67,267.59h-2.15c-4.23,0-5.64.82-5.64,3.2v.35c0,2.3.74,3.42,4.38,3.42,1.4,0,2.85-.23,3.42-.33v-6.64Z"/>
  <path class="st0" d="M262.25,276.21c-4.34,0-6.2-1.51-6.2-5.06v-.35c0-3.41,2.24-4.86,7.46-4.86h1.62v-.5c0-2.73-.67-3.52-3-3.52-1.54,0-2.33.08-3.34.19l-.72.07c-.27,0-.51-.07-.69-.19-.25-.18-.4-.46-.4-.78v-.17c0-.27.1-.92,1.12-1.03,1.22-.16,2.19-.26,4.03-.26,4.74,0,5.29,3.24,5.29,5.69v9.05c0,.23,0,.91-.84,1.1-1.36.39-2.92.61-4.34.61M263.52,267.01c-5.3,0-6.38,1.52-6.38,3.79v.35c0,2.46.85,3.97,5.12,3.97.62,0,1.28-.05,1.92-.12-.59.06-1.25.11-1.92.11-3.59,0-4.92-1.08-4.92-3.96v-.35c0-3.12,2.37-3.74,6.19-3.74h2.69v7.53s.07-.03.12-.04l.03-9.11c0-3.29-1.21-4.61-4.21-4.61-1.77,0-2.68.1-3.82.23-.19.02-.27.05-.3.06,0-.02-.02-.02-.04-.04l.1.55.05-.54.56-.06c1.03-.12,1.86-.2,3.45-.2,3.37,0,4.07,1.84,4.07,4.6v1.57h-2.69ZM263.52,268.13c-4.34,0-5.12.86-5.12,2.67v.35c0,1.74.27,2.88,3.85,2.88,1.12,0,2.25-.15,2.88-.25v-5.65h-1.62Z"/>
  <path class="st0" d="M271.46,275.67h-.27c-.28,0-.48-.24-.48-.54v-19.93c0-.3.2-.56.48-.56h.27c.29,0,.48.26.48.56v19.93c0,.3-.2.54-.48.54"/>
  <path class="st0" d="M271.46,276.21h-.27c-.57,0-1.02-.48-1.02-1.08v-19.94c0-.61.45-1.08,1.02-1.08h.27c.57,0,1.02.48,1.02,1.08v19.94c0,.61-.45,1.08-1.02,1.08M271.19,255.17l.06,19.95h.15v-19.94s-.21-.01-.21-.01Z"/>
  <path class="st0" d="M11.24,312.99H3.99c-2.12,0-3.38-.79-3.38-3.15v-14.57c0-2.35,1.26-3.14,3.38-3.14h7.25c.29,0,.52.2.52.48v.21c0,.28-.22.46-.52.46H3.99c-1.34,0-2.16.25-2.16,1.98v6.19h9.41c.29,0,.52.16.52.45v.28c0,.28-.22.47-.52.47H1.83v7.18c0,1.74.82,2.01,2.16,2.01h7.25c.29,0,.52.17.52.44v.23c0,.27-.22.47-.52.47"/>
  <path class="st0" d="M11.23,313.52H3.99c-2.65,0-3.93-1.2-3.93-3.69v-14.57c0-2.47,1.28-3.67,3.93-3.67h7.24c.59,0,1.05.44,1.05,1.02v.22c0,.57-.44,1-1.05,1H3.99c-1.25,0-1.62.19-1.62,1.44v5.64h8.87c.61,0,1.05.42,1.05.99v.28c0,.57-.44,1.01-1.05,1.01H2.37v6.64c0,1.28.38,1.47,1.62,1.47h7.24c.61,0,1.05.42,1.05.97v.24c0,.56-.46,1-1.05,1M11.21,292.61l-7.22.06c-2.05,0-2.85.72-2.85,2.6v14.57c0,1.88.8,2.61,2.85,2.61h7.27l-.05-.17-7.22.11c-1.4,0-2.7-.31-2.7-2.55v-7.72h9.94l-.02-.22-9.92.09v-6.73c0-2.21,1.3-2.51,2.7-2.51h7.24l-.02-.14Z"/>
  <path class="st0" d="M25.74,312.62c-1.23.26-3.11.54-4.71.54-3.86,0-5.49-2.79-5.49-6.81v-1.88c0-4.42,1.85-6.69,5.49-6.69,1.1,0,2.76.16,3.9.42v-5.55c0-.25.19-.52.46-.52h.3c.27,0,.46.27.46.52v19.44c0,.33-.08.45-.41.53M24.93,299.22c-1.08-.22-2.81-.35-3.9-.35-3.09,0-4.26,1.89-4.26,5.6v1.88c0,3.62,1.12,5.7,4.26,5.7,1.35,0,2.89-.18,3.9-.35v-12.48Z"/>
  <path class="st0" d="M21.03,313.69c-3.9,0-6.04-2.6-6.04-7.35v-1.87c0-5.98,3.29-7.24,6.04-7.24.98,0,2.3.12,3.37.31v-4.89c0-.59.45-1.06,1-1.06h.29c.55,0,1,.47,1,1.06v19.43c0,.59-.26.91-.82,1.05-.65.13-2.85.55-4.85.55M21.03,298.31c-3.33,0-4.95,2-4.95,6.15v1.87c0,2.87.85,6.28,4.95,6.28.99,0,2.04-.12,2.9-.23-.78.1-1.85.2-2.9.2-3.22,0-4.8-2.04-4.8-6.24v-1.87c0-2.63.49-6.14,4.8-6.14.48,0,1.08.03,1.69.07-.59-.05-1.19-.08-1.69-.08M25.47,298.78v13.35c.05-.02.1-.02.14-.03v-19.44s-.21.01-.21.01l.07,6.11ZM21.03,299.41c-2.64,0-3.72,1.47-3.72,5.06v1.87c0,3.62,1.12,5.17,3.72,5.17,1.13,0,2.39-.12,3.37-.27v-11.58c-1.02-.16-2.44-.25-3.37-.25"/>
  <path class="st0" d="M36.25,313.16h-.53c-1.91,0-5.08-1.02-5.08-5.63v-9.09c0-.29.2-.53.48-.53h.27c.28,0,.47.24.47.53v9.09c0,3.58,1.94,4.48,3.85,4.48h.53c1.93,0,3.84-.91,3.84-4.48v-9.09c0-.29.22-.53.47-.53h.3c.29,0,.48.24.48.53v9.09c0,4.61-3.15,5.63-5.08,5.63"/>
  <path class="st0" d="M36.25,313.69h-.52c-2.6,0-5.62-1.62-5.62-6.16v-9.09c0-.6.45-1.07,1.02-1.07h.27c.57,0,1.01.47,1.01,1.07v9.09c0,2.66,1.09,3.95,3.32,3.95h.52c2.22,0,3.3-1.29,3.3-3.95v-9.09c0-.59.46-1.07,1-1.07h.29c.57,0,1.02.47,1.02,1.07v9.09c0,4.54-3.03,6.16-5.62,6.16M31.33,298.45h-.2s.06,9.09.06,9.09c0,4.72,3.46,5.08,4.54,5.08h.52c1.06,0,4.54-.37,4.54-5.08v-9.09h-.23s.07,9.09.07,9.09c0,4.37-2.75,5.02-4.38,5.02h-.52c-1.64,0-4.4-.66-4.4-5.02v-9.09Z"/>
  <path class="st0" d="M54.32,312.92c-1.17.13-2.49.24-3.39.24-4.01,0-5.56-3.12-5.56-6.8v-1.9c0-3.73,1.55-6.69,5.56-6.69.89,0,2.21.12,3.39.25.42.06.53.22.53.51v.2c0,.26-.2.39-.48.39h-.11c-1.32-.18-2.41-.25-3.33-.25-3.19,0-4.33,2.21-4.33,5.59v1.9c0,3.39,1.14,5.69,4.33,5.69.93,0,2.01-.08,3.33-.25h.11c.28,0,.48.12.48.4v.21c0,.31-.11.44-.53.52"/>
  <path class="st0" d="M50.93,313.7c-3.81,0-6.09-2.74-6.09-7.33v-1.9c0-4.59,2.22-7.24,6.09-7.24,1.06,0,2.62.16,3.44.26.69.1,1.02.44,1.02,1.04v.2c0,.55-.42.93-1.02.93h-.16c-1.23-.17-2.31-.25-3.28-.25-2.61,0-3.78,1.56-3.78,5.06v1.9c0,4.61,2.16,5.15,3.78,5.15.93,0,2-.08,3.28-.25h.16c.6,0,1.02.38,1.02.93v.2c0,.88-.74,1.01-.99,1.05-1.36.16-2.65.25-3.48.25M50.93,298.31c-4.15,0-5.01,3.34-5.01,6.15v1.9c0,2.34.65,6.26,5.01,6.26.8,0,2.04-.08,3.33-.23.03,0,.05,0,.05-.02v-.03h-.03c-1.24.16-2.37.25-3.34.25-3.22,0-4.85-2.09-4.85-6.22v-1.9c0-4.07,1.64-6.13,4.85-6.13,1.02,0,2.11.08,3.38.26v-.03s-.04-.01-.06-.01c-1.39-.16-2.58-.24-3.31-.24"/>
  <path class="st0" d="M68.09,312.56c-1.36.37-2.83.6-4.22.6-4.28,0-5.68-1.46-5.68-4.53v-.37c0-2.94,1.82-4.32,6.93-4.32h2.16v-1c0-2.92-.81-4.07-3.52-4.07-1.87,0-2.68.1-3.99.25-.34.03-.65-.09-.65-.42v-.18c0-.29.22-.45.65-.51,1.18-.13,2.12-.25,3.99-.25,3.77,0,4.76,2.13,4.76,5.18v9.02c0,.36-.09.52-.42.6M67.28,305.06h-2.16c-4.24,0-5.67.84-5.67,3.2v.37c0,2.28.76,3.42,4.42,3.42,1.39,0,2.84-.2,3.41-.33v-6.66Z"/>
  <path class="st0" d="M63.86,313.69c-4.36,0-6.22-1.51-6.22-5.06v-.37c0-3.41,2.23-4.86,7.47-4.86h1.62v-.46c0-2.75-.67-3.54-2.99-3.54-1.68,0-2.48.08-3.6.22l-.48.04c-.27,0-.51-.07-.69-.19-.26-.17-.4-.46-.4-.78v-.17c0-.33.14-.89,1.11-1.04l.19-.02c1.11-.12,2.07-.24,3.88-.24,4.75,0,5.3,3.27,5.3,5.72v9.02c0,.4-.09.94-.83,1.13-1.49.39-2.99.6-4.35.6M65.12,304.48c-5.31,0-6.39,1.51-6.39,3.78v.37c0,2.45.86,3.99,5.14,3.99.59,0,1.23-.05,1.88-.14-.57.06-1.23.1-1.88.1-3.61,0-4.95-1.08-4.95-3.95v-.37c0-3.12,2.37-3.74,6.21-3.74h2.7v7.55s.09-.03.14-.03c0,.05.01.01.01-.08v-9.02c0-3.3-1.21-4.64-4.22-4.64-1.73,0-2.67.11-3.75.23h-.18c-.12.03-.19.06-.22.07-.02-.02-.02-.03-.03-.04l.1.56.05-.55.31-.04c1.15-.12,1.99-.22,3.72-.22,3.37,0,4.07,1.85,4.07,4.62v1.53h-2.7ZM65.12,305.6c-4.33,0-5.13.9-5.13,2.67v.37c0,1.74.26,2.87,3.88,2.87,1.05,0,2.17-.12,2.88-.22v-5.69h-1.62Z"/>
  <path class="st0" d="M79.09,313.07c-.37.07-1.29.09-2.13.09-2.47,0-3.84-.82-3.84-3.6v-14.8c0-.29.23-.53.53-.53h.22c.28,0,.5.24.5.53v3.15h4.71c.31,0,.53.16.53.44v.26c0,.27-.23.45-.53.45h-4.71v10.5c0,2.16.7,2.49,2.58,2.49h2.13c.42,0,.59.14.59.37v.2c0,.22-.08.4-.59.45"/>
  <path class="st0" d="M76.96,313.7c-2.04,0-4.38-.47-4.38-4.14v-14.8c0-.59.48-1.06,1.08-1.06h.22c.57,0,1.04.48,1.04,1.06v2.61h4.17c.62,0,1.07.42,1.07.99v.26c0,.55-.46.99-1.07.99h-4.17v9.96c0,1.78.36,1.94,2.04,1.94h2.13c1.07,0,1.12.76,1.12.91v.2c0,.58-.36.91-1.07.99-.5.08-1.8.09-2.19.09M73.85,294.76h-.19v14.8c0,2.26.86,3.06,3.3,3.06.61,0,1.17,0,1.55-.03h-1.55c-2.07,0-3.11-.47-3.11-3.03v-11.03h5.25v-.17l-5.25.1v-3.69Z"/>
  <path class="st0" d="M84.17,295.14h-.17c-.28,0-.54-.23-.54-.53v-2.1c0-.27.25-.51.54-.51h.17c.27,0,.53.24.53.51v2.1c0,.3-.27.53-.53.53M84.17,313.16h-.17c-.28,0-.54-.24-.54-.55v-14.17c0-.29.25-.53.54-.53h.17c.27,0,.53.24.53.53v14.17c0,.31-.27.55-.53.55"/>
  <path class="st0" d="M84.17,313.69h-.17c-.59,0-1.08-.48-1.08-1.08v-14.17c0-.58.5-1.07,1.08-1.07h.17c.58,0,1.08.49,1.08,1.07v14.17c0,.59-.5,1.08-1.08,1.08M84.17,298.45h-.17v14.17h.16s.01-14.17.01-14.17ZM84.17,295.67h-.17c-.59,0-1.08-.48-1.08-1.06v-2.1c0-.57.5-1.06,1.08-1.06h.17c.56,0,1.08.5,1.08,1.06v2.1c0,.58-.5,1.06-1.08,1.06M84.17,292.5l-.17.02v2.08h.16v-2.1Z"/>
  <path class="st0" d="M94.96,313.16c-3.84,0-5.77-2.47-5.77-6.71v-1.98c0-4.23,1.93-6.69,5.77-6.69s5.78,2.46,5.78,6.69v1.98c0,4.25-1.94,6.71-5.78,6.71M99.5,304.46c0-3.45-1.27-5.59-4.54-5.59s-4.54,2.15-4.54,5.59v1.98c0,3.46,1.27,5.61,4.54,5.61s4.54-2.14,4.54-5.61v-1.98Z"/>
  <path class="st0" d="M94.95,313.69c-4.07,0-6.32-2.56-6.32-7.25v-1.98c0-4.67,2.25-7.24,6.32-7.24s6.32,2.56,6.32,7.24v1.98c0,4.69-2.24,7.25-6.32,7.25M94.95,298.31c-4.33,0-5.24,3.34-5.24,6.15v1.98c0,2.82.91,6.18,5.24,6.18s5.25-3.36,5.25-6.18v-1.98c0-2.81-.91-6.15-5.25-6.15M94.95,312.58c-3.37,0-5.08-2.06-5.08-6.14v-1.98c0-5.07,2.76-6.14,5.08-6.14s5.09,1.07,5.09,6.14v1.98c0,4.08-1.71,6.14-5.09,6.14M94.95,299.41c-2.73,0-4,1.61-4,5.06v1.98c0,3.45,1.27,5.06,4,5.06s4.01-1.61,4.01-5.06v-1.98c0-3.45-1.27-5.06-4.01-5.06"/>
  <path class="st0" d="M115,313.16h-.28c-.27,0-.47-.24-.47-.55v-9.67c0-3.56-1.64-4.01-3.51-4.01h-1.21c-1.87,0-3.5.44-3.5,4.01v9.67c0,.31-.2.55-.48.55h-.28c-.27,0-.48-.24-.48-.55v-9.67c0-4.7,2.82-5.17,4.74-5.17h1.21c1.94,0,4.74.47,4.74,5.17v9.67c0,.31-.2.55-.48.55"/>
  <path class="st0" d="M115,313.7h-.27c-.57,0-1.02-.48-1.02-1.08v-9.67c0-3.2-1.34-3.46-2.97-3.46h-1.21c-1.62,0-2.97.26-2.97,3.46v9.67c0,.61-.44,1.08-1.01,1.08h-.28c-.57,0-1.02-.48-1.02-1.08v-9.67c0-5.72,3.98-5.72,5.29-5.72h1.21c1.3,0,5.28,0,5.28,5.72v9.67c0,.62-.44,1.08-1.02,1.08M109.53,298.31c-2.08,0-4.2.55-4.2,4.63v9.67h.22s-.07-9.67-.07-9.67c0-4,2.06-4.54,4.05-4.54h1.21c2,0,4.04.54,4.04,4.54v9.67h.16v-9.67c0-4.08-2.13-4.63-4.2-4.63h-1.21Z"/>
  <path class="st0" d="M137.68,312.56c-1.35.37-2.85.6-4.24.6-4.27,0-5.68-1.46-5.68-4.53v-.37c0-2.94,1.83-4.32,6.94-4.32h2.17v-1c0-2.92-.82-4.07-3.54-4.07-1.85,0-2.66.1-3.98.25-.35.03-.65-.09-.65-.42v-.18c0-.29.23-.45.65-.51,1.17-.13,2.13-.25,3.98-.25,3.78,0,4.76,2.13,4.76,5.18v9.02c0,.36-.07.52-.4.6M136.86,305.06h-2.17c-4.23,0-5.66.84-5.66,3.2v.37c0,2.28.75,3.42,4.4,3.42,1.38,0,2.85-.2,3.42-.33v-6.66Z"/>
  <path class="st0" d="M133.44,313.69c-4.35,0-6.22-1.51-6.22-5.06v-.37c0-3.41,2.23-4.86,7.47-4.86h1.62v-.46c0-2.75-.67-3.54-2.99-3.54-1.67,0-2.48.08-3.6.22l-.47.04c-.27,0-.52-.07-.7-.19-.26-.17-.39-.46-.39-.78v-.17c0-.33.14-.89,1.11-1.04h.14c1.13-.14,2.09-.26,3.92-.26,4.76,0,5.3,3.27,5.3,5.72v9.02c0,.4-.09.94-.82,1.13-1.47.38-3.01.6-4.37.6M134.69,304.48c-5.31,0-6.4,1.51-6.4,3.78v.37c0,2.45.87,3.99,5.15,3.99.59,0,1.24-.05,1.9-.14-.59.06-1.25.1-1.9.1-3.6,0-4.93-1.08-4.93-3.95v-.37c0-3.12,2.36-3.74,6.19-3.74h2.7v7.55c.05,0,.09-.03.14-.03.01.05.02.03.02-.08v-9.02c0-3.3-1.22-4.64-4.23-4.64-1.76,0-2.69.11-3.79.23-.23.03-.31.06-.34.07-.01-.02-.03-.03-.05-.04l.1.56.05-.55.31-.03c1.15-.13,1.99-.23,3.72-.23,3.38,0,4.07,1.85,4.07,4.62v1.53h-2.7ZM134.69,305.6c-4.33,0-5.12.9-5.12,2.67v.37c0,1.78.26,2.87,3.86,2.87,1.06,0,2.19-.12,2.88-.22v-5.69h-1.62Z"/>
  <path class="st0" d="M152.78,313.16h-.28c-.28,0-.49-.24-.49-.55v-9.67c0-3.56-1.61-4.01-3.5-4.01h-1.2c-1.87,0-3.5.44-3.5,4.01v9.67c0,.31-.2.55-.47.55h-.28c-.28,0-.5-.24-.5-.55v-9.67c0-4.7,2.83-5.17,4.75-5.17h1.2c1.94,0,4.75.47,4.75,5.17v9.67c0,.31-.2.55-.48.55"/>
  <path class="st0" d="M152.77,313.7h-.28c-.57,0-1.02-.48-1.02-1.08v-9.67c0-3.2-1.34-3.46-2.97-3.46h-1.21c-1.62,0-2.96.26-2.96,3.46v9.67c0,.61-.45,1.08-1,1.08h-.29c-.57,0-1.02-.48-1.02-1.08v-9.67c0-3.79,1.77-5.72,5.28-5.72h1.21c1.3,0,5.29,0,5.29,5.72v9.67c0,.61-.45,1.08-1.02,1.08M147.3,298.31c-1.96,0-4.21.53-4.21,4.63v9.67h.24s-.07-9.67-.07-9.67c0-4,2.05-4.54,4.04-4.54h1.21c2,0,4.05.54,4.05,4.54v9.67h.15l.02-9.67c0-4.08-2.13-4.63-4.22-4.63h-1.21Z"/>
  <path class="st0" d="M167.52,312.62c-1.24.26-3.12.54-4.7.54-3.88,0-5.51-2.79-5.51-6.81v-1.88c0-4.42,1.84-6.69,5.51-6.69,1.08,0,2.77.16,3.89.42v-5.55c0-.25.19-.52.48-.52h.27c.28,0,.47.27.47.52v19.44c0,.33-.07.45-.4.53M166.71,299.22c-1.07-.22-2.81-.35-3.89-.35-3.11,0-4.27,1.89-4.27,5.6v1.88c0,3.62,1.12,5.7,4.27,5.7,1.33,0,2.87-.18,3.89-.35v-12.48Z"/>
  <path class="st0" d="M162.82,313.69c-3.91,0-6.05-2.6-6.05-7.35v-1.87c0-5.98,3.29-7.24,6.05-7.24.97,0,2.3.12,3.35.31v-4.89c0-.59.45-1.06,1.01-1.06h.27c.57,0,1.02.47,1.02,1.06v19.43c0,.58-.27.91-.83,1.05-.64.13-2.85.55-4.83.55M162.82,298.31c-3.35,0-4.98,2-4.98,6.15v1.87c0,2.87.87,6.28,4.98,6.28.98,0,2.02-.12,2.9-.23-.91.11-1.96.2-2.9.2-3.24,0-4.82-2.04-4.82-6.24v-1.87c0-2.63.51-6.14,4.82-6.14.47,0,1.09.03,1.71.07-.61-.05-1.21-.08-1.71-.08M167.24,298.78v13.34c.05-.01.1-.01.14-.02v-19.44s-.2.01-.2.01l.06,6.11ZM162.82,299.41c-2.66,0-3.74,1.47-3.74,5.06v1.87c0,3.62,1.12,5.17,3.74,5.17,1.1,0,2.38-.12,3.35-.27v-11.58c-1.02-.16-2.45-.25-3.35-.25"/>
  <path class="st0" d="M193.6,293.29h-6v19.16c0,.29-.19.55-.48.55h-.27c-.3,0-.49-.26-.49-.55v-19.16h-6.02c-.29,0-.53-.14-.53-.42v-.25c0-.27.23-.48.53-.48h13.26c.31,0,.54.2.54.48v.25c0,.28-.23.42-.54.42"/>
  <path class="st0" d="M187.12,313.52h-.27c-.57,0-1.02-.48-1.02-1.08v-18.63h-5.48c-.62,0-1.07-.4-1.07-.96v-.25c0-.57.46-1.02,1.07-1.02h13.25c.61,0,1.08.44,1.08,1.02v.25c0,.56-.46.96-1.08.96h-5.46v18.63c0,.6-.44,1.08-1.01,1.08M180.35,292.74h6.55v19.71h.16v-19.7h6.54v-.14l-13.25.06v.07Z"/>
  <path class="st0" d="M201.23,298.87h-.88c-1.44,0-2.18.16-3.05.67v13.08c0,.31-.21.55-.47.55h-.29c-.29,0-.45-.25-.45-.55v-13.3c0-.22.14-.38.26-.44,1.36-.85,2.54-1.1,4.03-1.1,1.26,0,1.42.15,1.42.51v.14c0,.33-.2.46-.57.46"/>
  <path class="st0" d="M196.82,313.7h-.28c-.57,0-1-.46-1-1.08v-13.3c0-.45.28-.76.54-.91,1.33-.82,2.58-1.17,4.3-1.17.87,0,1.96,0,1.96,1.04v.14c0,.23-.08.99-1.12.99h-.89c-1.19,0-1.84.11-2.52.45v12.76c0,.61-.44,1.08-1,1.08M196.75,299.25s-.08.06-.12.08v13.29s.11,0,.11,0v-13.36ZM200.38,298.31c-.46,0-.87.02-1.27.08.37-.04.77-.06,1.23-.06h.74c-.15,0-.37-.02-.7-.02"/>
  <path class="st0" d="M213.94,312.56c-1.34.37-2.83.6-4.23.6-4.27,0-5.68-1.46-5.68-4.53v-.37c0-2.94,1.83-4.32,6.94-4.32h2.15v-1c0-2.92-.8-4.07-3.52-4.07-1.85,0-2.66.1-3.99.25-.33.03-.63-.09-.63-.42v-.18c0-.29.22-.45.63-.51,1.19-.13,2.14-.25,3.99-.25,3.78,0,4.76,2.13,4.76,5.18v9.02c0,.36-.08.52-.42.6M213.13,305.06h-2.15c-4.23,0-5.66.84-5.66,3.2v.37c0,2.28.76,3.42,4.4,3.42,1.4,0,2.87-.2,3.41-.33v-6.66Z"/>
  <path class="st0" d="M209.71,313.69c-4.35,0-6.21-1.51-6.21-5.06v-.37c0-3.41,2.23-4.86,7.46-4.86h1.62v-.46c0-2.75-.67-3.54-2.99-3.54-1.66,0-2.47.08-3.61.22l-.48.04c-.26,0-.5-.07-.69-.19-.25-.18-.39-.46-.39-.78v-.17c0-.25.1-.89,1.09-1.04l.2-.02c1.12-.12,2.08-.24,3.88-.24,4.74,0,5.3,3.27,5.3,5.72v9.02c0,.4-.09.94-.83,1.13-1.48.39-2.99.6-4.36.6M210.97,304.48c-5.31,0-6.4,1.51-6.4,3.78v.37c0,2.45.85,3.99,5.14,3.99.6,0,1.24-.05,1.89-.14-.58.06-1.24.1-1.89.1-3.6,0-4.94-1.08-4.94-3.95v-.37c0-3.12,2.37-3.74,6.2-3.74h2.7v7.55s.08-.03.13-.03c.01.05.02.02.02-.08v-9.02c0-3.3-1.23-4.64-4.22-4.64-1.72,0-2.67.11-3.75.23h-.19c-.11.03-.18.06-.19.07-.01-.02-.03-.03-.05-.04l.09.56.05-.55.32-.04c1.15-.12,2-.22,3.72-.22,3.37,0,4.07,1.85,4.07,4.62v1.53h-2.7ZM210.97,305.6c-4.33,0-5.12.9-5.12,2.67v.37c0,1.74.27,2.87,3.86,2.87,1.06,0,2.19-.12,2.88-.22v-5.69h-1.62Z"/>
  <path class="st0" d="M219.97,295.14h-.18c-.27,0-.53-.23-.53-.53v-2.1c0-.27.26-.51.53-.51h.18c.27,0,.53.24.53.51v2.1c0,.3-.26.53-.53.53M219.97,313.16h-.18c-.27,0-.53-.24-.53-.55v-14.17c0-.29.26-.53.53-.53h.18c.27,0,.53.24.53.53v14.17c0,.31-.26.55-.53.55"/>
  <path class="st0" d="M219.98,313.69h-.18c-.59,0-1.08-.48-1.08-1.08v-14.17c0-.58.5-1.07,1.08-1.07h.18c.57,0,1.06.49,1.06,1.07v14.17c0,.59-.5,1.08-1.06,1.08M219.96,298.45h-.16v14.17h.16s0-14.17,0-14.17ZM219.98,295.67h-.18c-.59,0-1.08-.48-1.08-1.06v-2.1c0-.55.51-1.06,1.08-1.06h.18c.56,0,1.06.5,1.06,1.06v2.1c0,.59-.48,1.06-1.06,1.06M219.96,292.5l-.16.02v2.08h.16v-2.1Z"/>
  <path class="st0" d="M235.46,313.16h-.28c-.27,0-.48-.24-.48-.55v-9.67c0-3.56-1.62-4.01-3.5-4.01h-1.21c-1.88,0-3.5.44-3.5,4.01v9.67c0,.31-.19.55-.48.55h-.28c-.27,0-.48-.24-.48-.55v-9.67c0-4.7,2.79-5.17,4.74-5.17h1.21c1.94,0,4.73.47,4.73,5.17v9.67c0,.31-.18.55-.47.55"/>
  <path class="st0" d="M235.46,313.7h-.29c-.56,0-1.02-.48-1.02-1.08v-9.67c0-3.2-1.34-3.46-2.96-3.46h-1.2c-1.63,0-2.97.26-2.97,3.46v9.67c0,.62-.43,1.08-1.01,1.08h-.28c-.57,0-1.01-.48-1.01-1.08v-9.67c0-5.72,3.96-5.72,5.27-5.72h1.2c1.31,0,5.28,0,5.28,5.72v9.67c0,.62-.44,1.08-1.01,1.08M230,298.31c-2.08,0-4.19.55-4.19,4.63v9.67h.21s-.07-9.67-.07-9.67c0-4,2.04-4.54,4.05-4.54h1.2c2,0,4.05.54,4.05,4.54v9.67h.15v-9.67c0-4.08-2.12-4.63-4.2-4.63h-1.2Z"/>
  <path class="st0" d="M241.4,295.14h-.18c-.28,0-.53-.23-.53-.53v-2.1c0-.27.25-.51.53-.51h.18c.29,0,.53.24.53.51v2.1c0,.3-.24.53-.53.53M241.4,313.16h-.18c-.28,0-.53-.24-.53-.55v-14.17c0-.29.25-.53.53-.53h.18c.29,0,.53.24.53.53v14.17c0,.31-.24.55-.53.55"/>
  <path class="st0" d="M241.4,313.69h-.18c-.57,0-1.06-.48-1.06-1.08v-14.17c0-.58.48-1.07,1.06-1.07h.18c.57,0,1.06.49,1.06,1.07v14.17c0,.59-.48,1.08-1.06,1.08M241.39,298.45h-.16s.01,14.17.01,14.17h.15s0-14.17,0-14.17ZM241.4,295.67h-.18c-.59,0-1.06-.48-1.06-1.06v-2.1c0-.57.48-1.06,1.06-1.06h.18c.57,0,1.06.49,1.06,1.06v2.1c0,.59-.48,1.06-1.06,1.06M241.39,292.5l-.16.02v2.08h.17v-2.1Z"/>
  <path class="st0" d="M256.9,313.16h-.28c-.27,0-.47-.24-.47-.55v-9.67c0-3.56-1.62-4.01-3.51-4.01h-1.2c-1.87,0-3.5.44-3.5,4.01v9.67c0,.31-.2.55-.49.55h-.27c-.28,0-.49-.24-.49-.55v-9.67c0-4.7,2.8-5.17,4.75-5.17h1.2c1.94,0,4.75.47,4.75,5.17v9.67c0,.31-.21.55-.49.55"/>
  <path class="st0" d="M256.9,313.7h-.28c-.57,0-1-.46-1-1.08v-9.67c0-3.2-1.34-3.46-2.98-3.46h-1.19c-1.63,0-2.96.26-2.96,3.46v9.67c0,.61-.46,1.08-1.03,1.08h-.27c-.57,0-1.02-.48-1.02-1.08v-9.67c0-5.72,3.97-5.72,5.29-5.72h1.19c1.31,0,5.29,0,5.29,5.72v9.67c0,.61-.46,1.08-1.02,1.08M251.44,298.31c-2.08,0-4.21.55-4.21,4.63v9.67h.22s-.05-9.67-.05-9.67c0-4,2.04-4.54,4.04-4.54h1.19c2.01,0,4.05.54,4.05,4.54v9.67h.16v-9.67c0-4.08-2.13-4.63-4.21-4.63h-1.19Z"/>
  <path class="st0" d="M266.99,318.46c-1.91,0-3.73-.22-4.29-.35-.43-.08-.53-.22-.53-.52v-.15c0-.29.2-.43.48-.43h.1c.7.13,2.55.35,4.23.35,2.95,0,3.88-.74,3.88-4.35v-.31c-.8.24-2.62.45-3.62.45-2.54,0-5.8-.67-5.8-6.77v-1.92c0-4.95,1.92-6.69,5.8-6.69,1.53,0,3.5.33,4.4.54.34.08.42.2.42.53v14.19c0,4.45-1.78,5.44-5.08,5.44M270.84,299.22c-1.02-.16-2.25-.35-3.59-.35-3.15,0-4.57,1.03-4.57,5.6v1.92c0,4.88,1.96,5.66,4.57,5.66.89,0,2.66-.15,3.59-.4v-12.42Z"/>
  <path class="st0" d="M266.99,319.01c-2.02,0-3.87-.25-4.4-.36-.41-.08-.96-.29-.96-1.06v-.14c0-.57.42-.97,1.01-.97h.2c.72.13,2.53.35,4.14.35,2.53,0,3.28-.44,3.33-3.45-.96.18-2.27.31-3.07.31-1.57,0-6.34,0-6.34-7.31v-1.92c0-5,1.96-7.24,6.34-7.24,1.59,0,3.59.35,4.52.55.57.14.84.46.84,1.06v14.18c0,4.97-2.26,6-5.62,6M262.71,317.57s.05.01.08.02c.56.12,2.36.34,4.19.34,3.01,0,4.54-.76,4.54-4.91v-14.18c-.05-.01-.1-.02-.16-.03v13.2l.03-.02v1.03c0,3.75-1.03,4.9-4.42,4.9-1.66,0-3.5-.23-4.27-.35h0ZM267.25,298.31c-3.17,0-5.26,1.04-5.26,6.15v1.92c0,5.49,2.66,6.24,5.26,6.24.71,0,1.77-.1,2.58-.24-.93.13-1.98.2-2.58.2-2.65,0-5.12-.75-5.12-6.2v-1.92c0-4.53,1.34-6.14,5.12-6.14.85,0,1.66.08,2.39.18-.79-.12-1.64-.19-2.39-.19M267.25,299.41c-2.79,0-4.04.73-4.04,5.06v1.92c0,4.74,1.83,5.12,4.04,5.12.73,0,2.11-.11,3.05-.29v-11.54c-.89-.13-1.92-.27-3.05-.27"/>
</svg>