<?xml version="1.0" encoding="UTF-8"?>
<svg id="Layer_1" xmlns="http://www.w3.org/2000/svg" version="1.1" viewBox="0 0 1259.29 325.72">
  <!-- Generator: Adobe Illustrator 29.1.0, SVG Export Plug-In . SVG Version: 2.1.0 Build 142)  -->
  <defs>
    <style>
      .st0 {
        fill: #003764;
      }

      .st1 {
        fill: #ae7e30;
      }
    </style>
  </defs>
  <g>
    <path class="st0" d="M1254.69,209.9c-4.18-1.38-7.24-2.17-12.24-2.17-3.68,0-8.06,1.28-8.06,5.64,0,8.12,23.76,2.97,23.76,21.39,0,11.88-10.92,16.64-22.03,16.64-5.21,0-10.51-.89-15.5-2.18l.82-10.9c4.28,2.08,8.76,3.37,13.46,3.37,3.47,0,8.97-1.29,8.97-6.24,0-10.01-23.76-3.17-23.76-21.58,0-11,9.9-15.85,20.61-15.85,6.42,0,10.61.99,14.88,1.88l-.91,10Z"/>
    <polygon class="st0" points="1198.75 176 1198.75 176 1198.75 250.27 1212.41 250.27 1212.41 171.83 1198.75 176"/>
    <polygon class="st0" points="1177.21 176 1177.21 250.27 1190.87 250.27 1190.87 171.83 1177.21 176"/>
    <path class="st0" d="M1169.45,180.23c0-4.2-3.41-7.61-7.61-7.61s-7.61,3.41-7.61,7.61,3.41,7.61,7.61,7.61,7.61-3.41,7.61-7.61"/>
    <rect class="st0" x="1154.72" y="199.27" width="13.67" height="51"/>
    <polygon class="st0" points="1128.02 222.13 1147.39 199.27 1131.27 199.27 1114.95 219.67 1114.74 219.67 1114.74 171.82 1101.08 176.01 1101.08 250.27 1114.74 250.27 1114.74 225.52 1114.95 225.52 1132.5 250.27 1149.84 250.27 1128.02 222.13"/>
    <path class="st0" d="M1089.14,193.86c-4.33-1.87-9.16-2.96-13.98-2.96s-10.83,2.07-10.83,9.55c0,11.92,30.13,6.89,30.13,29.93,0,15.07-11.92,20.78-25.79,20.78-7.49,0-10.83-.99-17.63-2.67l1.28-12.41c4.72,2.57,10.14,4.24,15.56,4.24s12.21-2.66,12.21-8.86c0-13.1-30.13-7.68-30.13-30.43,0-15.36,11.91-20.97,24.03-20.97,5.9,0,11.42.79,16.44,2.46l-1.28,11.32Z"/>
    <path class="st0" d="M1142.91,86.62s24.26-4.29,32.2-23.58c0,0,141.22,28.93,57.86,104.26,0,0,30.94-29.13,13.66-52.43,0,0,9.64,28.93-28.12,48.41,0,0,81.9-58.18-75.59-76.66"/>
    <path class="st0" d="M1220.28,76.07c9.88,4.89,16.79,9.68,20.83,12.84,1.77-50.56-34.48-78.83-34.48-78.83-1.05,3.24-4.22,6.86-8.74,8.51-4.52,1.66-7.23,7.08-7.23,7.08,17.71,14.74,26.23,32.73,29.61,50.39"/>
    <path class="st0" d="M1171.35,66.62c2.14-3.2,2.74-5.39,2.74-5.39,9.33,1.66,17.71,3.85,25.17,6.29-15.48-44.12-44.25-68.27-44.25-68.27-.8,2.31-9.24,6.53-14.96,9.04-5.73,2.52-4.22,13.16-4.22,13.16,15.73,13,27.18,28.92,35.52,45.16"/>
    <path class="st0" d="M1230.55,115.49c-1.95,21.77-14.87,44.87-14.87,44.87,9.12-13.88,15.36-26.91,19.4-39.05-1.13-2.05-2.66-3.99-4.53-5.82"/>
    <path class="st0" d="M1228.86,113.95c-2.13-1.83-4.59-3.54-7.32-5.15-2.27,23.43-10.08,41.02-10.08,41.02,4.52-5.12,7.99-13.41,7.99-13.41.15,5.88-4.68,17.47-4.68,17.47,8.3-13.33,12.27-29.52,14.09-39.94"/>
    <path class="st0" d="M1179.84,159.55c-5.03-2.71-12.3-5.59-27.26-17.16,11.32,8.52,30.23,13.97,30.23,13.97-41.76-21.19-50.85-40.41-50.85-40.41-4.02-.13-6.44,2.43-8.04,3.3-1.59.87-5.93.8-5.93.8,15.92,25.66,61.85,39.51,61.85,39.51"/>
    <path class="st0" d="M1161.17,90.48c-13.87-2.29-24.06-3.18-24.06-3.18,5.55-1.4,10.26-3.09,14.3-4.93-19.53-14.22-38.98-17.72-38.98-17.72,0,0-3.62,1.21-4.12,7.23-.5,6.03-5.12,6.83-5.12,6.83,72.92,19.49,83.87,79.55,83.87,79.55-4.97-27.12-15.53-44.44-15.53-44.44,11.15,11.45,18.84,40.53,18.84,40.53-2.47-30.07-14.94-50.32-29.2-63.86"/>
    <path class="st0" d="M1182.99,94.83c10.5,32.39,10.69,59.81,10.69,59.81,7.77-15.06,5.72-49.71,5.72-49.71,7.24,14.16,6.33,52.73,6.33,52.73,3.71-20.27,3.86-38.8,1.73-55.48-7.7-2.95-16.16-5.38-24.47-7.35"/>
    <polygon class="st0" points="727.86 181.52 761.53 181.52 761.53 187.43 734.66 187.43 734.66 211.94 760.15 211.94 760.15 217.85 734.66 217.85 734.66 244.34 762.72 244.34 762.72 250.25 727.86 250.25 727.86 181.52"/>
    <path class="st0" d="M832.13,250.25v-33.38c0-1.84-.14-3.55-.4-5.11-.38-1.51-1.01-2.83-1.87-3.94-.78-1.18-1.87-2.11-3.25-2.76-1.38-.59-3.09-.88-5.12-.88-3.48,0-6.56,1.44-9.26,4.33-2.75,3.02-4.16,7.68-4.23,13.98v27.76h-6.2v-33.38c0-1.84-.14-3.55-.4-5.11-.39-1.51-1.01-2.83-1.87-3.94-.79-1.18-1.88-2.11-3.25-2.76-1.38-.59-3.08-.88-5.12-.88-3.47,0-6.56,1.44-9.25,4.33-2.76,3.02-4.17,7.68-4.24,13.98v27.76h-6.2v-38.4c0-3.87-.14-7.81-.4-11.81h6v8.47l.2.09c.46-.92,1.09-1.94,1.87-3.05.66-1.11,1.58-2.17,2.76-3.15,1.18-.99,2.66-1.84,4.43-2.56,1.77-.65,3.97-.98,6.6-.98,1.18,0,2.46.13,3.84.39,1.31.26,2.62.79,3.94,1.57,1.31.73,2.46,1.77,3.44,3.15.99,1.45,1.67,3.29,2.07,5.52h.2c1.25-3.02,3.25-5.55,6.01-7.58,2.69-1.97,6.03-2.99,10.04-3.05,5.11.06,9.05,1.64,11.81,4.72,2.69,3.02,4.04,7.06,4.04,12.11v34.56h-6.21Z"/>
    <path class="st0" d="M854.77,186.64h-6.21v-8.27h6.21v8.27ZM848.57,200.04h6.21v50.21h-6.21v-50.21Z"/>
    <path class="st0" d="M865.5,211.26c0-4.66-.14-8.41-.4-11.22h6.21v9.64h.2c1.18-2.95,2.85-5.47,5.03-7.58,2.1-2.1,4.72-3.18,7.87-3.25,1.63.07,3.08.26,4.33.59v6.5c-1.38-.4-2.88-.59-4.52-.59-2.43.06-4.43.65-6,1.77-1.58,1.18-2.86,2.79-3.85,4.82-.92,1.97-1.57,4.1-1.96,6.4-.47,2.43-.69,4.79-.69,7.08v24.82h-6.21v-38.99Z"/>
    <path class="st0" d="M922.22,242.17h-.2c-1.45,2.96-3.65,5.22-6.61,6.8-2.95,1.58-6.07,2.4-9.34,2.46-3.49-.06-6.3-.63-8.47-1.67-2.23-.98-3.94-2.23-5.12-3.74-2.1-3.28-3.08-6.21-2.96-8.76,0-4.2,1.02-7.52,3.06-9.95,1.97-2.43,4.5-4.16,7.58-5.22,3.09-1.11,6.44-1.84,10.05-2.17,3.54-.2,6.95-.3,10.24-.3h1.18v-2.56c.2-8.6-3.61-12.9-11.42-12.9-5.19-.07-10.11,1.32-14.78,4.14v-5.9c4.66-2.23,9.59-3.41,14.78-3.55,11.87-.14,17.75,6.11,17.62,18.71v22.15c-.07,3.81.09,7.32.49,10.53h-6.1v-8.08ZM921.62,224.94h-1.77c-2.69,0-5.38.07-8.07.2-2.82.27-5.38.82-7.68,1.67-2.29.79-4.14,2-5.51,3.65-1.5,1.64-2.26,3.83-2.26,6.59,0,3.22,1.05,5.51,3.14,6.89,1.98,1.45,4.4,2.17,7.29,2.17,3.6,0,6.46-.72,8.56-2.17,2.03-1.38,3.52-3.02,4.43-4.92.98-2.04,1.54-4.04,1.67-6,.13-2.04.2-3.71.2-5.03v-3.05Z"/>
    <path class="st0" d="M959.33,205.35h-11.42v32.49c0,2.31.52,4.24,1.57,5.81.99,1.65,2.69,2.46,5.13,2.46,2.23,0,4.13-.39,5.71-1.18l.39,5.12c-.72.26-1.73.55-3.05.89-1.38.32-2.89.49-4.53.49-2.69,0-4.82-.46-6.39-1.38-1.52-.92-2.67-2.13-3.45-3.64-.66-1.57-1.09-3.35-1.28-5.32-.2-1.97-.3-4.1-.3-6.4v-29.34h-9.85v-5.32h9.85v-12.11l6.21-2.17v14.28h11.42v5.32Z"/>
    <path class="st0" d="M999.2,248.67c-4.72,1.77-9.59,2.69-14.57,2.76-8.2-.14-14.07-2.67-17.62-7.58-3.55-4.79-5.28-11.02-5.22-18.71.07-7.81,2.04-14.14,5.91-19,3.74-4.79,8.83-7.22,15.26-7.29,7.02.13,12.14,2.59,15.36,7.39,3.08,4.72,4.63,10.57,4.63,17.52v3.15h-34.36c0,5.45,1.41,9.95,4.23,13.49,2.76,3.74,6.85,5.65,12.31,5.71,2.43,0,4.99-.42,7.68-1.29,2.69-.72,4.82-1.54,6.4-2.46v6.3ZM996.15,221.59c0-4.59-.95-8.6-2.85-12.01-2.04-3.48-5.35-5.28-9.95-5.42-4.53.13-8.11,1.97-10.73,5.52-2.69,3.54-4.03,7.51-4.03,11.91h27.57Z"/>
    <path class="st0" d="M1019.1,246.11c3.08,0,5.71-.82,7.87-2.46,2.1-1.51,3.18-3.68,3.25-6.5-.07-2.96-1.28-5.28-3.64-6.99-2.36-1.64-5.15-3.12-8.37-4.43-1.52-.72-2.96-1.47-4.34-2.27-1.38-.78-2.69-1.67-3.94-2.65-1.11-1.05-2.03-2.27-2.75-3.64-.72-1.32-1.08-2.85-1.08-4.63.07-4.99,1.77-8.54,5.12-10.63,3.22-2.03,6.96-3.05,11.22-3.05,1.44,0,3.31.14,5.61.41,2.29.42,4.56,1.07,6.79,1.96l-.59,5.32c-3.61-1.51-7.31-2.29-11.13-2.36-3.21,0-5.78.58-7.68,1.76-.99.58-1.74,1.4-2.26,2.44-.59,1.05-.89,2.42-.89,4.11,0,1.05.36,2.02,1.08,2.93.73.85,1.68,1.63,2.86,2.35,1.18.65,2.52,1.34,4.03,2.05,1.51.67,2.98,1.38,4.43,2.18,3.28,1.38,6.13,3.23,8.56,5.53,2.43,2.31,3.68,5.5,3.74,9.58,0,2.64-.52,4.84-1.57,6.62-1.12,1.85-2.53,3.33-4.24,4.45-3.68,2.17-7.58,3.26-11.71,3.26-4.86,0-9.56-.78-14.08-2.36l.59-6.11c3.81,2.04,8.18,3.08,13.1,3.15"/>
    <path class="st0" d="M1103.97,299.49c-1.46-.46-2.59-1.03-3.39-1.73.32-1.71.85-3.37,1.57-4.97.71-1.61,1.59-2.93,2.63-3.97,1.05-1.04,2.21-1.57,3.47-1.57s2.28.36,3.23,1.06c.96.69,1.71,1.61,2.25,2.71.53,1.09.8,2.23.8,3.38,0,3.85-2.19,5.78-6.57,5.78-1.19,0-2.52-.24-3.99-.69M1085.79,305.64c.13.29.35.48.66.59.31.09.76.15,1.38.15h2.19c2.03-.02,3.67-.31,4.89-.9,1.23-.58,2.35-1.54,3.35-2.91,1.61,1.44,3.32,2.5,5.12,3.15,1.79.66,3.8,1,6,1,2.62,0,4.88-.59,6.77-1.74,1.9-1.15,3.33-2.67,4.3-4.54.97-1.88,1.46-3.87,1.46-5.96s-.48-4.08-1.43-6.18c-.96-2.11-2.43-3.88-4.43-5.3-1.99-1.42-4.45-2.13-7.35-2.13-3.58,0-6.64,1.43-9.18,4.3-2.53,2.87-4.4,6.41-5.6,10.62-.42,1.45-1.01,2.46-1.73,3.04-.74.58-1.67.87-2.81.87h-1.56c-.93,0-1.52.13-1.82.42-.28.27-.42.75-.42,1.42v2.81c0,.59.06,1.03.2,1.31M1067.07,316.27c-1.05-1.3-1.84-2.88-2.42-4.74-.57-1.85-.89-3.57-.95-5.15h4.7c1.15,0,2.14.34,2.98,1.01.84.69,1.49,1.56,1.94,2.62.45,1.07.67,2.13.67,3.21,0,.65-.11,1.36-.31,2.14-.2.76-.55,1.44-1.04,2.02-.49.56-1.12.85-1.89.85-1.43,0-2.65-.65-3.69-1.96M1073.8,296.69c-.5.92-1.2,1.65-2.1,2.19-.9.55-1.91.81-3.06.81h-4.48c.39-2.89,1.34-5.67,2.87-8.33,1.51-2.62,2.91-3.93,4.24-3.93.45,0,.93.27,1.46.84.52.56.94,1.32,1.3,2.26.34.94.52,1.95.52,3.04,0,1.16-.25,2.2-.74,3.13M1080.62,310.06c-.51-1.26-1.24-2.49-2.2-3.69h9.84c.63-.02,1.09-.07,1.4-.18.3-.1.52-.3.65-.56.11-.28.18-.71.18-1.3v-2.81c0-.67-.14-1.15-.42-1.42-.29-.28-.89-.42-1.8-.42h-9.03c.79-1.07,1.42-2.23,1.9-3.45.48-1.23.72-2.46.72-3.72,0-1.87-.42-3.74-1.25-5.58-.84-1.84-1.98-3.35-3.43-4.53-1.46-1.18-3.08-1.77-4.86-1.77-1.88,0-3.91.85-6.11,2.56-2.37,1.87-4.29,4.24-5.78,7.12-1.48,2.89-2.6,6-3.35,9.36h-6.56c-.92,0-1.52.13-1.81.42-.28.27-.43.75-.43,1.42v2.81c0,.84.18,1.38.51,1.65.34.27.92.4,1.73.4h5.8c.27,3.13.97,6.1,2.12,8.88,1.16,2.79,2.79,5.07,4.87,6.82,2.1,1.77,4.62,2.65,7.57,2.65,1.86,0,3.6-.47,5.2-1.42,1.62-.94,2.92-2.25,3.88-3.93.97-1.67,1.46-3.52,1.46-5.59,0-1.22-.26-2.46-.77-3.72M1040.27,303.88c1.72,1.67,3.99,2.49,6.83,2.49h3.81c.88,0,1.46-.15,1.77-.46.3-.3.45-.84.45-1.59v-2.81c0-.67-.14-1.15-.42-1.42-.28-.28-.89-.42-1.8-.42h-1.9c-1.36,0-2.27-.43-2.71-1.26-.45-.85-.67-2.07-.67-3.68v-32.2h-7.93v33.84c0,3.35.86,5.84,2.58,7.5M1020.97,307.76c-.57,1.24-1.44,2.19-2.64,2.85-1.19.66-2.84,1.19-4.93,1.6l.97,6.78c3.77-.61,6.76-1.61,8.99-2.96,2.24-1.36,3.86-3.23,4.87-5.62,1.02-2.38,1.52-5.46,1.52-9.22v-19.84h-7.93v21.47c0,2.06-.28,3.72-.85,4.95M1001.71,306.4h7.93v-43.86h-7.93v43.86ZM975.59,273.24c.6-.35,1.07-.83,1.41-1.44.33-.6.5-1.25.5-1.94s-.18-1.33-.52-1.94c-.35-.6-.82-1.07-1.4-1.43-.59-.36-1.25-.54-1.98-.54-1.11,0-2.03.39-2.78,1.15-.76.76-1.13,1.68-1.13,2.75,0,.74.18,1.4.54,1.99.36.59.83,1.06,1.43,1.4.6.35,1.25.51,1.94.51.74,0,1.4-.17,2-.53M966.43,273.24c.59-.35,1.07-.83,1.4-1.44.33-.6.49-1.25.49-1.94s-.16-1.33-.51-1.94c-.35-.6-.82-1.07-1.41-1.43-.58-.36-1.25-.54-1.98-.54-1.1,0-2.02.39-2.78,1.15-.75.76-1.13,1.68-1.13,2.75,0,.74.19,1.4.55,1.99.35.59.83,1.06,1.44,1.4.59.35,1.24.51,1.93.51.74,0,1.4-.17,2-.53M945.42,303.59c2.85,1.85,7.18,2.78,13.01,2.78h35.34v-25.03h-7.93v18.35h-25.15c-3.33,0-5.86-.2-7.62-.61-1.77-.4-3-1.05-3.68-1.94-.67-.88-1.01-2.13-1.01-3.7,0-.86.03-1.63.13-2.31.07-.68.22-1.56.42-2.63l-7.04-.62c-.25,1.57-.44,2.83-.56,3.81-.12.96-.18,1.94-.18,2.91,0,4.16,1.43,7.17,4.28,9.01"/>
    <path class="st0" d="M916.76,306.81h3.97v-44.72h-3.97v44.72ZM882.98,319.97v2.18h9.65v-2.18h-.94c-1.52,0-2.73-.32-3.65-.99-.9-.65-1.36-1.55-1.36-2.71,0-.87.31-1.55.94-2.04.63-.49,1.52-.73,2.63-.73.7,0,1.31.06,1.8.19l.4-2.21c-.79-.13-1.6-.19-2.43-.19-1.76,0-3.12.43-4.08,1.26-.98.85-1.45,2.02-1.45,3.5,0,.74.19,1.48.58,2.19.37.72.86,1.3,1.44,1.73h-3.56ZM871.47,302.83v3.95h35.44v-44.71h-3.95v40.77h-13.54v-27.62h-3.91v27.62h-14.03ZM848.95,302.68c-1.32-.3-2.61-.72-3.88-1.26-1.28-.53-2.3-1.14-3.04-1.8,1.11-4.35,2.6-7.69,4.49-10.01,1.88-2.31,3.97-3.46,6.25-3.46,1.66,0,3.18.5,4.55,1.49,1.36.99,2.44,2.27,3.22,3.83.78,1.56,1.18,3.12,1.18,4.7,0,2.29-.82,4.01-2.46,5.2-1.64,1.18-4.01,1.77-7.09,1.77-.84,0-1.92-.15-3.23-.45M831.3,306.78h1.63c1.32-.01,2.43-.16,3.31-.39.88-.24,1.65-.64,2.29-1.19.66-.56,1.28-1.35,1.86-2.36,1.79,1.36,3.78,2.42,5.99,3.16,2.21.76,4.44,1.12,6.68,1.12,2.48,0,4.64-.47,6.46-1.4,1.8-.95,3.19-2.27,4.15-3.96.95-1.69,1.42-3.66,1.42-5.9s-.47-4.35-1.42-6.44c-.96-2.08-2.37-3.82-4.21-5.17-1.87-1.34-4.06-2.02-6.56-2.02-3.19,0-5.96,1.36-8.31,4.08-2.33,2.73-4.13,6.23-5.35,10.53l-.61,2.11c-.48,1.32-1.27,2.3-2.35,2.94-1.09.63-2.43.95-3.99.95h-.97c-.79,0-1.18.29-1.18.89v2.15c0,.6.39.9,1.18.9M821.53,304.49c1.34,1.53,3.23,2.29,5.68,2.29h3.14c.39,0,.71-.05.95-.18.24-.11.35-.38.35-.82v-2.25c0-.25-.11-.43-.36-.53-.25-.12-.55-.17-.88-.17h-1.81c-1.22,0-2.22-.2-3-.56-.78-.38-1.32-.98-1.63-1.8-.32-.81-.47-1.97-.47-3.46v-34.92h-3.98v36.13c0,2.65.67,4.74,2,6.27M804.7,310.37c-.68,1.82-1.82,3.25-3.39,4.3-1.58,1.05-3.82,1.85-6.72,2.38l.49,3.77h.07c3.41-.52,6.2-1.44,8.34-2.79,2.13-1.33,3.71-3.14,4.71-5.42,1.01-2.26,1.52-5.09,1.52-8.47v-21.42h-3.98v20.42c0,3.02-.35,5.42-1.04,7.23M788.7,306.81h3.98v-44.72h-3.98v44.72ZM757.65,274.06c.49.49,1.09.73,1.79.73s1.34-.24,1.8-.73c.48-.49.72-1.1.72-1.82s-.24-1.3-.72-1.79c-.47-.49-1.08-.74-1.8-.74-.68,0-1.28.25-1.79.75-.5.5-.76,1.09-.76,1.78,0,.72.25,1.33.76,1.82M749.58,274.06c.51.49,1.11.73,1.81.73s1.3-.24,1.79-.73c.49-.49.74-1.1.74-1.82s-.25-1.28-.74-1.78c-.49-.5-1.08-.75-1.79-.75s-1.27.25-1.79.75c-.51.5-.76,1.09-.76,1.78,0,.72.24,1.33.74,1.82M729.94,302.5c1.38,1.63,3.21,2.75,5.51,3.36,2.29.61,5.01.92,8.16.92h35.44v-24.06h-3.98v20.11h-28.81c-3.5,0-6.32-.23-8.45-.67-2.13-.44-3.68-1.19-4.66-2.25-.99-1.11-1.49-2.96-1.49-5.55,0-1.47.12-2.81.35-3.98l-3.61-.34c-.36,2.47-.54,4.37-.54,5.67,0,2.89.7,5.16,2.08,6.79"/>
  </g>
  <rect class="st0" x="659.49" y="42.76" width="1.86" height="281.77"/>
  <polygon class="st1" points="250.67 191.1 250.67 190.04 251.7 190.04 250.67 190.04 250.67 191.1 249.62 191.1 249.62 103.08 216.72 103.08 216.72 89.2 297.91 89.2 297.91 103.08 264.9 103.08 264.9 191.1 250.67 191.1"/>
  <path class="st1" d="M348.85,191.1h-.73l-39.48-101.89h16.6l26.18,73.17c1.59,4.51,3.03,8.82,4.24,12.92,1.3-4.3,2.77-8.61,4.37-12.92l27.23-73.17h15.75l-39.9,101.89h-14.26Z"/>
  <polygon class="st1" points="538.52 191.1 538.52 190.04 539.56 190.04 538.52 190.04 538.52 191.1 537.47 191.1 537.47 103.15 504.58 103.15 504.58 89.2 585.79 89.2 585.79 103.15 552.79 103.15 552.79 191.1 538.52 191.1"/>
  <path class="st1" d="M165.52,191.09c-6.12,0-11.54-.55-16.29-1.73-4.78-1.13-8.83-2.85-12.26-5.14-3.41-2.3-6.56-5.39-9.36-9.3-2.86-3.98-5.15-8.93-6.96-14.86-1.82-5.98-2.71-12.81-2.71-20.46,0-9,1.34-17.04,3.99-24.09,2.64-7.08,6.71-12.93,12.11-17.49,4.2-3.55,9.25-6,15.1-7.35,4.22-.99,10.19-1.46,17.98-1.46h35.45v13.9h-15.36v-.02h-19.88c-7.78,0-13.37.71-16.68,1.97-4.66,1.79-8.66,5.38-11.98,10.85-3.29,5.34-4.99,13.18-4.99,23.51,0,7.44.87,13.75,2.56,18.89,1.73,5.19,4.08,9.22,7.08,12.2,2.09,2.1,4.91,3.74,8.56,4.91,3.31,1.11,8.05,1.69,14,1.77l1.03.03v.05h35.68v13.83h-37.05Z"/>
  <path class="st1" d="M413.79,191.09v-59.57h70.53v13.82h-55.22v31.88h61.28v13.87h-76.58ZM413.79,103.14v-13.94h74.26v13.94h-74.26Z"/>
  <path class="st1" d="M101.05,120.39c-1.17-4.74-2.88-8.85-5.15-12.25-2.29-3.42-5.41-6.53-9.3-9.36-3.95-2.84-8.93-5.16-14.85-6.94-5.99-1.82-12.83-2.73-20.46-2.73-9.01,0-17.03,1.32-24.11,3.99-7.07,2.66-12.93,6.71-17.45,12.1-3.58,4.2-6.05,9.24-7.37,15.09-.99,4.19-1.45,10.2-1.45,17.99v52.73h13.91v-15.32h-.05v-30.87h62.99v-12.81H14.96c.25-4.48.89-7.95,1.77-10.23,1.81-4.64,5.38-8.62,10.83-11.97,5.36-3.29,13.17-5,23.51-4.99,7.48,0,13.74.86,18.9,2.57,5.18,1.72,9.21,4.08,12.23,7.06,2.07,2.08,3.72,4.93,4.91,8.54,1.09,3.34,1.69,8.08,1.74,14.03v1.02h.07v52.96h13.87v-54.36c0-6.11-.6-11.5-1.74-16.27"/>
  <path class="st1" d="M323.74,241.51c0-.32-.34-.63-1.01-1.01-2.15-1.15-3.25-1.74-3.29-1.76-.78-.7-1.36-1.4-1.73-2.12-.49-.82-.69-1.7-.69-2.65,0-1.91.57-3.45,1.77-4.68,1.11-1.12,2.44-1.68,4-1.68,1.34,0,2.6.55,3.74,1.68,1.13,1.11,1.72,2.37,1.72,3.76v2.61h1.11v2.58h-1.51c-.39,0-.8-.2-1.19-.63-.4-.43-.56-.89-.56-1.43v-3.04c0-.92-.32-1.8-.96-2.6-.68-.88-1.45-1.36-2.31-1.36-.96,0-1.79.47-2.52,1.32-.78.92-1.17,2.01-1.17,3.32,0,.8.18,1.54.54,2.19.45.77,1.11,1.47,2.02,2.08.65.45,1.69.95,3.25,1.58.96.41,1.46.81,1.46,1.26,0,.62-.38,1.32-1.14,2.02-.81.73-1.85,1.39-3.14,1.83-1.49.55-3.09.82-4.81.82-1.57,0-3.17-.52-4.8-1.5-1.71-1.05-2.53-2.08-2.53-3.1,0-.42.65-1.14,1.96-2.23,1.21-1.01,2.32-1.77,3.36-2.31v.4c-.54.57-.96,1.03-1.22,1.34-.83.99-1.21,1.72-1.21,2.19,0,.69.53,1.46,1.63,2.4,1.1.88,2.07,1.36,2.99,1.36,1.36,0,2.71-.32,4.15-.98,1.37-.68,2.09-1.24,2.09-1.68M317.55,247.98c.34,0,.63.15.89.45.28.29.42.65.42,1.09s-.14.78-.38,1.09c-.27.31-.59.43-.93.43s-.63-.12-.9-.43c-.22-.31-.36-.65-.36-1.09s.15-.8.36-1.09c.28-.3.57-.45.9-.45M320.68,247.36c.35,0,.64.18.9.45.26.32.36.66.36,1.09s-.11.76-.38,1.07c-.24.32-.53.44-.88.44s-.65-.11-.89-.41c-.27-.31-.39-.66-.39-1.09s.12-.78.39-1.09c.24-.27.55-.45.89-.45"/>
  <polygon class="st1" points="340.03 238.3 329.37 238.27 329.37 235.67 340.03 235.67 340.03 238.3"/>
  <polygon class="st1" points="350.71 238.3 340.03 238.27 340.03 235.67 350.71 235.67 350.71 238.3"/>
  <polygon class="st1" points="361.38 238.3 350.71 238.27 350.71 235.67 361.38 235.67 361.38 238.3"/>
  <polygon class="st1" points="372.06 238.3 361.38 238.27 361.38 235.67 372.06 235.67 372.06 238.3"/>
  <polygon class="st1" points="382.71 238.3 372.05 238.27 372.05 235.67 382.71 235.67 382.71 238.3"/>
  <path class="st1" d="M387.26,235.68v-4.13c0-.22-.03-.42-.09-.59-.18-.51-.59-.78-1.24-.78h-.55v-.74l4.03-.87v7.1h2v2.59h-8.7v-2.59h4.55ZM388.04,241.5c.36,0,.67.16.91.45.25.3.4.67.4,1.1s-.15.76-.4,1.07c-.24.3-.55.45-.91.45-.32,0-.64-.14-.87-.45-.27-.28-.4-.65-.4-1.07s.13-.8.4-1.1c.23-.3.55-.45.87-.45"/>
  <polygon class="st1" points="402.08 238.3 391.42 238.27 391.42 235.67 402.08 235.67 402.08 238.3"/>
  <polygon class="st1" points="412.74 238.3 402.08 238.27 402.08 235.67 412.74 235.67 412.74 238.3"/>
  <path class="st1" d="M428.78,235.67c0,.4.16.78.47,1.17.26.4.55.6.88.6v.82h-17.38v-2.59h13.89v-2.25c0-.94-.34-1.75-1.04-2.37-.62-.57-1.34-.86-2.15-.86h-1.36c-1.11,0-2.06.38-2.85,1.13-.75.72-1.15,1.61-1.15,2.62v.76h-2.13v-13.53c0-.47-.11-.8-.36-1.02-.22-.22-.55-.32-.96-.32h-.55v-.78l4.01-.85v11.44c.53-.36,1.11-.61,1.79-.79.65-.18,1.4-.28,2.26-.28h1.3c1.8,0,3.17.4,4.05,1.22.85.8,1.29,2.02,1.29,3.62v2.25ZM423.36,223.85c0,.4-.12.77-.36,1.05-.26.29-.55.47-.91.47-.33,0-.63-.18-.88-.47-.26-.26-.4-.63-.4-1.05s.15-.8.39-1.11c.23-.28.53-.45.89-.45s.65.16.91.45c.24.32.36.67.36,1.11"/>
  <path class="st1" d="M443.2,235.67h2.03v2.6h-2.54c-.57,1.72-1.38,3.37-2.56,4.92-1.35,1.87-2.9,3.22-4.61,4.09v-.26c1.26-1.24,2.46-2.97,3.64-5.16,1.27-2.41,1.9-4.36,1.9-5.9v-1.4c0-1.2-.32-2.23-.96-3.08-.62-.84-1.37-1.28-2.25-1.28s-1.46.29-1.97.82c-.49.53-.7,1.17-.7,1.92s.22,1.42.74,1.96c.47.53,1.07.78,1.77.78h2.31v.28c0,.47-.07,1-.23,1.57-.05.18-.13.42-.24.74h-1.67c-1.07,0-2.08-.32-2.98-.94-1.21-.85-1.82-2.09-1.82-3.73,0-1.52.53-2.75,1.55-3.72.9-.87,1.94-1.3,3.06-1.3,1.7,0,3.02.49,3.99,1.49,1.03,1.03,1.54,2.54,1.54,4.48v1.11Z"/>
  <polygon class="st1" points="455.9 238.3 445.24 238.27 445.24 235.67 455.9 235.67 455.9 238.3"/>
  <polygon class="st1" points="466.57 238.3 455.9 238.27 455.9 235.67 466.57 235.67 466.57 238.3"/>
  <path class="st1" d="M471.1,235.68v-4.13c0-.22-.03-.42-.07-.59-.17-.51-.59-.78-1.25-.78h-.52v-.74l3.99-.87v7.1c0,.66.24,1.17.67,1.63.15.13.35.28.63.44v.53h-7.98v-2.59h4.53ZM470.57,241.5c.34,0,.63.16.9.45.24.3.37.67.37,1.1s-.13.76-.37,1.07c-.26.3-.55.45-.9.45s-.66-.14-.91-.45c-.26-.28-.36-.65-.36-1.07s.11-.8.36-1.1c.26-.3.57-.45.92-.45"/>
  <path class="st1" d="M482.85,238.27h-4.81v-.53c.32-.16.55-.31.7-.42.44-.46.65-.98.65-1.63v-14.51c0-.46-.09-.79-.33-1.01-.23-.21-.57-.31-1-.31h-.54v-.78l4.03-.86v17.46c0,.65.2,1.17.65,1.63.13.12.36.28.64.43v.53ZM481.86,217.1h-4.24v-1.22h.88l-.64-1.54c.64-.63,1.07-1.06,1.21-1.18.55-.4,1.07-.6,1.65-.6h.65v1.18c-.38,0-.7.05-.99.17-.28.14-.59.4-.84.74.28.38.63.67.96.92.33.19.65.32,1.04.32h.3v1.22Z"/>
  <path class="st1" d="M504.32,238.27c-.19,2.15-.9,4-2.12,5.59-1.14,1.45-2.65,2.6-4.52,3.41v-.25c.63-.52,1.22-1.15,1.81-1.92.78-.99,1.4-2.09,1.89-3.28.59-1.44.86-2.9.86-4.37v-5.92c0-.46-.1-.79-.32-1.01-.23-.2-.59-.34-.97-.34h-.56v-.75l3.99-.86v7.08h2.02v2.6h-2.08ZM503.04,222.29c.36,0,.66.16.9.45.26.32.38.67.38,1.11,0,.4-.13.77-.38,1.06-.24.28-.53.45-.9.45-.34,0-.63-.16-.87-.45-.25-.27-.39-.63-.39-1.06s.14-.8.36-1.11c.25-.28.55-.45.9-.45"/>
  <polygon class="st1" points="517.05 238.3 506.4 238.27 506.4 235.67 517.05 235.67 517.05 238.3"/>
  <polygon class="st1" points="527.72 238.3 517.05 238.27 517.05 235.67 527.72 235.67 527.72 238.3"/>
  <polygon class="st1" points="538.38 238.3 527.72 238.27 527.72 235.67 538.38 235.67 538.38 238.3"/>
  <path class="st1" d="M539.74,230.19v-1.74l8.42-10.23h1.8l-8.58,10.36h3.69c2.08,0,3.45.32,4.18.92.79.66,1.18,2.04,1.18,4.09v4.67h-12.06v-2.59h9.92v-2.19c0-1.09-.25-1.89-.76-2.37-.67-.6-1.96-.92-3.82-.92h-3.99Z"/>
  <path class="st1" d="M560.01,238.27c-.19,2.15-.91,4.01-2.12,5.59-1.18,1.45-2.67,2.6-4.53,3.42v-.25c.61-.53,1.21-1.16,1.78-1.92.79-.99,1.44-2.09,1.91-3.27.56-1.45.89-2.91.89-4.38v-5.91c0-.45-.14-.8-.36-1.01-.22-.21-.57-.34-1-.34h-.51v-.74l3.99-.86v7.08h1.99v2.6h-2.04Z"/>
  <polygon class="st1" points="572.74 238.3 562.06 238.27 562.06 235.67 572.74 235.67 572.74 238.3"/>
  <path class="st1" d="M586.09,238.27h-13.35v-2.6h9.9v-5.48h-1.9c-1.03,0-1.78.39-2.37,1.13-.53.67-.82,1.46-.82,2.38v1.01h-2.15v-1.29c0-1.42.42-2.57,1.3-3.45.91-.94,2.19-1.39,3.75-1.39h4.33v7.08c0,.45.13.88.42,1.21.3.38.59.56.9.56v.82Z"/>
  <path class="st1" d="M328.88,273.04v-4.17c0-.21-.04-.4-.09-.58-.18-.51-.59-.75-1.26-.75h-.54v-.76l4.03-.86v7.11h1.98v2.58h-15.36c-1.81,0-3.18-.47-4.2-1.36-.79-.71-1.17-1.55-1.17-2.5,0-.53.66-1.51,1.94-2.96,1.36-1.54,2.5-2.5,3.43-2.88v.38s-.26.27-.68.73c-.55.59-.96,1.19-1.32,1.67-.45.8-.68,1.47-.68,2.06,0,.47.36.95,1.04,1.41.76.56,1.77.86,2.96.86h9.92ZM322.98,278.84c.37,0,.65.14.92.45.24.3.36.67.36,1.09s-.13.79-.36,1.07c-.26.33-.55.45-.92.45-.34,0-.65-.12-.89-.44-.26-.29-.38-.65-.38-1.08s.11-.8.38-1.09c.21-.31.55-.45.89-.45"/>
  <polygon class="st1" points="343.67 275.62 333 275.62 333 273.02 343.67 273.04 343.67 275.62"/>
  <polygon class="st1" points="354.36 275.62 343.66 275.62 343.66 273.02 354.36 273.04 354.36 275.62"/>
  <polygon class="st1" points="365.04 275.62 354.36 275.62 354.36 273.02 365.04 273.04 365.04 275.62"/>
  <path class="st1" d="M369.55,273.04v-4.17c0-.21-.02-.4-.09-.58-.16-.51-.59-.75-1.24-.75h-.51v-.76l3.97-.86v7.11c0,.59.24,1.15.69,1.58.16.13.36.27.67.46v.55h-8.02v-2.58h4.52ZM367.75,279.44c.34,0,.65.16.91.46.24.3.36.69.36,1.11s-.11.78-.36,1.06c-.26.31-.57.47-.91.47s-.65-.16-.88-.47c-.26-.28-.4-.65-.4-1.06,0-.46.15-.81.39-1.11.25-.3.55-.46.9-.46M370.86,278.84c.39,0,.66.14.93.45.22.3.34.64.34,1.09,0,.41-.12.76-.37,1.07-.24.28-.56.44-.9.44-.32,0-.63-.13-.88-.44-.25-.28-.39-.64-.39-1.07,0-.45.14-.8.36-1.09.26-.31.57-.45.91-.45"/>
  <path class="st1" d="M382.69,274.54c0,2.4-.65,4.49-1.92,6.28-1.18,1.63-2.79,2.89-4.77,3.78v-.24c.57-.49,1.16-1.11,1.76-1.9.78-1.01,1.44-2.1,1.89-3.27.6-1.45.88-2.93.88-4.38v-5.93c0-.42-.09-.8-.34-.99-.22-.26-.55-.35-.96-.35h-.53v-.76l3.99-.86v8.61Z"/>
  <path class="st1" d="M400.98,275.62h-15.38v-2.58h11.25v-2.36c0-.9-.4-1.67-1.13-2.29-.63-.56-1.35-.84-2.11-.84h-6.69v-1.62h6.69c1.97,0,3.37.38,4.18,1.17.78.75,1.21,1.97,1.21,3.68v2.26h1.96v2.58Z"/>
  <polygon class="st1" points="411.68 275.62 400.98 275.62 400.98 273.02 411.68 273.04 411.68 275.62"/>
  <polygon class="st1" points="422.32 275.62 411.68 275.62 411.68 273.02 422.32 273.04 422.32 275.62"/>
  <path class="st1" d="M426.89,273.03v-4.16c0-.22-.03-.4-.09-.58-.15-.51-.57-.74-1.26-.74h-.5v-.76l3.97-.86v7.11h2.02v2.58h-8.72v-2.58h4.57ZM424.56,261.87c.36,0,.66.16.88.45.27.29.39.66.39,1.1,0,.4-.12.78-.39,1.06-.22.3-.53.45-.88.45-.33,0-.63-.16-.88-.45-.24-.28-.38-.66-.38-1.06,0-.46.11-.82.36-1.1.25-.3.55-.45.9-.45M427.7,261.24c.34,0,.65.16.86.45.24.29.38.66.38,1.09s-.14.78-.38,1.06c-.21.32-.53.46-.86.46-.36,0-.65-.13-.9-.41-.26-.3-.38-.67-.38-1.11s.12-.8.38-1.09c.24-.3.54-.45.9-.45"/>
  <path class="st1" d="M434.25,273.04v-14.53c0-.22-.05-.41-.11-.57-.16-.5-.55-.78-1.23-.78h-.55v-.74l4.04-.86v17.47c0,.6.2,1.15.64,1.59.15.12.38.27.66.46v.54h-6.67v-2.58h3.22Z"/>
  <path class="st1" d="M446,275.62h-4.82v-.53c.29-.18.55-.32.68-.45.43-.45.67-.96.67-1.6v-14.52c0-.47-.12-.78-.35-1-.23-.23-.56-.35-.96-.35h-.56v-.74l3.99-.86v17.47c0,.61.25,1.15.7,1.59.13.12.36.28.66.47v.53Z"/>
  <path class="st1" d="M456.93,271.92c0-1.23-.31-2.25-.94-3.11-.65-.82-1.4-1.26-2.25-1.26s-1.49.27-2,.83c-.44.49-.67,1.14-.67,1.92,0,.74.23,1.35.72,1.91.45.55,1.07.83,1.77.83h2.32v.24c0,.47-.09.99-.25,1.59-.07.19-.13.44-.25.75h-1.65c-1.09,0-2.09-.31-2.97-.95-1.25-.83-1.84-2.09-1.84-3.75,0-1.49.5-2.75,1.53-3.71.92-.84,1.93-1.28,3.06-1.28,1.69,0,3.01.49,3.99,1.48,1.03,1.07,1.57,2.54,1.57,4.49v1.15c0,.94-.28,2.15-.88,3.57-.68,1.63-1.54,3.09-2.6,4.44-1.28,1.57-2.68,2.77-4.22,3.54v-.24c1.26-1.27,2.5-2.96,3.63-5.16,1.28-2.4,1.91-4.35,1.91-5.91v-1.36Z"/>
  <path class="st1" d="M480.07,275.62c0,1.19-.53,2.41-1.58,3.62-1.15,1.31-2.67,2.26-4.58,2.83,1.6-1.54,2.69-2.86,3.27-3.89.5-.92.74-1.96.74-3.1v-4.31c0-1.44.43-2.56,1.28-3.47.91-.92,2.16-1.38,3.77-1.38h4.32v7.11h1.98v2.58h-8.02v-2.58h3.87v-5.49h-1.85c-1.01,0-1.81.37-2.42,1.11-.51.68-.79,1.49-.79,2.38v4.58Z"/>
  <polygon class="st1" points="499.95 275.62 489.28 275.62 489.28 273.02 499.95 273.04 499.95 275.62"/>
  <polygon class="st1" points="510.63 275.62 499.95 275.62 499.95 273.02 510.63 273.04 510.63 275.62"/>
  <path class="st1" d="M515.18,273.04v-4.17c0-.21-.05-.4-.08-.58-.18-.51-.58-.75-1.25-.75h-.56v-.76l4.01-.86v7.11h2.05v2.58h-8.72v-2.58h4.55ZM513.37,279.44c.37,0,.68.16.9.46.28.3.42.69.42,1.11s-.14.78-.42,1.06c-.22.31-.53.47-.9.47-.3,0-.62-.16-.87-.47-.23-.28-.36-.65-.36-1.06,0-.46.14-.81.36-1.11.24-.3.54-.46.87-.46M516.52,278.84c.34,0,.65.14.87.45.29.3.4.64.4,1.09,0,.41-.11.76-.4,1.07-.22.28-.55.44-.87.44-.35,0-.64-.13-.9-.44-.26-.28-.38-.64-.38-1.07,0-.45.12-.8.38-1.09.22-.31.53-.45.9-.45"/>
  <path class="st1" d="M522.52,273.04v-14.53c0-.22,0-.41-.07-.57-.17-.5-.61-.78-1.28-.78h-.51v-.74l3.99-.86v17.47h2.01v2.58h-7.31v-2.58h3.17Z"/>
  <polygon class="st1" points="537.34 275.62 526.66 275.62 526.66 273.02 537.34 273.04 537.34 275.62"/>
  <polygon class="st1" points="548 275.62 537.34 275.62 537.34 273.02 548 273.04 548 275.62"/>
  <path class="st1" d="M563.39,275.62h-15.39v-2.58h5.07c-.28-.28-.83-1.07-1.61-2.43-.57-.96-1.27-1.45-2.13-1.45.23-.99.76-1.75,1.49-2.29.61-.39,1.43-.66,2.45-.82.66-.09,1.55-.13,2.77-.13h1.11c1.32,0,2.33.3,3.06.93.74.67,1.17,1.67,1.17,2.96,0,.72-.11,1.34-.28,1.88-.18.52-.43.98-.69,1.34h2.98v2.58ZM559.23,269.45c0-.65-.26-1.14-.78-1.45-.51-.32-1.21-.46-2.14-.46h-.26c-1.07,0-1.73.04-2.06.16-.55.18-.85.64-.85,1.32s.52,1.49,1.55,2.51c1.04.99,1.93,1.52,2.66,1.52.44-.34.77-.61.96-.84.63-.68.92-1.34.92-1.97v-.78Z"/>
  <path class="st1" d="M567.93,273.03v-4.16c0-.22,0-.4-.09-.58-.16-.51-.59-.74-1.25-.74h-.53v-.76l4.01-.86v7.11h2v2.58h-8.69v-2.58h4.55ZM565.61,261.87c.34,0,.65.16.87.45.28.29.39.66.39,1.1,0,.4-.11.78-.39,1.06-.22.3-.53.45-.87.45s-.65-.16-.9-.45c-.26-.28-.38-.66-.38-1.06,0-.46.12-.82.38-1.1.23-.3.54-.45.9-.45M568.72,261.24c.36,0,.65.16.89.45.27.29.39.66.39,1.09s-.14.78-.39,1.06c-.26.32-.53.46-.89.46-.34,0-.65-.13-.89-.41-.25-.3-.36-.67-.36-1.11s.11-.8.36-1.09c.21-.3.55-.45.89-.45"/>
  <path class="st1" d="M575.27,273.04v-14.53c0-.22-.03-.41-.09-.57-.14-.5-.59-.78-1.24-.78h-.53v-.74l4.01-.86v17.47h2v2.58h-7.36v-2.58h3.21Z"/>
  <path class="st1" d="M582.63,273.04v-14.53c0-.22-.04-.41-.1-.57-.14-.5-.58-.78-1.22-.78h-.55v-.74l4.02-.86v17.47c0,.6.2,1.15.66,1.59.16.12.37.27.65.46v.54h-6.67v-2.58h3.21Z"/>
  <path class="st1" d="M321.69,316.18c0-.31-.35-.65-1.02-1.01-2.16-1.15-3.23-1.74-3.29-1.77-.75-.67-1.36-1.37-1.75-2.09-.45-.84-.68-1.71-.68-2.67,0-1.9.59-3.45,1.79-4.68,1.12-1.13,2.42-1.69,4.01-1.69,1.32,0,2.6.57,3.72,1.69,1.15,1.13,1.73,2.37,1.73,3.76v2.64h1.13v2.59h-1.52c-.4,0-.8-.22-1.17-.65-.37-.45-.58-.9-.58-1.43v-3.04c0-.92-.33-1.78-.96-2.59-.65-.89-1.44-1.34-2.29-1.34-.98,0-1.81.42-2.54,1.29-.76.9-1.17,2.02-1.17,3.33,0,.8.22,1.53.55,2.17.44.76,1.11,1.48,2.03,2.08.65.44,1.73.94,3.24,1.57.98.42,1.45.83,1.45,1.27,0,.63-.35,1.34-1.13,2.01-.79.76-1.84,1.38-3.16,1.86-1.49.54-3.07.81-4.8.81-1.55,0-3.16-.49-4.82-1.52-1.68-1.03-2.52-2.06-2.52-3.09,0-.42.66-1.16,1.94-2.23,1.24-1.01,2.35-1.78,3.37-2.34v.44c-.52.57-.94,1-1.19,1.33-.84,1-1.25,1.75-1.25,2.21,0,.68.57,1.45,1.65,2.38,1.11.9,2.11,1.35,2.99,1.35,1.34,0,2.72-.33,4.13-1.01,1.42-.63,2.12-1.19,2.12-1.65M315.51,322.67c.37,0,.64.13.9.42.27.3.38.65.38,1.09s-.11.8-.36,1.07c-.26.31-.55.46-.92.46s-.66-.15-.91-.46c-.24-.28-.36-.65-.36-1.07s.13-.8.36-1.09c.25-.3.55-.42.91-.42M318.6,322.03c.36,0,.67.16.92.44.27.32.36.66.36,1.09,0,.4-.09.78-.36,1.06-.25.32-.57.47-.92.47s-.61-.16-.9-.45c-.21-.28-.35-.64-.35-1.08s.11-.77.35-1.09c.25-.28.55-.44.9-.44"/>
  <polygon class="st1" points="337.99 312.97 327.33 312.96 327.33 310.37 337.99 310.37 337.99 312.97"/>
  <polygon class="st1" points="348.68 312.97 337.98 312.96 337.98 310.37 348.68 310.37 348.68 312.97"/>
  <polygon class="st1" points="359.36 312.97 348.68 312.96 348.68 310.37 359.36 310.37 359.36 312.97"/>
  <polygon class="st1" points="369.99 312.97 359.36 312.96 359.36 310.37 369.99 310.37 369.99 312.97"/>
  <path class="st1" d="M374.53,310.37v-4.16c0-.23,0-.42-.05-.59-.17-.49-.59-.75-1.28-.75h-.54v-.76l4.03-.86v7.12h2v2.59h-8.72v-2.59h4.55ZM374.01,296.97c.32,0,.66.16.86.47.26.26.4.64.4,1.06s-.14.8-.4,1.08c-.2.3-.54.45-.86.45-.37,0-.67-.11-.9-.45-.29-.27-.38-.65-.38-1.08s.09-.8.38-1.06c.24-.32.53-.47.9-.47"/>
  <polygon class="st1" points="389.34 312.97 378.7 312.96 378.7 310.37 389.34 310.37 389.34 312.97"/>
  <polygon class="st1" points="400.02 312.97 389.35 312.96 389.35 310.37 400.02 310.37 400.02 312.97"/>
  <path class="st1" d="M408.97,304.86h-1.41c-.65,0-1.23.23-1.77.65-.67.54-1.03,1.25-1.03,2.12v1.76h-2.06v-1.3c0-1.57.38-2.79,1.17-3.64.76-.8,1.77-1.21,3.06-1.21h2.02v-.26c0-.47-.11-.8-.31-1.03-.28-.2-.58-.34-1.01-.34h-.53v-.76l3.99-.85v3.23h1.66c1.51,0,2.69.4,3.46,1.21.77.8,1.15,2,1.15,3.64v2.27h2v2.6h-19.38v-2.6h8.96v-5.51ZM411.12,310.37h4.18v-2.85c0-.85-.38-1.53-1.12-2.04-.59-.4-1.23-.61-1.9-.61h-1.16v5.51Z"/>
  <path class="st1" d="M433.46,312.95h-14.06v-2.59h9.89v-5.51h-1.87c-1,0-1.81.38-2.4,1.15-.55.67-.8,1.47-.8,2.38v1.01h-2.17v-1.3c0-1.41.43-2.55,1.3-3.43.93-.96,2.17-1.42,3.76-1.42h4.32v7.12h2.02v2.59Z"/>
  <path class="st1" d="M436.66,310.37v-14.53c0-.22-.03-.42-.09-.57-.14-.5-.59-.78-1.26-.78h-.49v-.74l4.01-.86v17.47c0,.61.2,1.15.61,1.59.18.11.4.28.69.45v.55h-6.67v-2.6h3.2Z"/>
  <path class="st1" d="M448.44,312.95h-4.82v-.54c.29-.16.51-.31.65-.45.45-.45.67-.96.67-1.6v-14.51c0-.47-.12-.8-.35-1.03-.22-.21-.54-.34-.98-.34h-.54v-.74l4.01-.86v17.48c0,.62.21,1.15.65,1.6.16.11.37.28.71.45v.54Z"/>
  <path class="st1" d="M459.35,309.25c0-1.22-.32-2.24-.95-3.1-.62-.86-1.38-1.29-2.23-1.29s-1.49.29-1.98.83c-.49.52-.7,1.16-.7,1.92s.21,1.39.71,1.94c.5.54,1.09.81,1.8.81h2.31v.24c0,.49-.09.99-.25,1.58-.05.22-.14.45-.26.78h-1.64c-1.13,0-2.08-.33-3-.94-1.2-.86-1.79-2.13-1.79-3.76,0-1.52.49-2.76,1.52-3.68.88-.9,1.91-1.34,3.04-1.34,1.71,0,3.06.53,4.01,1.5,1.03,1.05,1.55,2.54,1.55,4.49v1.13c0,.96-.3,2.16-.88,3.57-.67,1.6-1.54,3.1-2.59,4.45-1.25,1.59-2.66,2.77-4.22,3.56v-.26c1.28-1.25,2.49-2.97,3.65-5.15,1.25-2.39,1.88-4.37,1.88-5.92v-1.36Z"/>
  <path class="st1" d="M490.1,316.18c0-.31-.33-.65-1.02-1.01-2.16-1.15-3.27-1.74-3.29-1.77-.76-.67-1.36-1.37-1.74-2.09-.45-.84-.7-1.71-.7-2.67,0-1.9.6-3.45,1.77-4.68,1.12-1.13,2.47-1.69,4.03-1.69,1.32,0,2.6.57,3.72,1.69,1.16,1.13,1.73,2.37,1.73,3.76v2.64h1.1v2.59h-1.48c-.4,0-.82-.22-1.19-.65-.38-.45-.59-.9-.59-1.43v-3.04c0-.92-.28-1.78-.92-2.59-.69-.89-1.46-1.34-2.32-1.34-.95,0-1.83.42-2.54,1.29-.76.9-1.15,2.02-1.15,3.33,0,.8.17,1.53.55,2.17.4.76,1.1,1.48,2.02,2.08.61.44,1.7.94,3.22,1.57.99.42,1.47.83,1.47,1.27,0,.63-.37,1.34-1.13,2.01-.81.76-1.84,1.38-3.14,1.86-1.48.54-3.1.81-4.82.81-1.55,0-3.14-.49-4.8-1.52-1.68-1.03-2.52-2.06-2.52-3.09,0-.42.64-1.16,1.95-2.23,1.26-1.01,2.36-1.78,3.37-2.34v.44c-.53.57-.94,1-1.24,1.33-.79,1-1.21,1.75-1.21,2.21,0,.68.54,1.45,1.64,2.38,1.11.9,2.12,1.35,3,1.35,1.32,0,2.7-.33,4.13-1.01,1.42-.63,2.12-1.19,2.12-1.65M483.88,322.67c.36,0,.65.13.93.42.24.3.35.65.35,1.09s-.11.8-.35,1.07c-.26.31-.55.46-.93.46-.33,0-.63-.15-.86-.46-.27-.28-.38-.65-.38-1.07s.11-.8.38-1.09c.23-.3.53-.42.86-.42M487.01,322.03c.35,0,.65.16.91.44.25.32.37.66.37,1.09,0,.4-.12.78-.37,1.06-.26.32-.56.47-.91.47-.32,0-.63-.16-.88-.45-.26-.28-.39-.64-.39-1.08s.14-.77.39-1.09c.24-.28.51-.44.88-.44"/>
  <polygon class="st1" points="506.37 312.97 495.7 312.96 495.7 310.37 506.37 310.37 506.37 312.97"/>
  <polygon class="st1" points="517.05 312.97 506.37 312.96 506.37 310.37 517.05 310.37 517.05 312.97"/>
  <path class="st1" d="M521.59,310.37v-4.16c0-.23-.02-.42-.07-.59-.19-.49-.6-.75-1.25-.75h-.55v-.76l4-.86v7.12h2.01v2.59h-8.68v-2.59h4.54ZM521.06,296.97c.34,0,.65.16.89.47.26.26.38.64.38,1.06s-.13.8-.38,1.08c-.24.3-.55.45-.89.45s-.65-.11-.91-.45c-.25-.27-.37-.65-.37-1.08s.12-.8.37-1.06c.26-.32.57-.47.91-.47"/>
  <polygon class="st1" points="536.4 312.97 525.73 312.96 525.73 310.37 536.4 310.37 536.4 312.97"/>
  <polygon class="st1" points="547.08 312.97 536.39 312.96 536.39 310.37 547.08 310.37 547.08 312.97"/>
  <path class="st1" d="M562.45,312.96h-15.36v-2.6h11.23v-2.38c0-1.26-.38-2.35-1.16-3.3-.75-.96-1.65-1.44-2.6-1.44-.71,0-1.32.23-1.84.63-.53.47-.85,1.1-.85,1.92,0,.62.27,1.27.77,1.88.59.8,1.47,1.3,2.55,1.58h-3.84c-.44-.2-.8-.53-1.07-1.01-.34-.59-.53-1.25-.53-2.01,0-1.35.45-2.46,1.37-3.31.94-.83,2.06-1.29,3.43-1.29,1.7,0,3.12.63,4.22,1.86,1.11,1.24,1.66,2.78,1.66,4.62v2.27h2.02v2.6ZM550.37,295.34c.35,0,.64.18.9.46.25.29.36.65.36,1.07s-.11.79-.36,1.1c-.26.3-.55.44-.9.44-.32,0-.64-.14-.88-.44-.27-.31-.38-.69-.38-1.1s.11-.78.36-1.07c.24-.28.55-.46.9-.46M553.5,294.75c.35,0,.63.14.88.41.26.32.36.69.36,1.13,0,.4-.11.75-.36,1.05-.24.27-.54.45-.88.45-.39,0-.67-.15-.92-.45-.24-.3-.34-.65-.34-1.05,0-.44.11-.81.34-1.13.26-.26.53-.41.92-.41"/>
  <path class="st1" d="M567,310.37v-4.15c0-.23,0-.43-.06-.6-.18-.49-.62-.76-1.31-.76h-.51v-.75l4.01-.86v7.12h2.01v2.59h-8.7v-2.59h4.55ZM564.7,299.19c.31,0,.63.16.87.47.26.28.38.65.38,1.07s-.13.79-.38,1.07c-.24.32-.56.49-.87.49-.38,0-.64-.17-.94-.49-.22-.28-.35-.63-.35-1.07s.13-.8.35-1.09c.26-.29.56-.45.94-.45M567.79,298.57c.36,0,.65.16.9.46.24.31.36.64.36,1.11,0,.4-.11.77-.36,1.05-.26.3-.54.44-.9.44-.32,0-.63-.13-.88-.42-.26-.28-.4-.65-.4-1.07,0-.47.14-.8.37-1.11.25-.3.53-.46.91-.46"/>
  <path class="st1" d="M574.34,310.37v-14.53c0-.22-.01-.42-.07-.57-.18-.5-.58-.78-1.25-.78h-.55v-.74l4.03-.86v17.47c0,.61.22,1.15.65,1.59.15.11.35.28.68.45v.55h-6.7v-2.6h3.21Z"/>
  <path class="st1" d="M586.09,312.95h-4.78v-.54c.27-.16.51-.31.64-.45.45-.45.68-.96.68-1.6v-14.51c0-.47-.14-.8-.33-1.03-.25-.21-.57-.34-.99-.34h-.53v-.74l3.99-.86v17.48c0,.62.22,1.15.66,1.6.16.11.37.28.65.45v.54Z"/>
  <rect class="st1" x="291.6" y="216.65" width="3" height="105.07"/>
  <path class="st1" d="M12.96,239.13h-.3c-.28,0-.49-.23-.49-.53v-9.31H1.82v9.31c0,.3-.2.53-.49.53h-.3c-.26,0-.47-.23-.47-.53v-15.03c0-3.68,1.23-5.45,5.44-5.45h1.99c4.2,0,5.41,1.77,5.41,5.45v15.03c0,.3-.22.53-.46.53M12.17,223.57c0-3.22-.89-4.29-4.16-4.29h-1.99c-3.28,0-4.19,1.07-4.19,4.29v4.5h10.34v-4.5Z"/>
  <path class="st1" d="M12.95,238.63h-.3s.04,0,.05.02c0,0-.01-.01-.01-.05v-9.84H1.31v9.84s0,.04-.02.04c.02,0,.03-.01.05-.01h-.3s.05,0,.05,0v-15.07c0-3.7,1.24-4.95,4.92-4.95h1.99c1.92,0,3.16.38,3.89,1.19.67.74,1,1.94,1,3.76v15.07s.03-.01.06-.01M13.93,238.6v-15.03c0-2.13-.41-3.5-1.28-4.46-.94-1.03-2.42-1.52-4.66-1.52h-1.99c-4.22,0-5.97,1.74-5.97,5.98v15.03c0,.57.46,1.05,1,1.05h.3c.56,0,.99-.46.99-1.05v-9.32l-.51.53h10.34l-.51-.53v9.32c0,.61.43,1.05,1,1.05h.3c.53,0,.98-.47.98-1.05"/>
  <path class="st1" d="M12.69,223.57c0-3.6-1.18-4.81-4.69-4.81h-1.99c-3.48,0-4.7,1.24-4.7,4.81v5.02h11.38v-5.02ZM12.17,227.56H1.82l.51.51v-4.5c0-3.02.76-3.79,3.68-3.79h1.99c2.91,0,3.64.77,3.64,3.79v4.5l.52-.51Z"/>
  <path class="st1" d="M24.75,239.32c-1.63,0-3.52-.3-4.75-.54-.35-.07-.44-.21-.44-.54v-19.59c0-.28.2-.53.49-.53h.27c.28,0,.49.24.49.53v5.57c1.14-.24,2.84-.41,3.94-.41,3.67,0,5.53,2.29,5.53,6.76v1.86c0,4.08-1.63,6.88-5.53,6.88M29.03,230.57c0-3.74-1.21-5.66-4.28-5.66-1.1,0-2.87.13-3.94.36v12.54c1.01.2,2.58.38,3.94.38,3.16,0,4.28-2.11,4.28-5.76v-1.86Z"/>
  <path class="st1" d="M24.74,238.79c-1.69,0-3.65-.32-4.66-.53-.05,0-.06-.01-.06-.01.01,0,.06.05.06.09v-19.74s-.03.02-.05.02h.28s-.04,0-.04-.01v6.25l.64-.14c1.03-.22,2.72-.4,3.83-.4,1.69,0,2.91.5,3.74,1.51.84,1.03,1.26,2.62,1.26,4.74v1.86c0,2.89-.86,6.36-5,6.36M30.8,232.44v-1.86c0-2.36-.52-4.17-1.52-5.38-1.01-1.27-2.52-1.92-4.53-1.92-1.19,0-2.93.18-4.04.43l.63.51v-5.57c0-.57-.45-1.05-1.02-1.05h-.28c-.55,0-1,.47-1,1.05v19.59c0,.59.25.91.83,1.04,1.08.21,3.11.56,4.87.56,3.89,0,6.05-2.62,6.05-7.39"/>
  <path class="st1" d="M29.54,230.58c0-2.04-.36-3.54-1.07-4.55-.8-1.09-2.05-1.63-3.74-1.63-1.1,0-2.93.13-4.03.38l-.42.07v13.41l.44.07c.99.18,2.57.39,4.01.39,3.23,0,4.8-2.05,4.8-6.28v-1.86ZM28.52,232.44c0,3.67-1.13,5.24-3.78,5.24-1.38,0-2.93-.2-3.83-.38l.43.51v-12.54l-.41.51c1.03-.22,2.78-.36,3.82-.36,1.37,0,2.3.42,2.87,1.22.61.83.9,2.13.9,3.94v1.86Z"/>
  <path class="st1" d="M41.23,239.31h-.54c-1.9,0-5.09-1.01-5.09-5.71v-9.12c0-.29.2-.54.47-.54h.28c.28,0,.47.25.47.54v9.12c0,3.64,1.98,4.54,3.88,4.54h.54c1.92,0,3.87-.9,3.87-4.54v-9.12c0-.29.2-.54.46-.54h.3c.31,0,.5.25.5.54v9.12c0,4.7-3.2,5.71-5.12,5.71"/>
  <path class="st1" d="M41.23,238.8h-.53c-1.07,0-4.59-.37-4.59-5.2v-9.13s0-.03,0-.03c0,0-.03.02-.05.02h.27s-.04-.02-.06-.03c0,0,.02.01.02.05v9.13c0,4.41,2.76,5.05,4.41,5.05h.53c1.63,0,4.39-.65,4.39-5.05v-9.16s-.02.02-.07.02h.3s-.01-.01-.01-.02v9.16c0,4.82-3.53,5.2-4.62,5.2M46.87,233.61v-9.13c0-.59-.43-1.03-1.01-1.03h-.3c-.53,0-.97.44-.97,1.03v9.13c0,2.73-1.09,4.03-3.35,4.03h-.53c-2.26,0-3.38-1.31-3.38-4.03v-9.13c0-.59-.42-1.03-.99-1.03h-.27c-.55,0-.98.46-.98,1.03v9.13c0,4.59,3.02,6.22,5.61,6.22h.53c2.6,0,5.64-1.63,5.64-6.22"/>
  <path class="st1" d="M67.12,239.32c-2.25,0-3.81-.08-4.63-.24-.26-.06-.48-.27-.48-.51v-19.84c0-.25.22-.47.48-.54.82-.12,2.38-.23,4.63-.23,4.8,0,8.24,2.31,8.24,8.91v3.54c0,6.51-3.45,8.91-8.24,8.91M74.14,226.87c0-6.01-3.05-7.79-7.02-7.79-1.63,0-2.61.08-3.83.16v18.86c1.22.09,2.2.1,3.83.1,3.97,0,7.02-1.84,7.02-7.8v-3.54Z"/>
  <path class="st1" d="M67.12,238.8c-2.23,0-3.77-.07-4.54-.22-.02,0-.05-.03-.05-.04v.03-19.83.03s.05-.06.11-.08h-.07c.88-.13,2.54-.22,4.56-.22,5.2,0,7.73,2.75,7.73,8.4v3.54c0,5.57-2.59,8.39-7.73,8.39M75.88,230.4v-3.54c0-6.17-3.04-9.43-8.76-9.43-2.11,0-3.78.09-4.72.24h-.07c-.42.13-.83.53-.83,1.06v19.83c0,.47.36.89.86,1.01.88.17,2.41.25,4.75.25,3.99,0,8.76-1.63,8.76-9.43"/>
  <path class="st1" d="M74.65,226.87c0-5.51-2.51-8.31-7.52-8.31-1.5,0-2.47.06-3.58.14l-.32.03-.47.03v19.84l.47.03c1.31.08,2.35.11,3.9.11,5.01,0,7.52-2.8,7.52-8.33v-3.54ZM73.61,230.4c0,4.91-2.11,7.28-6.48,7.28-1.54,0-2.55,0-3.81-.09l.46.51v-18.86l-.49.51h.35c1.06-.1,2-.16,3.49-.16,4.44,0,6.48,2.31,6.48,7.28v3.54Z"/>
  <path class="st1" d="M90.94,239.31h-.28c-.28,0-.46-.26-.46-.53v-9.57c0-2.75-1.15-4.31-4.18-4.31-1.21,0-2.74.2-3.81.49v13.39c0,.28-.2.53-.5.53h-.26c-.3,0-.49-.26-.49-.53v-20.13c0-.29.19-.53.49-.53h.26c.3,0,.5.24.5.53v5.65c1.09-.29,2.56-.49,3.81-.49,3.95,0,5.38,2.25,5.38,5.4v9.57c0,.28-.13.53-.46.53"/>
  <path class="st1" d="M90.94,238.8h-.28s.05.01.07.03c-.02-.01-.02-.03-.02-.05v-9.57c0-3.2-1.57-4.82-4.7-4.82-1.28,0-2.82.2-3.93.51l-.38.11v13.76s-.01.03-.01.03c0,0,.01,0,.04,0h-.27s.03,0,.03.01c0,0-.01-.01-.01-.03v-20.12s.01-.04.01-.04c0,0-.03,0-.03,0h.27s-.03,0-.04,0c0,0,.01,0,.01.04v6.31l.64-.16c1.15-.3,2.56-.48,3.68-.48,3.28,0,4.88,1.61,4.88,4.88v9.63s.03-.03.05-.04M91.93,238.78v-9.57c0-3.81-2.1-5.92-5.91-5.92-1.19,0-2.71.19-3.93.51l.64.51v-5.65c0-.59-.44-1.06-1-1.06h-.27c-.57,0-1.01.47-1.01,1.06v20.12c0,.59.44,1.06,1.01,1.06h.27c.56,0,1-.47,1-1.06v-13.38l-.36.51c1.01-.3,2.48-.49,3.66-.49,2.56,0,3.65,1.13,3.65,3.79v9.57c0,.59.44,1.06,1,1.06h.28c.58,0,.99-.44.99-1.06"/>
  <path class="st1" d="M106.57,238.72c-1.37.36-2.87.6-4.31.6-4.28,0-5.67-1.5-5.67-4.56v-.36c0-2.96,1.81-4.38,6.96-4.38h2.19v-1.01c0-2.93-.84-4.09-3.56-4.09-1.88,0-2.7.09-4.03.24-.32.03-.64-.07-.64-.42v-.17c0-.32.23-.45.64-.49,1.2-.15,2.15-.26,4.03-.26,3.81,0,4.8,2.13,4.8,5.19v9.12c0,.35-.09.51-.41.59M105.74,231.16h-2.19c-4.26,0-5.71.83-5.71,3.23v.36c0,2.29.78,3.44,4.43,3.44,1.44,0,2.91-.23,3.47-.32v-6.72Z"/>
  <path class="st1" d="M106.44,238.21c-1.44.38-2.89.58-4.17.58-4.3,0-5.15-1.54-5.15-4.03v-.36c0-2.31,1.09-3.87,6.43-3.87h2.71v-1.52c0-2.77-.71-4.61-4.08-4.61-1.85,0-2.69.09-3.93.24l-.14.02c-.09,0-.14,0-.15,0,.02,0,.09.07.09.09v-.15h0s-.03.03-.07.06c0,0,.07-.04.25-.05,1.25-.17,2.15-.26,3.95-.26,3.06,0,4.29,1.34,4.29,4.68v9.12c0,.09,0,.12,0,.12,0-.02.03-.05.04-.06,0,0-.01.01-.07.03M107.5,238.12v-9.12c0-2.44-.54-5.71-5.32-5.71-1.85,0-2.82.11-4.07.26-.96.1-1.11.67-1.11,1.03v.15c0,.34.17.57.3.68.23.2.53.3.91.26.02,0,.14-.01.14-.01,1.23-.13,2.05-.24,3.83-.24,2.34,0,3.04.85,3.04,3.6v1.01l.52-.52h-2.19c-5.24,0-7.48,1.46-7.48,4.9v.36c0,3.56,1.85,5.07,6.19,5.07,1.4,0,2.91-.22,4.44-.62.54-.13.79-.5.79-1.09"/>
  <path class="st1" d="M105.73,230.65h-2.18c-3.83,0-6.21.62-6.21,3.75v.36c0,2.89,1.33,3.95,4.93,3.95,1.42,0,2.83-.2,3.57-.32l.42-.09v-7.66h-.52ZM105.65,237.37c-.55.09-1.97.32-3.38.32-3.65,0-3.91-1.16-3.91-2.92v-.36c0-1.82.82-2.73,5.19-2.73h2.18l-.51-.51v6.71l.43-.5Z"/>
  <path class="st1" d="M118.01,239.32c-1.59,0-3.5-.3-4.72-.54-.35-.07-.45-.21-.45-.54v-19.59c0-.28.21-.53.5-.53h.27c.26,0,.49.24.49.53v5.57c1.12-.24,2.83-.41,3.91-.41,3.69,0,5.54,2.29,5.54,6.76v1.86c0,4.08-1.62,6.88-5.54,6.88M122.33,230.57c0-3.74-1.21-5.66-4.32-5.66-1.08,0-2.83.13-3.91.36v12.54c1.01.2,2.58.38,3.91.38,3.18,0,4.32-2.11,4.32-5.76v-1.86Z"/>
  <path class="st1" d="M118.01,238.79c-1.76,0-3.83-.37-4.64-.53-.07,0-.09-.03-.09-.03.02.03.06.07.06.09v-19.68s0-.02.02-.02h-.03.28s-.05-.01-.05-.01v6.25l.63-.14c1.04-.22,2.72-.4,3.83-.4,3.39,0,5.03,2.04,5.03,6.25v1.86c0,4.22-1.7,6.36-5.03,6.36M124.07,232.44v-1.86c0-6.01-3.29-7.29-6.06-7.29-1.19,0-2.92.18-4.03.43l.63.51v-5.57c0-.57-.45-1.05-1-1.05h-.28c-.57,0-1.03.48-1.03,1.05v19.59c0,.57.28.91.86,1.04.87.18,3,.56,4.85.56,3.91,0,6.06-2.62,6.06-7.39"/>
  <path class="st1" d="M122.84,230.58c0-2.04-.35-3.54-1.09-4.55-.8-1.09-2.06-1.63-3.74-1.63-1.11,0-2.91.13-4.03.38l-.43.07v13.41l.44.07c.96.18,2.6.39,4.01.39,3.25,0,4.82-2.05,4.82-6.28v-1.86ZM121.82,232.44c0,3.67-1.15,5.24-3.81,5.24-1.36,0-2.91-.2-3.83-.38l.42.51v-12.54l-.41.51c1.07-.22,2.77-.36,3.83-.36,1.35,0,2.3.42,2.91,1.22.59.83.9,2.13.9,3.94v1.86Z"/>
  <path class="st1" d="M129.99,221.14h-.16c-.28,0-.56-.22-.56-.54v-2.1c0-.28.28-.55.56-.55h.16c.28,0,.55.26.55.55v2.1c0,.32-.26.54-.55.54M129.99,239.31h-.16c-.28,0-.56-.26-.56-.53v-14.3c0-.29.28-.54.56-.54h.16c.28,0,.55.25.55.54v14.3c0,.28-.26.53-.55.53"/>
  <path class="st1" d="M129.99,220.62h-.18v-2.11h0s.01-.04.03-.04h-.01.16-.01s.04.04.04.05h0s0,2.09,0,2.09h0s-.03.01-.03.01ZM131.05,220.6v-2.1c0-.56-.49-1.07-1.06-1.07h-.16c-.57,0-1.07.51-1.07,1.07v2.1c0,.59.47,1.06,1.07,1.06h.16c.59,0,1.06-.47,1.06-1.06"/>
  <path class="st1" d="M129.99,238.8h-.16.01s-.03-.02-.03-.03h0s0-14.28,0-14.28c0,0,0-.01.01-.01h.16s.03,0,.03.01v14.3h0s-.03.02-.04.03h.01ZM131.05,238.78v-14.3c0-.57-.47-1.04-1.06-1.04h-.16c-.57,0-1.07.47-1.07,1.04v14.3c0,.57.5,1.06,1.07,1.06h.16c.57,0,1.06-.49,1.06-1.06"/>
  <path class="st1" d="M157.88,239.02c-.73.09-2.27.29-4.86.29-3.54,0-6.92-2.03-6.92-8.81v-3.71c0-6.79,3.38-8.83,6.92-8.83,2.6,0,4.14.2,4.86.3.26.01.55.2.55.48v.33c0,.29-.14.35-.39.35h-.15c-1.03-.12-3.14-.25-4.86-.25-3.18,0-5.72,2.02-5.72,7.62v3.71c0,5.58,2.54,7.62,5.72,7.62,1.73,0,3.83-.16,4.86-.25h.15c.26,0,.39.05.39.32v.36c0,.26-.29.43-.55.46"/>
  <path class="st1" d="M157.81,238.51c-.65.09-2.18.29-4.8.29-2.93,0-6.42-1.44-6.42-8.29v-3.72c0-6.87,3.49-8.33,6.42-8.33,2.57,0,4.08.21,4.8.31.07,0,.11.03.11.03,0,0-.02-.03-.02-.07v.36c.01-.07.11-.19.2-.2,0,0-.01,0-.05,0h-.16.04c-.97-.11-3.1-.28-4.91-.28s-3.38.65-4.44,1.9c-1.17,1.4-1.79,3.5-1.79,6.26v3.72c0,7.06,3.91,8.12,6.23,8.12,1.85,0,4.02-.16,4.91-.24h.12c.05,0,.05.01.05.01-.09-.02-.18-.12-.2-.22h0v.38s.02-.09.02-.09c0,0-.04.03-.11.04M158.93,238.56v-.36c0-.19-.06-.84-.88-.84h-.16c-.93.08-3.06.24-4.87.24-3.39,0-5.18-2.44-5.18-7.08v-3.72c0-2.5.51-4.39,1.53-5.58.86-1.03,2.1-1.54,3.65-1.54,1.75,0,3.84.15,4.82.26h.01s.03.01.03.01h.16c.82,0,.88-.67.88-.88v-.34c0-.59-.53-.96-1.01-.99-.72-.09-2.27-.3-4.91-.3-2.79,0-7.44,1.22-7.44,9.35v3.72c0,8.11,4.64,9.32,7.44,9.32s4.25-.21,4.93-.3c.59-.07.99-.47.99-.97"/>
  <path class="st1" d="M173.82,231.81h-9.58v.62c0,4.76,2.31,5.76,5.12,5.76,1.26,0,2.82-.19,4.2-.46.04,0,.13-.03.16-.03.24,0,.44.11.44.4v.2c0,.3-.12.44-.55.52-1.35.3-2.96.49-4.24.49-3.48,0-6.33-1.54-6.33-6.88v-1.86c0-3.9,1.97-6.76,5.68-6.76,3.9,0,5.63,2.71,5.63,6.72v.78c0,.28-.27.5-.53.5M173.1,230.53c0-3.57-1.2-5.62-4.39-5.62s-4.47,2.28-4.47,5.66v.13h8.87v-.18Z"/>
  <path class="st1" d="M173.82,231.31h-10.09v1.12c0,5.63,3.22,6.29,5.63,6.29,1.19,0,2.78-.18,4.3-.48h-.11c.09,0,.15,0,.21-.01.01-.02,0,0-.06,0h.02s-.1-.09-.1-.12v.23s.04-.07.05-.08c0,.01-.03.04-.19.06-1.4.31-2.93.48-4.13.48-3.95,0-5.83-2.02-5.83-6.36v-1.86c0-3.85,2-6.24,5.17-6.24,4.23,0,5.12,3.37,5.12,6.21v.78-.03s0,.02-.02.02h.01ZM174.86,231.32v-.78c0-4.6-2.23-7.25-6.15-7.25s-6.19,2.87-6.19,7.28v1.86c0,4.91,2.29,7.4,6.84,7.4,1.25,0,2.9-.2,4.34-.51.24-.03.96-.19.96-1.03v-.2c0-.53-.41-.92-.96-.92-.08,0-.15.01-.2.02-.02.02,0,0,.05,0h-.07l-.05.02c-1.43.29-2.94.46-4.08.46-2.39,0-4.58-.63-4.58-5.26v-.61l-.54.53h9.58c.55,0,1.04-.48,1.04-1.03"/>
  <path class="st1" d="M173.62,230.53c0-4.13-1.59-6.15-4.91-6.15-1.67,0-2.97.59-3.83,1.77-.76,1.07-1.15,2.56-1.15,4.41v.65h9.89v-.69ZM173.1,230.19h-8.87l.53.53v-.14c0-1.65.3-2.93.94-3.79.66-.9,1.67-1.37,3-1.37,2.68,0,3.87,1.58,3.87,5.12v.18l.52-.53Z"/>
  <path class="st1" d="M189.93,239.31h-.28c-.28,0-.48-.26-.48-.53v-9.78c0-3.56-1.64-4.02-3.55-4.02h-1.21c-1.87,0-3.52.46-3.52,4.02v9.78c0,.28-.18.53-.49.53h-.26c-.28,0-.51-.26-.51-.53v-9.78c0-4.75,2.83-5.19,4.78-5.19h1.21c1.98,0,4.78.44,4.78,5.19v9.78c0,.28-.18.53-.47.53"/>
  <path class="st1" d="M189.93,238.8h-.28s.05,0,.05.01c0,0,0-.01,0-.03v-9.77c0-1.79-.42-3.02-1.25-3.74-.82-.69-1.88-.8-2.83-.8h-1.21c-2,0-4.05.55-4.05,4.54v9.83s.03-.04.05-.04h-.27s.03,0,.05,0c-.02,0-.05-.03-.05-.03v-9.77c0-4.12,2.17-4.68,4.27-4.68h1.21c2.11,0,4.27.56,4.27,4.68v9.82s.03-.03.05-.03M190.92,238.78v-9.77c0-5.71-3.97-5.71-5.3-5.71h-1.21c-1.3,0-5.28,0-5.28,5.71v9.77c0,.57.46,1.06,1.01,1.06h.27c.56,0,.99-.47.99-1.06v-9.77c0-3.24,1.36-3.5,3.01-3.5h1.21c1.08,0,1.72.16,2.15.54.59.51.88,1.48.88,2.96v9.77c0,.59.45,1.06,1,1.06h.28c.57,0,.99-.47.99-1.06"/>
  <path class="st1" d="M202.15,239.24c-.37.03-1.31.07-2.13.07-2.49,0-3.87-.82-3.87-3.64v-14.91c0-.27.21-.54.51-.54h.23c.29,0,.53.27.53.54v3.18h4.73c.31,0,.53.18.53.48v.25c0,.24-.22.43-.53.43h-4.73v10.57c0,2.21.7,2.52,2.6,2.52h2.13c.41,0,.61.12.61.38v.2c0,.21-.08.38-.61.47"/>
  <path class="st1" d="M202.1,238.72c-.35.03-1.24.07-2.08.07-2.47,0-3.35-.81-3.35-3.12v-14.92h0s.22-.01.22-.01h-.02s.01,0,.01.01v3.71h5.26c.07,0,.07,0,.07,0,0,0-.05-.05-.05-.07v.26s.04-.09.05-.09c0,0-.03,0-.07,0h-5.26v11.11c0,2.57,1.06,3.04,3.14,3.04h2.13c.16,0,.2.02.22.02-.07-.02-.11-.11-.11-.17v.22c0-.05.03-.1.06-.13,0,0-.04.03-.22.05M203.27,238.78v-.2c0-.21-.07-.88-1.13-.88h-2.13c-1.69,0-2.09-.18-2.09-2.01v-10.58l-.51.51h4.72c.59,0,1.05-.4,1.05-.95v-.24c0-.56-.43-.98-1.05-.98h-4.72l.51.51v-3.19c0-.57-.47-1.05-1.04-1.05h-.22c-.57,0-1.04.47-1.04,1.05v14.92c0,3.68,2.33,4.16,4.39,4.16.79,0,1.76-.03,2.19-.09.7-.1,1.06-.42,1.06-.97"/>
  <path class="st1" d="M212.66,224.91h-.88c-1.44,0-2.19.17-3.06.69v13.18c0,.28-.24.55-.5.55h-.28c-.26,0-.45-.26-.45-.55v-13.41c0-.22.13-.4.23-.46,1.4-.84,2.61-1.09,4.1-1.09,1.26,0,1.44.12,1.44.49v.14c0,.35-.22.47-.6.47"/>
  <path class="st1" d="M212.66,224.39h-.88c-1.51,0-2.38.2-3.31.74l-.25.16v13.5s0,0,0,0h-.27s.07.02.08.04c0,0-.01-.04-.01-.06v-13.41s.01-.03.01-.03c0,0-.01.02-.03.02,1.21-.73,2.31-1.02,3.82-1.02.77,0,.96.06,1.01.09-.05-.03-.08-.09-.09-.13v.19s.04-.08.08-.1c0,0-.04.02-.16.02M213.78,224.44v-.14c0-1.01-1.05-1.01-1.96-1.01-1.69,0-2.96.34-4.35,1.17-.23.13-.49.46-.49.9v13.41c0,.59.43,1.06.96,1.06h.27c.57,0,1.03-.48,1.03-1.06v-13.18l-.25.44c.76-.46,1.46-.61,2.78-.61h.88c.21,0,.5-.02.75-.19.17-.13.37-.36.37-.78"/>
  <path class="st1" d="M227.66,231.81h-9.53v.62c0,4.76,2.27,5.76,5.08,5.76,1.25,0,2.8-.19,4.2-.46.07,0,.1-.03.17-.03.22,0,.44.11.44.4v.2c0,.3-.13.44-.54.52-1.36.3-2.99.49-4.26.49-3.48,0-6.36-1.54-6.36-6.88v-1.86c0-3.9,1.99-6.76,5.72-6.76s5.61,2.71,5.61,6.72v.78c0,.28-.25.5-.53.5M226.98,230.53c0-3.57-1.21-5.62-4.41-5.62s-4.45,2.28-4.45,5.66v.13h8.85v-.18Z"/>
  <path class="st1" d="M227.67,231.31h-10.07v1.12c0,5.63,3.22,6.29,5.61,6.29,1.2,0,2.77-.18,4.29-.48h-.09c.09,0,.18,0,.2-.03.02,0,0,.02-.05.02h.03s-.09-.09-.09-.12v.23s.02-.07.05-.08c0,0-.05.04-.21.06-1.36.3-2.94.48-4.14.48-3.97,0-5.83-2.02-5.83-6.36v-1.86c0-3.85,1.98-6.24,5.19-6.24,4.2,0,5.1,3.37,5.1,6.21v.78-.03.02h0ZM228.72,231.32v-.78c0-4.68-2.19-7.25-6.15-7.25s-6.21,2.87-6.21,7.28v1.86c0,4.91,2.3,7.4,6.85,7.4,1.28,0,2.91-.2,4.35-.51.23-.03.98-.2.98-1.03v-.2c0-.53-.41-.92-.98-.92-.08,0-.17.01-.22.02,0,.02.03,0,.06,0h-.06l-.03.02c-1.48.29-2.98.46-4.1.46-2.35,0-4.56-.63-4.56-5.26v-.61l-.53.53h9.54c.56,0,1.05-.48,1.05-1.03"/>
  <path class="st1" d="M227.48,230.53c0-4.13-1.6-6.15-4.91-6.15-1.69,0-2.99.59-3.83,1.79-.78,1.05-1.15,2.54-1.15,4.4v.65h9.88v-.69ZM226.98,230.19h-8.85l.52.53v-.14c0-1.66.31-2.93.94-3.8.64-.92,1.62-1.36,2.99-1.36,2.68,0,3.89,1.58,3.89,5.12v.18l.52-.53Z"/>
  <path class="st1" d="M249.32,219.07h-2.15c-1.88,0-2.63.35-2.63,2.52v2.35h4.78c.31,0,.51.16.51.47v.24c0,.26-.2.45-.51.45h-4.78v13.68c0,.27-.22.53-.5.53h-.2c-.3,0-.55-.26-.55-.53v-17.19c0-2.79,1.38-3.63,3.87-3.63.84,0,1.79.05,2.15.1.51.06.58.22.58.45v.22c0,.25-.18.34-.58.34"/>
  <path class="st1" d="M249.33,218.56h-2.16c-2.06,0-3.16.47-3.16,3.02v2.89h5.36s-.04-.04-.04-.08v.28s0-.08.04-.09h-5.36v14.24s.02-.01.03-.01h-.2l-.03-.02v-17.2c0-2.26.9-3.11,3.35-3.11.86,0,1.78.07,2.08.1.17.02.22.05.22.05-.03-.03-.08-.07-.08-.13v.24c0-.08.07-.16.11-.18,0,0-.05.02-.18.02M250.41,218.72v-.22c0-.56-.34-.88-1.03-.98-.42-.03-1.38-.09-2.22-.09-3.03,0-4.39,1.28-4.39,4.14v17.2c0,.57.47,1.05,1.06,1.05h.2c.56,0,1.02-.47,1.02-1.05v-13.67l-.51.51h4.78c.59,0,1.02-.39,1.02-.94v-.25c0-.58-.43-.98-1.02-.98h-4.78l.51.51v-2.37c0-1.79.42-1.99,2.11-1.99h2.16c1.01,0,1.09-.65,1.09-.86"/>
  <path class="st1" d="M258.59,239.32c-3.85,0-5.81-2.5-5.81-6.77v-1.98c0-4.28,1.96-6.76,5.81-6.76s5.86,2.48,5.86,6.76v1.98c0,4.26-1.94,6.77-5.86,6.77M263.18,230.57c0-3.5-1.28-5.66-4.59-5.66s-4.58,2.16-4.58,5.66v1.98c0,3.46,1.29,5.65,4.58,5.65s4.59-2.19,4.59-5.65v-1.98Z"/>
  <path class="st1" d="M258.6,238.79c-4.39,0-5.3-3.41-5.3-6.25v-1.97c0-2.04.44-3.59,1.34-4.65.89-1.05,2.22-1.59,3.97-1.59s3.1.55,3.98,1.59c.88,1.05,1.34,2.61,1.34,4.65v1.97c0,2.85-.93,6.25-5.32,6.25M264.96,232.54v-1.97c0-2.27-.53-4.07-1.57-5.31-1.12-1.31-2.71-1.97-4.78-1.97s-3.67.66-4.77,1.97c-1.03,1.24-1.57,3.04-1.57,5.31v1.97c0,4.7,2.25,7.29,6.34,7.29s6.36-2.6,6.36-7.29"/>
  <path class="st1" d="M263.7,230.57c0-4.11-1.71-6.19-5.11-6.19s-5.09,2.08-5.09,6.19v1.97c0,5.11,2.77,6.18,5.09,6.18,3.39,0,5.11-2.07,5.11-6.18v-1.97ZM262.67,232.54c0,3.52-1.29,5.15-4.08,5.15s-4.06-1.63-4.06-5.15v-1.97c0-3.51,1.28-5.15,4.06-5.15s4.08,1.65,4.08,5.15v1.97Z"/>
  <path class="st1" d="M275.03,224.91h-.87c-1.43,0-2.2.17-3.08.69v13.18c0,.28-.2.55-.47.55h-.3c-.29,0-.44-.26-.44-.55v-13.41c0-.22.13-.4.25-.46,1.39-.84,2.56-1.09,4.07-1.09,1.25,0,1.44.12,1.44.49v.14c0,.35-.2.47-.6.47"/>
  <path class="st1" d="M275.04,224.39h-.88c-1.5,0-2.38.2-3.34.74l-.24.16v13.49s-.03.03-.03.04c0-.01.05-.02.07-.02h-.28s.07.02.07.04v-13.51s0,.02-.02.03c1.24-.74,2.31-1.03,3.82-1.03.78,0,.96.06,1.02.09-.04-.03-.09-.09-.1-.15,0,0,.01.01.01.03v.14s-.01.03-.01.03c.01-.04.06-.09.1-.11,0,0-.06.02-.17.02M276.15,224.44v-.14c0-1.01-1.05-1.01-1.96-1.01-1.7,0-2.96.34-4.34,1.17-.24.13-.49.46-.49.9v13.41c0,.61.41,1.06.96,1.06h.28c.57,0,.99-.47.99-1.06v-13.18l-.26.45c.8-.47,1.47-.62,2.81-.62h.88c.2,0,.51-.02.74-.19.17-.13.37-.36.37-.78"/>
  <path class="st1" d="M14.4,257.06h-6.02v19.34c0,.28-.22.54-.5.54h-.29c-.27,0-.48-.26-.48-.54v-19.34H1.04c-.28,0-.51-.13-.51-.42v-.28c0-.24.24-.45.51-.45h13.36c.31,0,.54.21.54.45v.28c0,.28-.23.42-.54.42"/>
  <path class="st1" d="M14.41,256.54h-6.55v19.9s.01-.01.03-.01h-.29s.05.01.05.03c0-.01,0-.04,0-.06v-19.85H.96s.08.06.08.09v-.28c0,.06-.02.07-.03.08t.03-.01h13.36s.07.01.07.01c-.03-.01-.05-.02-.05-.08v.28s.05-.09.07-.09h-.08M15.46,256.64v-.28c0-.26-.12-.52-.34-.7-.18-.17-.45-.26-.71-.26H1.05c-.57,0-1.05.45-1.05.96v.28c0,.55.45.94,1.05.94h6.07l-.53-.52v19.34c0,.59.45,1.07,1.01,1.07h.29c.54,0,1.01-.48,1.01-1.07v-19.34l-.51.52h6.02c.26,0,.52-.07.68-.21.25-.17.37-.44.37-.73"/>
  <path class="st1" d="M25.17,269.63h-9.51v.6c0,4.74,2.27,5.76,5.09,5.76,1.25,0,2.8-.21,4.18-.49.07,0,.11-.01.18-.01.22,0,.42.12.42.38v.2c0,.32-.11.47-.53.54-1.36.28-2.97.5-4.24.5-3.5,0-6.34-1.54-6.34-6.88v-1.9c0-3.89,1.97-6.75,5.69-6.75,3.92,0,5.62,2.73,5.62,6.74v.76c0,.33-.26.55-.55.55M24.47,268.33c0-3.56-1.17-5.61-4.38-5.61s-4.43,2.27-4.43,5.63v.13h8.81v-.15Z"/>
  <path class="st1" d="M25.17,269.12h-10.01v1.11c0,5.63,3.16,6.27,5.59,6.27,1.19,0,2.71-.18,4.27-.5h-.11s.11.01.11.01c.03-.01.07-.01.07-.01h.02c-.07,0-.13-.09-.13-.14v.28s.03-.07.05-.09c0,0-.02.01-.13.04-1.46.31-3.02.49-4.16.49-3.98,0-5.84-2.02-5.84-6.36v-1.89c0-1.85.47-3.41,1.34-4.53.92-1.13,2.23-1.72,3.84-1.72,4.22,0,5.09,3.39,5.09,6.23v.8h-.01ZM26.23,269.09v-.77c0-4.61-2.23-7.27-6.13-7.27-1.93,0-3.54.75-4.64,2.12-1.01,1.29-1.56,3.07-1.56,5.17v1.89c0,4.9,2.31,7.39,6.86,7.39,1.21,0,2.83-.19,4.34-.52.61-.09.94-.43.94-1.04v-.2c0-.28-.13-.53-.32-.68-.16-.14-.37-.22-.61-.22-.07,0-.09.01-.13.01,0,.01-.02.01-.05.01h-.09c-1.49.31-2.96.49-4.07.49-2.39,0-4.57-.65-4.57-5.26v-.6l-.53.51h9.51c.61,0,1.06-.46,1.06-1.05"/>
  <path class="st1" d="M25.01,268.32c0-4.12-1.6-6.13-4.91-6.13s-4.94,2.18-4.94,6.15v.65h9.85v-.67ZM24.47,267.96h-8.81l.53.52v-.14c0-3.4,1.3-5.11,3.91-5.11s3.87,1.58,3.87,5.1v.16l.51-.52Z"/>
  <path class="st1" d="M37.44,276.85c-1.2.14-2.53.26-3.41.26-4.05,0-5.59-3.16-5.59-6.86v-1.92c0-3.72,1.55-6.74,5.59-6.74.88,0,2.21.11,3.41.28.42.03.5.21.5.49v.18c0,.31-.15.41-.46.41h-.11c-1.32-.16-2.4-.24-3.33-.24-3.23,0-4.33,2.22-4.33,5.62v1.92c0,3.43,1.1,5.75,4.33,5.75.94,0,2.02-.1,3.33-.24h.11c.31,0,.46.08.46.38v.21c0,.29-.08.45-.5.51"/>
  <path class="st1" d="M37.38,276.34c-1.09.11-2.46.24-3.34.24-4.43,0-5.09-3.96-5.09-6.34v-1.92c0-2.33.67-6.23,5.09-6.23.79,0,2.01.09,3.33.26.12.01.13.02.13.02-.01,0-.06-.06-.08-.09v.27s.08-.12.13-.13c0,0-.03,0-.07,0h-.12.05c-1.27-.16-2.42-.24-3.39-.24-1.72,0-2.99.59-3.81,1.75-.7,1.03-1.05,2.44-1.05,4.38v1.92c0,4.16,1.63,6.27,4.86,6.27.92,0,2.03-.09,3.39-.26h-.05.12c.06,0,.07.01.07.01-.05-.01-.11-.08-.13-.13v.28s.07-.08.08-.1c0,0-.01.02-.13.04M38.48,276.34v-.22c0-.43-.26-.9-.99-.9h-.19c-1.3.18-2.38.26-3.27.26-1.63,0-3.83-.54-3.83-5.24v-1.92c0-1.72.28-2.95.88-3.78.59-.89,1.58-1.32,2.95-1.32.94,0,2.03.08,3.27.24h.03s.04.01.04.01h.12c.72,0,.99-.49.99-.94v-.18c0-.42-.18-.94-.99-1.02-1.36-.18-2.62-.27-3.45-.27-3.89,0-6.12,2.64-6.12,7.26v1.92c0,4.63,2.29,7.37,6.12,7.37.92,0,2.27-.13,3.45-.25.67-.1.99-.43.99-1.03"/>
  <path class="st1" d="M50.77,277.1h-.29c-.3,0-.46-.26-.46-.54v-9.55c0-2.77-1.15-4.31-4.17-4.31-1.21,0-2.74.18-3.81.51v13.35c0,.28-.2.54-.49.54h-.26c-.3,0-.49-.26-.49-.54v-20.13c0-.28.2-.53.49-.53h.26c.28,0,.49.25.49.53v5.65c1.09-.26,2.56-.51,3.81-.51,3.93,0,5.37,2.26,5.37,5.44v9.55c0,.28-.16.54-.45.54"/>
  <path class="st1" d="M50.77,276.58h-.3s.07.03.08.06c0-.01-.01-.05-.01-.08v-9.55c0-3.24-1.55-4.82-4.68-4.82-1.39,0-2.96.21-3.96.53l-.36.11v13.72s-.03.04-.03.04c0,0,.05-.02.06-.02h-.27s.05.01.05.02c0,0-.02-.02-.02-.04v-20.11s0-.05.02-.05c-.02,0-.05.03-.05.03h.27s-.03-.02-.06-.03c0,0,.03,0,.03.05v6.3l.65-.16c1.24-.31,2.64-.49,3.68-.49,3.27,0,4.85,1.62,4.85,4.92v9.55s-.02.07-.02.08c.02-.03.05-.06.08-.06M51.74,276.56v-9.55c0-3.83-2.09-5.95-5.88-5.95-1.13,0-2.59.2-3.93.52l.63.51v-5.64c0-.6-.42-1.06-.99-1.06h-.27c-.58,0-1,.46-1,1.06v20.11c0,.58.42,1.06,1,1.06h.27c.55,0,.99-.48.99-1.06v-13.35l-.34.51c.91-.3,2.34-.49,3.64-.49,2.56,0,3.66,1.13,3.66,3.79v9.55c0,.6.4,1.06.96,1.06h.3c.55,0,.96-.46.96-1.06"/>
  <path class="st1" d="M64.79,277.1h-.27c-.28,0-.51-.26-.51-.54v-9.78c0-3.53-1.63-3.99-3.51-3.99h-1.22c-1.88,0-3.52.47-3.52,3.99v9.78c0,.28-.2.54-.49.54h-.27c-.28,0-.47-.26-.47-.54v-9.78c0-4.72,2.81-5.2,4.75-5.2h1.22c1.93,0,4.76.48,4.76,5.2v9.78c0,.28-.22.54-.47.54"/>
  <path class="st1" d="M64.79,276.58h-.28s.05.01.05.01c0,0-.02-.02-.02-.03v-9.78c0-3.99-2.04-4.53-4.04-4.53h-1.22c-1.99,0-4.02.54-4.02,4.53v9.78s0,.03,0,.03c0,0,0-.01.03-.01h-.27s.05.01.07.02c-.02,0-.02-.02-.02-.04v-9.78c0-4.15,2.25-4.69,4.22-4.69h1.22c2,0,4.26.54,4.26,4.69v9.78s0,.04,0,.04c0,0,0-.02.04-.02M65.78,276.56v-9.78c0-5.72-3.97-5.72-5.28-5.72h-1.22c-3.5,0-5.28,1.93-5.28,5.72v9.78c0,.58.45,1.06,1.01,1.06h.27c.57,0,1.01-.48,1.01-1.06v-9.78c0-3.22,1.36-3.49,2.99-3.49h1.22c1.63,0,3.01.27,3.01,3.49v9.78c0,.57.45,1.06,1.01,1.06h.28c.56,0,.99-.48.99-1.06"/>
  <path class="st1" d="M69.7,258.91h-.18c-.29,0-.54-.18-.54-.51v-2.1c0-.3.25-.55.54-.55h.18c.28,0,.53.25.53.55v2.1c0,.32-.24.51-.53.51M69.7,277.1h-.18c-.29,0-.54-.26-.54-.54v-14.3c0-.28.25-.53.54-.53h.18c.28,0,.53.25.53.53v14.3c0,.28-.24.54-.53.54"/>
  <path class="st1" d="M69.7,258.4h-.18s-.04-.01-.04-.01c.03.01.04.02.04.04v-2.11s0-.03,0-.05c0,0,0,.01,0,.01h.18-.02s.03.02.03.03v2.09h0l.02-.02s-.02.01-.03.01M70.73,258.4v-2.09c0-.57-.48-1.07-1.04-1.07h-.18c-.56,0-1.05.49-1.05,1.07v2.09c0,.59.45,1.03,1.05,1.03h.18c.59,0,1.04-.44,1.04-1.03"/>
  <path class="st1" d="M69.7,276.58h-.18,0s0,0,0-.02v-14.29h0s.18-.01.18-.01h-.02s.03.01.03.02h0s0,14.28,0,14.28c0,0,0,.02-.03.02h.02ZM70.73,276.56v-14.29c0-.57-.48-1.05-1.04-1.05h-.18c-.56,0-1.05.47-1.05,1.05v14.29c0,.57.49,1.06,1.05,1.06h.18c.56,0,1.04-.49,1.04-1.06"/>
  <path class="st1" d="M82.64,276.85c-1.19.14-2.5.26-3.41.26-4.04,0-5.57-3.16-5.57-6.86v-1.92c0-3.72,1.53-6.74,5.57-6.74.91,0,2.22.11,3.41.28.4.03.55.21.55.49v.18c0,.31-.2.41-.5.41h-.09c-1.36-.16-2.43-.24-3.37-.24-3.2,0-4.33,2.22-4.33,5.62v1.92c0,3.43,1.13,5.75,4.33,5.75.94,0,2.02-.1,3.37-.24h.09c.3,0,.5.08.5.38v.21c0,.29-.14.45-.55.51"/>
  <path class="st1" d="M82.58,276.34c-1.09.11-2.44.24-3.35.24-4.41,0-5.07-3.96-5.07-6.34v-1.92c0-2.33.67-6.23,5.07-6.23.81,0,2.04.09,3.35.26.11.01.14.03.14.03-.01-.02-.04-.05-.06-.08v.22h0s.06-.1.11-.11c0,0-.02,0-.09,0h-.09.07c-1.32-.16-2.44-.24-3.43-.24-3.22,0-4.85,2.06-4.85,6.13v1.92c0,4.16,1.63,6.27,4.85,6.27.94,0,2.02-.09,3.43-.26h-.07.09c.07,0,.09.01.09.01-.04-.01-.09-.08-.11-.13v.26s.05-.08.06-.09c0,0-.03.02-.14.04M83.7,276.34v-.22c0-.41-.26-.9-1.01-.9h-.16c-1.36.18-2.4.26-3.3.26-1.65,0-3.83-.54-3.83-5.24v-1.92c0-3.52,1.19-5.1,3.83-5.1.94,0,2.02.08,3.3.24h.03s.04.01.04.01h.09c.61,0,1.01-.37,1.01-.94v-.18c0-.34-.13-.93-1.01-1.02-1.34-.18-2.61-.27-3.46-.27-3.88,0-6.09,2.64-6.09,7.26v1.92c0,4.63,2.28,7.37,6.09,7.37.96,0,2.35-.14,3.46-.25.67-.1,1.01-.44,1.01-1.03"/>
  <path class="st1" d="M95.42,276.5c-1.38.38-2.87.6-4.26.6-4.29,0-5.72-1.48-5.72-4.55v-.37c0-3,1.86-4.37,6.99-4.37h2.16v-1.03c0-2.95-.82-4.08-3.55-4.08-1.88,0-2.67.09-3.99.24-.34.03-.64-.08-.64-.42v-.17c0-.3.22-.47.64-.51,1.18-.16,2.11-.26,3.99-.26,3.81,0,4.8,2.16,4.8,5.2v9.12c0,.35-.09.52-.41.6M94.58,268.96h-2.16c-4.26,0-5.69.8-5.69,3.23v.37c0,2.27.75,3.43,4.43,3.43,1.39,0,2.87-.22,3.43-.36v-6.67Z"/>
  <path class="st1" d="M95.28,276c-1.38.38-2.8.58-4.13.58-4.32,0-5.17-1.53-5.17-4.03v-.37c0-2.31,1.09-3.85,6.45-3.85h2.68v-1.55c0-2.76-.7-4.59-4.08-4.59-1.73,0-2.54.09-3.7.2l-.33.04c-.11,0-.16-.02-.16-.02.03.02.08.07.08.11v-.18s-.01.05-.03.07c0,0,.04-.06.22-.06,1.1-.14,2.04-.27,3.92-.27,3.04,0,4.28,1.36,4.28,4.68v9.12c0,.1-.02.14-.02.14.02-.02.04-.04.05-.05,0,0,0,.01-.07.01M96.34,275.9v-9.12c0-2.45-.54-5.71-5.31-5.71-1.93,0-2.91.12-4.05.27-1.03.11-1.09.8-1.09,1.02v.16c0,.35.13.55.28.67.2.2.52.31.91.28.03,0,.34-.03.34-.03,1.13-.11,1.94-.2,3.6-.2,2.34,0,3.04.79,3.04,3.55v1.03l.51-.51h-2.15c-5.26,0-7.5,1.44-7.5,4.87v.37c0,3.57,1.86,5.07,6.22,5.07,1.43,0,2.96-.23,4.41-.62.51-.13.78-.49.78-1.1"/>
  <path class="st1" d="M94.59,268.46h-2.17c-3.85,0-6.22.61-6.22,3.72v.38c0,2.87,1.34,3.96,4.95,3.96,1.46,0,2.96-.22,3.54-.38l.41-.1v-7.58h-.51ZM94.46,275.14c-.55.14-1.97.33-3.31.33-3.64,0-3.92-1.17-3.92-2.92v-.38c0-1.82.78-2.69,5.2-2.69h2.17l-.53-.52v6.67l.39-.49Z"/>
  <path class="st1" d="M100.44,277.1h-.29c-.28,0-.49-.26-.49-.54v-20.13c0-.28.21-.53.49-.53h.29c.28,0,.47.25.47.53v20.13c0,.28-.19.54-.47.54"/>
  <path class="st1" d="M100.44,276.58h-.29s.05.01.06.03c0,0,0-.03,0-.05v-20.16s-.03.03-.05.03h.29s-.03-.03-.04-.03c0,0,.01,0,.01.05v20.11s-.01.04-.01.04c0,0,.02-.02.04-.02M101.44,276.56v-20.11c0-.6-.43-1.06-.99-1.06h-.29c-.55,0-1,.46-1,1.06v20.11c0,.58.45,1.06,1,1.06h.29c.55,0,.99-.48.99-1.06"/>
  <path class="st1" d="M121.53,276.5c-1.36.38-2.85.6-4.26.6-4.29,0-5.71-1.48-5.71-4.55v-.37c0-3,1.84-4.37,6.97-4.37h2.17v-1.03c0-2.95-.81-4.08-3.57-4.08-1.84,0-2.63.09-3.98.24-.35.03-.65-.08-.65-.42v-.17c0-.3.22-.47.65-.51,1.17-.16,2.14-.26,3.98-.26,3.82,0,4.82,2.16,4.82,5.2v9.12c0,.35-.09.52-.42.6M120.7,268.96h-2.17c-4.28,0-5.69.8-5.69,3.23v.37c0,2.27.78,3.43,4.43,3.43,1.41,0,2.88-.22,3.43-.36v-6.67Z"/>
  <path class="st1" d="M121.39,276c-1.34.38-2.78.58-4.12.58-4.32,0-5.2-1.53-5.2-4.03v-.37c0-2.31,1.09-3.85,6.46-3.85h2.68v-1.55c0-2.83-.67-4.59-4.09-4.59-1.67,0-2.5.09-3.62.2l-.39.04c-.1,0-.16,0-.16,0,.04,0,.06.06.06.1v-.18s0,.05-.02.06c0,0,.05-.05.21-.05,1.11-.14,2.06-.27,3.93-.27,3.07,0,4.3,1.36,4.3,4.68v9.12c0,.09-.01.13-.01.13,0-.01.03-.03.05-.05,0,0-.03.01-.08.01M122.46,275.9v-9.12c0-2.45-.55-5.71-5.34-5.71-1.92,0-2.91.12-4.04.27-1.01.11-1.09.8-1.09,1.02v.16c0,.35.15.56.26.67.15.13.43.31.91.28.03,0,.44-.04.44-.04,1.1-.11,1.9-.19,3.52-.19,2.37,0,3.07.79,3.07,3.55v1.03l.5-.51h-2.17c-5.24,0-7.48,1.44-7.48,4.87v.37c0,3.57,1.86,5.07,6.22,5.07,1.41,0,2.99-.23,4.4-.62.5-.13.79-.49.79-1.1"/>
  <path class="st1" d="M120.7,268.46h-2.17c-3.95,0-6.23.59-6.23,3.72v.38c0,2.87,1.36,3.96,4.97,3.96,1.46,0,2.99-.22,3.56-.38l.38-.11v-7.57h-.51ZM120.57,275.14c-.55.14-1.99.33-3.3.33-3.66,0-3.92-1.17-3.92-2.92v-.38c0-1.82.77-2.69,5.18-2.69h2.17l-.51-.52v6.67l.38-.49Z"/>
  <path class="st1" d="M135.64,277.1h-.28c-.26,0-.48-.26-.48-.54v-9.78c0-3.53-1.66-3.99-3.54-3.99h-1.21c-1.9,0-3.53.47-3.53,3.99v9.78c0,.28-.19.54-.47.54h-.27c-.31,0-.52-.26-.52-.54v-9.78c0-4.72,2.85-5.2,4.79-5.2h1.21c1.94,0,4.76.48,4.76,5.2v9.78c0,.28-.2.54-.47.54"/>
  <path class="st1" d="M135.65,276.58h-.29s.05.01.05.02v-9.82c0-3.99-2.04-4.53-4.05-4.53h-1.21c-2,0-4.06.54-4.06,4.53v9.78s0,.05-.01.05c.01,0,.03-.03.08-.03h-.28.01s-.01,0-.01-.02v-9.78c0-4.15,2.27-4.69,4.27-4.69h1.21c1.98,0,4.24.54,4.24,4.69v9.78s0,.04,0,.04c0,0,.03-.02.07-.02M136.62,276.56v-9.78c0-5.72-3.96-5.72-5.27-5.72h-1.21c-1.32,0-5.31,0-5.31,5.72v9.78c0,.58.45,1.06,1.04,1.06h.28c.54,0,.98-.48.98-1.06v-9.78c0-3.22,1.36-3.49,3.02-3.49h1.21c1.63,0,3.02.27,3.02,3.49v9.78c0,.58.44,1.06.99,1.06h.29c.55,0,.97-.48.97-1.06"/>
  <path class="st1" d="M149.41,276.57c-1.26.24-3.13.54-4.78.54-3.85,0-5.51-2.81-5.51-6.88v-1.88c0-4.45,1.87-6.76,5.51-6.76,1.11,0,2.81.2,3.94.42v-5.57c0-.28.2-.53.47-.53h.29c.3,0,.49.25.49.53v19.58c0,.35-.09.47-.4.55M148.57,263.07c-1.08-.22-2.83-.36-3.94-.36-3.08,0-4.26,1.91-4.26,5.63v1.88c0,3.64,1.13,5.77,4.26,5.77,1.38,0,2.95-.2,3.94-.38v-12.55Z"/>
  <path class="st1" d="M149.3,276.04c-.82.16-2.88.54-4.67.54-4.12,0-5-3.45-5-6.36v-1.88c0-4.14,1.69-6.24,5-6.24,1.03,0,2.71.18,3.83.42l.63.14v-6.25s-.02,0-.06,0h.29-.04s.02,0,.02.02v19.58c0,.09-.02.1-.02.1.02-.03.06-.08.08-.1,0,0-.01,0-.06.02M150.33,276.02v-19.58c0-.26-.1-.52-.26-.71-.18-.23-.45-.34-.75-.34h-.29c-.55,0-.99.47-.99,1.05v5.57l.63-.51c-1.19-.25-2.93-.45-4.04-.45-2.75,0-6.03,1.26-6.03,7.28v1.88c0,4.71,2.19,7.39,6.03,7.39,1.82,0,3.83-.35,4.86-.56.57-.11.84-.45.84-1.04"/>
  <path class="st1" d="M148.68,262.57c-1.15-.24-2.93-.37-4.03-.37-1.69,0-2.93.52-3.72,1.63-.7,1-1.06,2.48-1.06,4.51v1.9c0,4.22,1.55,6.28,4.78,6.28,1.58,0,3.33-.27,4.01-.38l.44-.07v-13.41l-.41-.07ZM148.49,275.12c-.65.1-2.35.35-3.85.35-2.62,0-3.75-1.57-3.75-5.24v-1.9c0-1.82.27-3.09.87-3.91.58-.81,1.52-1.21,2.88-1.21,1.07,0,2.79.15,3.81.36l-.42-.51v12.55l.45-.5Z"/>
  <path class="st1" d="M175.25,256.6l-5.77,19.11c-.29.96-.95,1.39-1.84,1.39s-1.53-.43-1.86-1.39l-5.75-19.11c-.06-.05-.06-.13-.06-.18,0-.29.2-.52.51-.52h.32c.19,0,.38.17.44.4l5.75,19.03c.14.45.34.56.65.56s.51-.11.64-.56l5.73-19.03c.07-.24.28-.4.46-.4h.32c.3,0,.48.23.48.52,0,.05,0,.13-.02.18"/>
  <path class="st1" d="M174.76,256.44l-5.78,19.12c-.2.7-.62,1.02-1.34,1.02s-1.1-.3-1.34-1.02l-5.76-19.12-.06-.14-.09-.1c.09.09.11.21.11.23v-.03s-.02.02-.03.02h.32s-.06,0-.06,0v.02l5.76,19.05c.18.63.56.92,1.13.92s.97-.3,1.14-.94c0,.01,5.73-19.03,5.73-19.03l.02-.03s-.02,0-.05,0h.32s-.03-.02-.05-.05c0,0,.02.03.02.05v.03s0-.04.04-.12v.04s-.04.07-.04.07ZM175.79,256.42c0-.59-.41-1.04-.99-1.04h-.32c-.42,0-.84.34-.96.77l-5.72,19.05c-.05.15-.09.18-.09.2,0-.01.02-.01.02-.01,0,0-.03.01-.08.01-.05,0-.07-.01-.07-.01,0,0-.02-.04-.07-.2,0,.01-5.77-19.03-5.77-19.03-.11-.45-.51-.77-.93-.77h-.32c-.59,0-1.01.45-1.01,1.04,0,.24.07.42.2.55l-.13-.22,5.75,19.11c.38,1.15,1.18,1.75,2.33,1.75s2-.62,2.33-1.75l5.77-19.11-.06.09c.11-.13.11-.29.11-.42"/>
  <path class="st1" d="M182.08,277.1c-3.87,0-5.8-2.48-5.8-6.77v-1.99c0-4.26,1.93-6.76,5.8-6.76s5.8,2.5,5.8,6.76v1.99c0,4.29-1.94,6.77-5.8,6.77M186.65,268.34c0-3.47-1.27-5.63-4.57-5.63s-4.57,2.17-4.57,5.63v1.99c0,3.48,1.28,5.66,4.57,5.66s4.57-2.18,4.57-5.66v-1.99Z"/>
  <path class="st1" d="M182.07,276.58c-4.37,0-5.28-3.39-5.28-6.25v-1.99c0-2.85.91-6.24,5.28-6.24s5.28,3.39,5.28,6.24v1.99c0,2.85-.92,6.25-5.28,6.25M188.41,270.33v-1.99c0-4.7-2.25-7.29-6.34-7.29s-6.3,2.58-6.3,7.29v1.99c0,4.7,2.23,7.29,6.3,7.29s6.34-2.59,6.34-7.29"/>
  <path class="st1" d="M187.16,268.34c0-4.08-1.7-6.15-5.08-6.15s-5.08,2.06-5.08,6.15v1.99c0,5.1,2.76,6.18,5.08,6.18,1.76,0,3.08-.59,3.94-1.74.78-1.03,1.14-2.48,1.14-4.44v-1.99ZM186.13,270.33c0,1.69-.31,2.99-.94,3.83-.65.88-1.67,1.32-3.11,1.32-2.77,0-4.06-1.63-4.06-5.15v-1.99c0-3.48,1.28-5.12,4.06-5.12s4.05,1.64,4.05,5.12v1.99Z"/>
  <path class="st1" d="M199.6,276.85c-1.17.14-2.5.26-3.41.26-4.03,0-5.58-3.16-5.58-6.86v-1.92c0-3.72,1.55-6.74,5.58-6.74.9,0,2.23.11,3.41.28.44.03.53.21.53.49v.18c0,.31-.18.41-.49.41h-.09c-1.34-.16-2.44-.24-3.37-.24-3.2,0-4.37,2.22-4.37,5.62v1.92c0,3.43,1.17,5.75,4.37,5.75.93,0,2.02-.1,3.37-.24h.09c.3,0,.49.08.49.38v.21c0,.29-.09.45-.53.51"/>
  <path class="st1" d="M199.55,276.34c-.99.11-2.42.24-3.37.24-4.4,0-5.07-3.96-5.07-6.34v-1.92c0-1.86.42-3.39,1.19-4.47.86-1.17,2.16-1.76,3.89-1.76.81,0,2.08.09,3.35.26.11.01.14.02.14.03-.03-.02-.07-.07-.07-.09v.25c.03-.05.07-.12.1-.13,0,0,0,0-.07,0h-.09.08c-1.34-.16-2.45-.24-3.45-.24-3.23,0-4.86,2.06-4.86,6.13v1.92c0,4.16,1.63,6.27,4.86,6.27.93,0,2.03-.09,3.45-.26h-.08.09c.07,0,.09.01.09.01-.05-.01-.09-.08-.12-.13v.27s.03-.09.07-.09c0,0-.03.02-.12.04M200.65,276.34v-.22c0-.41-.26-.9-1.01-.9h-.14c-1.38.18-2.42.26-3.31.26-1.64,0-3.82-.54-3.82-5.24v-1.92c0-3.47,1.21-5.1,3.82-5.1.94,0,2.03.08,3.31.24h.03s.02.01.02.01h.09c.63,0,1.01-.37,1.01-.94v-.18c0-.42-.17-.94-.99-1.02-1.32-.17-2.61-.27-3.47-.27-2.07,0-3.66.74-4.72,2.19-.9,1.22-1.38,2.98-1.38,5.07v1.92c0,4.63,2.29,7.37,6.1,7.37,1,0,2.47-.14,3.47-.25.67-.1.99-.44.99-1.03"/>
  <path class="st1" d="M212.36,276.5c-1.37.38-2.85.6-4.25.6-4.28,0-5.71-1.48-5.71-4.55v-.37c0-3,1.85-4.37,6.98-4.37h2.19v-1.03c0-2.95-.83-4.08-3.58-4.08-1.84,0-2.66.09-3.99.24-.34.03-.66-.08-.66-.42v-.17c0-.3.24-.47.66-.51,1.19-.16,2.15-.26,3.99-.26,3.82,0,4.79,2.16,4.79,5.2v9.12c0,.35-.06.52-.41.6M211.56,268.96h-2.19c-4.24,0-5.7.8-5.7,3.23v.37c0,2.27.78,3.43,4.44,3.43,1.4,0,2.88-.22,3.45-.36v-6.67Z"/>
  <path class="st1" d="M212.23,276c-1.36.38-2.79.58-4.12.58-4.33,0-5.21-1.53-5.21-4.03v-.37c0-2.31,1.1-3.85,6.46-3.85h2.71v-1.55c0-2.76-.7-4.59-4.1-4.59-1.69,0-2.54.09-3.7.2l-.34.04c-.07,0-.13,0-.15-.02.04.02.07.07.08.11v-.18s-.03.05-.04.07c0,0,.04-.06.21-.06,1.12-.14,2.09-.27,3.94-.27,3.05,0,4.28,1.36,4.28,4.68v9.27s.03-.05.07-.07c0,0-.04.01-.09.01M213.3,275.9v-9.12c0-2.45-.54-5.71-5.32-5.71-1.92,0-2.91.12-4.06.27-1.02.11-1.09.8-1.09,1.02v.16c0,.26.09.51.28.67.2.2.53.31.9.28.02,0,.36-.03.36-.03,1.13-.11,1.95-.2,3.6-.2,2.35,0,3.06.79,3.06,3.55v1.03l.52-.51h-2.19c-5.24,0-7.49,1.44-7.49,4.87v.37c0,3.57,1.86,5.07,6.23,5.07,1.42,0,2.92-.22,4.39-.62.79-.19.79-.88.79-1.1"/>
  <path class="st1" d="M211.56,268.46h-2.19c-3.92,0-6.21.59-6.21,3.72v.38c0,2.87,1.36,3.96,4.96,3.96,1.46,0,3-.22,3.56-.38l.4-.1v-7.58h-.51ZM211.42,275.14c-.53.14-2,.33-3.31.33-3.66,0-3.91-1.17-3.91-2.92v-.38c0-1.82.76-2.69,5.17-2.69h2.19l-.53-.52v6.67l.38-.49Z"/>
  <path class="st1" d="M222.38,277.02c-.37.03-1.29.09-2.16.09-2.48,0-3.85-.84-3.85-3.63v-14.92c0-.28.22-.54.53-.54h.2c.31,0,.51.26.51.54v3.18h4.76c.3,0,.53.16.53.45v.26c0,.28-.23.43-.53.43h-4.76v10.6c0,2.16.72,2.51,2.6,2.51h2.16c.41,0,.56.13.56.38v.2c0,.23-.07.38-.56.46"/>
  <path class="st1" d="M222.32,276.51c-.33.02-1.26.07-2.1.07-2.42,0-3.32-.83-3.32-3.1v-14.92s0-.02.01-.03h-.01s.2.01.2.01h-.01s.01,0,.01.02v3.7h5.34s-.05-.03-.05-.06h0v.26s.03-.09.06-.1c0,0-.03,0-.08,0h-5.27v11.12c0,2.56,1.05,3.04,3.12,3.04h2.15c.13,0,.18.02.18.02-.07-.02-.13-.13-.13-.18v.23s.04-.1.07-.11c0,0-.05.03-.18.05M223.47,276.56v-.2c0-.26-.11-.89-1.1-.89h-2.15c-1.66,0-2.09-.2-2.09-2v-10.6l-.51.52h4.75c.61,0,1.05-.38,1.05-.94v-.24c0-.58-.44-.99-1.05-.99h-4.75l.51.52v-3.18c0-.59-.47-1.05-1.03-1.05h-.2c-.59,0-1.06.47-1.06,1.05v14.92c0,2.86,1.36,4.14,4.38,4.14.82,0,1.78-.03,2.21-.09.28-.03,1.05-.14,1.05-.97"/>
  <path class="st1" d="M226.41,258.91h-.2c-.28,0-.52-.18-.52-.51v-2.1c0-.3.24-.55.52-.55h.2c.26,0,.52.25.52.55v2.1c0,.32-.26.51-.52.51M226.41,277.1h-.2c-.28,0-.52-.26-.52-.54v-14.3c0-.28.24-.53.52-.53h.2c.26,0,.52.25.52.53v14.3c0,.28-.26.54-.52.54"/>
  <path class="st1" d="M226.41,258.4h-.2s-.03-.01-.03-.01c0,.01.03.02.03.03h0v-2.11s.02-.03.02-.05c0,0,0,.01-.02.01h.2-.03s.04.02.04.03v2.09-.02s0,.01,0,.01M227.46,258.4v-2.09c0-.57-.5-1.07-1.05-1.07h-.2c-.55,0-1.03.49-1.03,1.07v2.09c0,.59.44,1.03,1.03,1.03h.2c.58,0,1.05-.45,1.05-1.03"/>
  <path class="st1" d="M226.41,276.58h-.2.03s-.03,0-.03-.02v-14.29h.02s.18-.01.18-.01h-.03s.04.01.04.02h0s0,14.28,0,14.28c0,0,0,.02-.04.02h.03ZM227.46,276.56v-14.29c0-.57-.5-1.05-1.05-1.05h-.2c-.55,0-1.03.47-1.03,1.05v14.29c0,.57.48,1.06,1.03,1.06h.2c.55,0,1.05-.49,1.05-1.06"/>
  <path class="st1" d="M236.17,277.1c-3.87,0-5.78-2.48-5.78-6.77v-1.99c0-4.26,1.92-6.76,5.78-6.76s5.79,2.5,5.79,6.76v1.99c0,4.29-1.96,6.77-5.79,6.77M240.72,268.34c0-3.47-1.28-5.63-4.55-5.63s-4.59,2.17-4.59,5.63v1.99c0,3.48,1.29,5.66,4.59,5.66s4.55-2.18,4.55-5.66v-1.99Z"/>
  <path class="st1" d="M236.17,276.58c-3.49,0-5.26-2.09-5.26-6.25v-1.99c0-2.85.91-6.24,5.26-6.24s5.28,3.39,5.28,6.24v1.99c0,2.85-.93,6.25-5.28,6.25M242.48,270.33v-1.99c0-4.7-2.22-7.29-6.31-7.29s-6.29,2.58-6.29,7.29v1.99c0,4.7,2.22,7.29,6.29,7.29s6.31-2.59,6.31-7.29"/>
  <path class="st1" d="M241.24,268.34c0-4.08-1.7-6.15-5.06-6.15s-5.11,2.06-5.11,6.15v1.99c0,4.1,1.73,6.18,5.11,6.18,1.75,0,3.06-.59,3.92-1.74.78-1.03,1.14-2.48,1.14-4.44v-1.99ZM240.22,270.33c0,1.69-.32,2.99-.96,3.83-.63.88-1.67,1.32-3.08,1.32-2.77,0-4.08-1.63-4.08-5.15v-1.99c0-3.48,1.31-5.12,4.08-5.12s4.04,1.64,4.04,5.12v1.99Z"/>
  <path class="st1" d="M255.23,277.1h-.28c-.27,0-.5-.26-.5-.54v-9.78c0-3.53-1.62-3.99-3.5-3.99h-1.23c-1.88,0-3.52.47-3.52,3.99v9.78c0,.28-.2.54-.47.54h-.29c-.27,0-.47-.26-.47-.54v-9.78c0-4.72,2.84-5.2,4.76-5.2h1.23c1.94,0,4.75.48,4.75,5.2v9.78c0,.28-.18.54-.47.54"/>
  <path class="st1" d="M255.23,276.58h-.28s.05.01.06.02c-.01,0-.01-.02-.01-.04v-9.78c0-3.99-2.05-4.53-4.04-4.53h-1.23c-.93,0-1.99.1-2.8.8-.84.73-1.23,1.95-1.23,3.72v9.78s-.01.03-.01.03c0,0,.01-.01.05-.01h-.29s.06.01.06.03c0,0-.02-.03-.02-.05v-9.78c0-4.15,2.28-4.69,4.24-4.69h1.23c.8,0,1.94.07,2.81.73.96.72,1.44,2.06,1.44,3.96v9.78s0,.05,0,.05c0-.01.03-.03.04-.03M256.22,276.56v-9.78c0-2.25-.63-3.87-1.85-4.78-1.11-.84-2.5-.94-3.43-.94h-1.23c-3.49,0-5.28,1.93-5.28,5.72v9.78c0,.58.43,1.06.99,1.06h.29c.55,0,1.02-.48,1.02-1.06v-9.78c0-1.46.27-2.42.86-2.95.45-.37,1.08-.54,2.12-.54h1.23c1.63,0,3,.27,3,3.49v9.78c0,.58.43,1.06,1,1.06h.28c.58,0,1-.47,1-1.06"/>
  <path class="st1" d="M268.52,276.5c-1.35.38-2.84.6-4.26.6-4.26,0-5.69-1.48-5.69-4.55v-.37c0-3,1.81-4.37,6.98-4.37h2.16v-1.03c0-2.95-.82-4.08-3.56-4.08-1.9,0-2.67.09-3.99.24-.35.03-.66-.08-.66-.42v-.17c0-.3.23-.47.66-.51,1.17-.16,2.09-.26,3.99-.26,3.81,0,4.79,2.16,4.79,5.2v9.12c0,.35-.1.52-.42.6M267.71,268.96h-2.16c-4.28,0-5.7.8-5.7,3.23v.37c0,2.27.76,3.43,4.41,3.43,1.42,0,2.88-.22,3.45-.36v-6.67Z"/>
  <path class="st1" d="M268.39,276c-1.33.38-2.79.58-4.12.58-4.32,0-5.17-1.53-5.17-4.03v-.37c0-2.31,1.09-3.85,6.46-3.85h2.69v-1.55c0-2.76-.72-4.59-4.09-4.59-1.71,0-2.54.09-3.66.2l-.38.04c-.06,0-.14,0-.14-.02.02.02.07.07.07.1v-.16s-.04.05-.05.07c0-.01.06-.06.24-.06,1.15-.16,2.06-.27,3.93-.27,3.04,0,4.28,1.36,4.28,4.68v9.24s.01-.02.03-.03c0,0-.01.01-.07.01M269.47,275.9v-9.12c0-2.45-.56-5.71-5.32-5.71-1.93,0-2.92.12-4.05.27-1.03.11-1.11.8-1.11,1.02v.16c0,.26.1.51.28.66.22.21.55.32.92.28.04,0,.38-.04.38-.04,1.13-.11,1.92-.19,3.58-.19,2.37,0,3.06.79,3.06,3.55v1.03l.5-.51h-2.16c-5.25,0-7.49,1.44-7.49,4.87v.37c0,3.57,1.85,5.07,6.2,5.07,1.42,0,2.98-.23,4.4-.62.35-.08.8-.36.8-1.1"/>
  <path class="st1" d="M267.72,268.45h-2.17c-3.94,0-6.21.6-6.21,3.72v.36c0,2.89,1.34,3.97,4.94,3.97,1.51,0,2.98-.23,3.56-.37l.4-.09v-7.59h-.51ZM267.58,275.13c-.56.15-1.96.34-3.31.34-3.62,0-3.91-1.17-3.91-2.93v-.36c0-1.83.78-2.7,5.18-2.7h2.17l-.5-.52v6.67l.36-.5Z"/>
  <path class="st1" d="M273.58,277.1h-.3c-.27,0-.49-.26-.49-.54v-20.13c0-.28.22-.53.49-.53h.3c.24,0,.47.25.47.53v20.13c0,.28-.22.54-.47.54"/>
  <path class="st1" d="M273.58,276.58h-.31s.04.01.04.02c0,0-.01-.02-.01-.04v-20.11s.01-.05.01-.05c0,0-.01.03-.04.03h.31s-.07-.03-.07-.03c0,0,.01.03.01.05v20.11s-.01.04-.03.05c.02,0,.03-.03.09-.03M274.55,276.56v-20.11c0-.59-.45-1.06-.97-1.06h-.31c-.56,0-1,.47-1,1.06v20.11c0,.58.44,1.06,1,1.06h.31c.53,0,.97-.48.97-1.06"/>
  <path class="st1" d="M11.29,314.72h-7.29c-2.15,0-3.43-.8-3.43-3.16v-14.71c0-2.37,1.28-3.15,3.43-3.15h7.29c.32,0,.53.19.53.47v.22c0,.29-.22.47-.53.47h-7.29c-1.36,0-2.18.26-2.18,2v6.24h9.47c.32,0,.53.16.53.45v.29c0,.28-.22.47-.53.47H1.83v7.26c0,1.73.82,2.01,2.18,2.01h7.29c.32,0,.53.16.53.43v.24c0,.29-.22.48-.53.48"/>
  <path class="st1" d="M11.29,314.2h-7.28c-2.11,0-2.91-.74-2.91-2.62v-14.72c0-1.9.8-2.63,2.91-2.63h7.28s.05,0,.05,0c0,0-.03-.03-.03-.05v.22s.03-.07.05-.07h-7.35c-1.41,0-2.71.32-2.71,2.53v6.77h9.99s.07,0,.07,0c-.03,0-.05-.05-.05-.09v.29s.03-.05.03-.05H1.31v7.79c0,2.21,1.3,2.51,2.71,2.51h7.28s.07.02.07.02c-.03-.02-.05-.06-.05-.09v.23h0s.03-.04.03-.04h-.05ZM12.34,314.24v-.23c0-.55-.43-.95-1.05-.95h-7.28c-1.26,0-1.68-.22-1.68-1.48v-7.27l-.51.52h9.47c.6,0,1.05-.43,1.05-.99v-.29c0-.56-.43-.96-1.05-.96H1.82l.51.51v-6.23c0-1.28.41-1.48,1.68-1.48h7.28c.62,0,1.05-.42,1.05-.97v-.22c0-.56-.45-.99-1.05-.99h-7.28c-2.66,0-3.97,1.19-3.97,3.66v14.72c0,2.46,1.3,3.65,3.97,3.65h7.28c.62,0,1.05-.41,1.05-.99"/>
  <path class="st1" d="M25.93,314.35c-1.25.24-3.13.54-4.78.54-3.9,0-5.52-2.79-5.52-6.88v-1.86c0-4.48,1.88-6.75,5.52-6.75,1.13,0,2.83.16,3.95.4v-5.56c0-.29.2-.53.47-.53h.3c.28,0,.49.24.49.53v19.59c0,.36-.1.43-.44.53M25.11,300.87c-1.07-.25-2.82-.38-3.95-.38-3.08,0-4.26,1.93-4.26,5.66v1.86c0,3.64,1.11,5.79,4.26,5.79,1.39,0,2.95-.21,3.95-.38v-12.56Z"/>
  <path class="st1" d="M25.84,313.86c-1.03.19-2.99.51-4.68.51-3.31,0-5.01-2.15-5.01-6.36v-1.86c0-4.21,1.63-6.25,5.01-6.25,1.15,0,2.79.18,3.83.4l.63.14v-6.24s-.01.02-.02.02h.3s-.05-.02-.05-.02v19.72c.02-.05.05-.09.07-.11,0,0-.02.01-.07.04M26.88,313.82v-19.59c0-.57-.45-1.04-.99-1.04h-.3c-.56,0-.99.47-.99,1.04v5.57l.61-.5c-1.1-.24-2.85-.42-4.06-.42-2.75,0-6.05,1.25-6.05,7.28v1.86c0,4.78,2.15,7.41,6.05,7.41,1.69,0,3.58-.31,4.89-.55.45-.13.84-.36.84-1.05"/>
  <path class="st1" d="M25.23,300.36c-1.1-.26-2.87-.38-4.07-.38-4.29,0-4.78,3.52-4.78,6.17v1.85c0,4.26,1.58,6.3,4.78,6.3,1.6,0,3.35-.26,4.02-.37l.44-.07v-13.41l-.39-.09ZM25.03,312.91c-.67.1-2.34.35-3.87.35-2.62,0-3.75-1.57-3.75-5.26v-1.85c0-3.66,1.09-5.15,3.75-5.15,1.11,0,2.82.14,3.83.36l-.4-.49v12.56l.43-.51Z"/>
  <path class="st1" d="M36.53,314.88h-.55c-1.92,0-5.11-1.01-5.11-5.69v-9.13c0-.28.2-.54.47-.54h.3c.28,0,.47.26.47.54v9.13c0,3.62,1.96,4.53,3.87,4.53h.55c1.91,0,3.86-.91,3.86-4.53v-9.13c0-.28.22-.54.49-.54h.28c.28,0,.5.26.5.54v9.13c0,4.68-3.22,5.69-5.13,5.69"/>
  <path class="st1" d="M36.52,314.37h-.55c-1.07,0-4.59-.37-4.59-5.18v-9.12s.02-.04.02-.04c0,0-.03.02-.07.02h.3s-.06-.02-.06-.02c0,0,.01.02.01.04v9.12c0,4.41,2.75,5.05,4.39,5.05h.55c1.64,0,4.39-.65,4.39-5.05v-9.12s.01-.04.01-.04c0,.01-.05.02-.05.02h.28s-.03,0-.03,0c0,0,0,.01,0,.03v9.12c0,4.81-3.54,5.18-4.61,5.18M42.16,309.19v-9.12c0-.59-.47-1.06-1.01-1.06h-.28c-.55,0-1.01.5-1.01,1.06v9.12c0,2.72-1.09,4.03-3.35,4.03h-.55c-2.24,0-3.35-1.31-3.35-4.03v-9.12c0-.6-.43-1.06-.99-1.06h-.3c-.54,0-.97.46-.97,1.06v9.12c0,4.59,2.89,6.21,5.61,6.21h.55c2.61,0,5.64-1.62,5.64-6.21"/>
  <path class="st1" d="M54.73,314.64c-1.19.14-2.51.24-3.41.24-4.04,0-5.62-3.14-5.62-6.85v-1.88c0-3.78,1.58-6.77,5.62-6.77.9,0,2.22.14,3.41.26.42.03.53.21.53.51v.21c0,.26-.19.36-.46.36h-.12c-1.36-.18-2.44-.24-3.36-.24-3.23,0-4.35,2.23-4.35,5.67v1.88c0,3.42,1.13,5.76,4.35,5.76.92,0,2-.11,3.36-.26h.12c.27,0,.46.13.46.4v.22c0,.28-.11.43-.53.49"/>
  <path class="st1" d="M54.67,314.13c-1.26.14-2.55.24-3.36.24-4.59,0-5.08-4.43-5.08-6.34v-1.88c0-2.35.65-6.25,5.08-6.25.72,0,1.82.07,3.36.25.11,0,.14.01.14.01-.02,0-.05-.05-.05-.07v.28c0-.06.05-.14.1-.15h-.18.07c-1.23-.18-2.37-.24-3.43-.24-3.21,0-4.86,2.06-4.86,6.17v1.88c0,4.15,1.65,6.26,4.86,6.26.86,0,1.87-.07,3.43-.26h-.07s.13,0,.13,0h.03s-.07-.07-.07-.12v.26s.03-.08.05-.1c0,0-.04.03-.14.05M55.77,314.14v-.22c0-.55-.39-.93-.97-.93h-.2c-1.49.2-2.48.27-3.29.27-1.65,0-3.83-.53-3.83-5.23v-1.88c0-3.56,1.19-5.15,3.83-5.15,1.04,0,2.1.08,3.29.25h.2c.58,0,.97-.36.97-.88v-.22c0-.36-.14-.94-.99-1.04-1.61-.18-2.7-.25-3.47-.25-3.87,0-6.12,2.64-6.12,7.29v1.88c0,4.62,2.29,7.37,6.12,7.37.88,0,2.19-.1,3.47-.25.67-.11.99-.46.99-1.02"/>
  <path class="st1" d="M68.57,314.3c-1.32.37-2.82.59-4.22.59-4.31,0-5.73-1.47-5.73-4.55v-.39c0-2.93,1.84-4.34,6.98-4.34h2.18v-1.02c0-2.94-.84-4.1-3.56-4.1-1.87,0-2.67.11-4.03.24-.34.05-.63-.1-.63-.4v-.18c0-.3.2-.47.63-.51,1.2-.13,2.16-.27,4.03-.27,3.79,0,4.78,2.16,4.78,5.22v9.11c0,.34-.07.49-.44.6M67.78,306.74h-2.18c-4.28,0-5.67.82-5.67,3.2v.39c0,2.27.74,3.45,4.42,3.45,1.4,0,2.85-.22,3.43-.34v-6.7Z"/>
  <path class="st1" d="M68.45,313.79c-1.33.37-2.78.59-4.11.59-4.34,0-5.21-1.54-5.21-4.03v-.39c0-2.29,1.13-3.82,6.46-3.82h2.71v-1.53c0-1.69-.26-2.76-.88-3.5-.65-.76-1.65-1.13-3.2-1.13s-2.45.08-3.45.18l-.63.07c-.07,0-.1,0-.14,0,.05.01.07.06.07.1v-.17h0s-.02.03-.03.04c0,0,.05-.02.22-.04,0,0,.32-.03.32-.03,1.06-.13,1.97-.22,3.65-.22,3.03,0,4.27,1.37,4.27,4.7v9.09c0,.1-.02.14-.02.14.02-.02.04-.05.05-.05,0,0-.01.01-.08.02M69.52,313.69v-9.09c0-2.46-.55-5.73-5.3-5.73-1.74,0-2.72.1-3.76.22l-.32.04c-.99.09-1.09.75-1.09,1.03v.17c0,.26.11.52.28.68.22.2.56.3.93.26,0,0,.62-.07.62-.07,1-.1,1.79-.18,3.34-.18,1.21,0,1.97.25,2.39.75.44.53.64,1.43.64,2.84v1.02l.53-.53h-2.19c-5.25,0-7.48,1.45-7.48,4.86v.39c0,3.55,1.85,5.07,6.23,5.07,1.41,0,2.98-.22,4.39-.62.71-.2.79-.73.79-1.1"/>
  <path class="st1" d="M67.78,306.22h-2.18c-3.93,0-6.19.61-6.19,3.72v.4c0,2.89,1.32,3.95,4.93,3.95,1.46,0,2.96-.22,3.55-.35l.41-.09v-7.63h-.52ZM67.65,312.94c-.46.09-1.88.32-3.31.32-3.65,0-3.91-1.16-3.91-2.92v-.4c0-1.82.77-2.67,5.17-2.67h2.18l-.53-.53v6.69l.39-.49Z"/>
  <path class="st1" d="M79.71,314.81c-.38.04-1.3.07-2.16.07-2.48,0-3.89-.82-3.89-3.63v-14.9c0-.29.24-.52.57-.52h.22c.27,0,.48.23.48.52v3.17h4.78c.28,0,.51.15.51.47v.23c0,.28-.22.47-.51.47h-4.78v10.57c0,2.19.71,2.54,2.62,2.54h2.16c.42,0,.57.11.57.38v.18c0,.23-.07.39-.57.47"/>
  <path class="st1" d="M79.66,314.3c-.32.05-1.2.07-2.1.07-2.48,0-3.37-.82-3.37-3.1v-14.92s0-.01.03-.01h.22s-.04-.01-.04-.02v3.72h5.3s.06,0,.06,0c-.03,0-.06-.05-.06-.07h0v.24s.01-.03.03-.05c0,0-.02.02-.03.02h-5.3v11.09c0,2.56,1.06,3.03,3.15,3.03h2.15c.13,0,.19.03.19.03-.06-.03-.1-.11-.11-.18v.22s.05-.11.07-.12c0,0-.04.01-.2.05M80.82,314.35v-.18c0-.42-.22-.63-.36-.72-.2-.13-.42-.19-.75-.19h-2.15c-1.71,0-2.1-.18-2.1-1.99v-10.59l-.53.52h4.78c.59,0,1.05-.41,1.05-.99v-.23c0-.58-.46-.99-1.05-.99h-4.78l.53.53v-3.17c0-.59-.45-1.05-1.01-1.05h-.22c-.61,0-1.08.45-1.08,1.05v14.92c0,3.66,2.35,4.14,4.41,4.14.79,0,1.79-.03,2.21-.08.69-.11,1.05-.43,1.05-.98"/>
  <path class="st1" d="M84.79,296.72h-.15c-.32,0-.54-.22-.54-.55v-2.07c0-.28.22-.55.54-.55h.15c.3,0,.55.26.55.55v2.07c0,.33-.25.55-.55.55M84.79,314.88h-.15c-.32,0-.54-.24-.54-.53v-14.28c0-.28.22-.54.54-.54h.15c.3,0,.55.26.55.54v14.28c0,.29-.25.53-.55.53"/>
  <path class="st1" d="M84.79,296.21h-.16s0,0,0-.04v-2.07s0-.02.03-.02h.14s.04.02.04.02v2.07s0,.04-.04.04M85.86,296.17v-2.07c0-.58-.48-1.07-1.07-1.07h-.14c-.57,0-1.05.49-1.05,1.07v2.07c0,.62.46,1.07,1.05,1.07h.14c.6,0,1.07-.48,1.07-1.07"/>
  <path class="st1" d="M84.79,314.38h-.14s-.03-.03-.03-.03v-14.28s0-.03.03-.03h.14s.04.02.04.03h0s0,14.28,0,14.28c0,.01,0,.03-.04.03M85.86,314.35v-14.28c0-.57-.48-1.07-1.07-1.07h-.14c-.59,0-1.05.49-1.05,1.07v14.28c0,.59.46,1.06,1.05,1.06h.14c.59,0,1.07-.48,1.07-1.06"/>
  <path class="st1" d="M95.69,314.88c-3.89,0-5.83-2.47-5.83-6.77v-1.96c0-4.28,1.94-6.78,5.83-6.78s5.79,2.5,5.79,6.78v1.96c0,4.3-1.93,6.77-5.79,6.77M100.24,306.15c0-3.49-1.26-5.66-4.55-5.66s-4.59,2.17-4.59,5.66v1.96c0,3.48,1.27,5.67,4.59,5.67s4.55-2.19,4.55-5.67v-1.96Z"/>
  <path class="st1" d="M95.68,314.36c-3.52,0-5.32-2.09-5.32-6.25v-1.96c0-2.85.94-6.24,5.32-6.24s5.3,3.39,5.3,6.24v1.96c0,4.16-1.77,6.25-5.3,6.25M102,308.11v-1.96c0-4.7-2.23-7.28-6.32-7.28s-6.32,2.58-6.32,7.28v1.96c0,4.7,2.23,7.29,6.32,7.29s6.32-2.59,6.32-7.29"/>
  <path class="st1" d="M100.78,306.15c0-4.1-1.73-6.18-5.09-6.18s-5.09,2.08-5.09,6.18v1.96c0,4.11,1.71,6.19,5.09,6.19,1.76,0,3.08-.59,3.94-1.75.76-1.04,1.15-2.48,1.15-4.45v-1.96ZM99.74,308.11c0,1.7-.32,2.99-.94,3.84-.67.88-1.67,1.32-3.1,1.32-2.78,0-4.07-1.63-4.07-5.15v-1.96c0-3.51,1.3-5.14,4.07-5.14s4.04,1.63,4.04,5.14v1.96Z"/>
  <path class="st1" d="M115.88,314.88h-.3c-.27,0-.47-.24-.47-.53v-9.75c0-3.58-1.63-4.05-3.54-4.05h-1.2c-1.9,0-3.52.47-3.52,4.05v9.75c0,.29-.2.53-.49.53h-.3c-.28,0-.47-.24-.47-.53v-9.75c0-4.76,2.83-5.22,4.78-5.22h1.2c1.96,0,4.79.47,4.79,5.22v9.75c0,.29-.2.53-.48.53"/>
  <path class="st1" d="M115.88,314.38h-.3s.05,0,.05,0c0,0,0,0,0-.03v-9.76c0-4.01-2.05-4.55-4.06-4.55h-1.2c-2,0-4.04.54-4.04,4.55v9.76s-.02.04-.02.04c.02,0,.04-.01.05-.01h-.29s.05,0,.05.01v-9.8c0-4.13,2.15-4.68,4.25-4.68h1.2c.81,0,1.96.07,2.82.72.96.71,1.47,2.05,1.47,3.97v9.76s-.02.03-.02.03c.02,0,.03,0,.04,0M116.88,314.35v-9.76c0-2.26-.62-3.88-1.86-4.8-1.12-.83-2.5-.92-3.45-.92h-1.2c-1.3,0-5.3,0-5.3,5.72v9.76c0,.59.46,1.06,1,1.06h.29c.57,0,1.01-.47,1.01-1.06v-9.76c0-3.26,1.36-3.52,3.01-3.52h1.2c1.67,0,3.02.26,3.02,3.52v9.76c0,.59.45,1.06.99,1.06h.3c.57,0,1-.47,1-1.06"/>
  <path class="st1" d="M138.71,314.3c-1.32.37-2.82.59-4.23.59-4.3,0-5.73-1.47-5.73-4.55v-.39c0-2.93,1.84-4.34,6.99-4.34h2.17v-1.02c0-2.94-.82-4.1-3.55-4.1-1.88,0-2.7.11-4.04.24-.33.05-.63-.1-.63-.4v-.18c0-.3.23-.47.63-.51,1.19-.13,2.16-.27,4.04-.27,3.78,0,4.77,2.16,4.77,5.22v9.11c0,.34-.07.49-.42.6M137.91,306.74h-2.17c-4.28,0-5.71.82-5.71,3.2v.39c0,2.27.76,3.45,4.45,3.45,1.41,0,2.87-.22,3.43-.34v-6.7Z"/>
  <path class="st1" d="M138.58,313.79c-1.34.37-2.77.59-4.1.59-4.35,0-5.22-1.54-5.22-4.03v-.39c0-2.29,1.1-3.82,6.48-3.82h2.71v-1.53c0-1.69-.29-2.76-.88-3.5-.65-.76-1.65-1.13-3.19-1.13s-2.5.08-3.48.18l-.62.07c-.07,0-.1,0-.1,0,.01.01.03.06.03.1v-.17h0s-.01.03-.02.04c0,0,.04-.02.2-.04l.32-.03c1.07-.13,1.98-.22,3.68-.22,3.02,0,4.24,1.37,4.24,4.7v9.09c0,.11,0,.15,0,.15,0-.02.03-.06.06-.07,0,0-.03,0-.09.02M139.65,313.69v-9.09c0-2.46-.55-5.73-5.28-5.73-1.75,0-2.74.1-3.79.22l-.32.04c-1.01.09-1.09.81-1.09,1.03v.17c0,.26.09.52.3.68.22.2.56.3.9.26,0,0,.61-.07.61-.07,1.01-.1,1.82-.18,3.38-.18,1.21,0,1.96.25,2.4.76.42.53.63,1.42.63,2.83v1.02l.51-.53h-2.18c-5.27,0-7.51,1.45-7.51,4.86v.39c0,3.55,1.86,5.07,6.25,5.07,1.41,0,2.97-.22,4.37-.62.72-.19.8-.69.8-1.1"/>
  <path class="st1" d="M137.91,306.22h-2.17c-3.86,0-6.24.63-6.24,3.72v.4c0,2.89,1.36,3.95,4.97,3.95,1.45,0,2.96-.22,3.57-.35l.4-.09v-7.63h-.53ZM137.78,312.94c-.59.13-2.02.32-3.31.32-3.66,0-3.93-1.16-3.93-2.92v-.4c0-1.82.78-2.67,5.2-2.67h2.17l-.51-.53v6.69l.38-.49Z"/>
  <path class="st1" d="M153.96,314.88h-.28c-.28,0-.5-.24-.5-.53v-9.75c0-3.58-1.62-4.05-3.55-4.05h-1.19c-1.86,0-3.52.47-3.52,4.05v9.75c0,.29-.22.53-.48.53h-.28c-.28,0-.49-.24-.49-.53v-9.75c0-4.76,2.85-5.22,4.78-5.22h1.19c1.98,0,4.82.47,4.82,5.22v9.75c0,.29-.2.53-.49.53"/>
  <path class="st1" d="M153.96,314.38h-.28.05s-.03-.01-.03-.03v-9.76c0-4.01-2.05-4.55-4.07-4.55h-1.19c-2,0-4.06.54-4.06,4.55v9.76s0,.04-.02.04c.02,0,.04-.01.07-.01h-.28s.02,0,.03,0c-.01,0-.01,0-.01-.03v-9.76c0-4.13,2.17-4.68,4.27-4.68h1.19c2.13,0,4.3.55,4.3,4.68v9.76s0,.03,0,.03c0,0,.03,0,.04,0M154.96,314.35v-9.76c0-5.72-3.99-5.72-5.33-5.72h-1.19c-1.3,0-5.29,0-5.29,5.72v9.76c0,.59.45,1.06,1,1.06h.28c.55,0,.98-.47.98-1.06v-9.76c0-3.26,1.44-3.52,3.03-3.52h1.19c1.65,0,3.04.26,3.04,3.52v9.76c0,.59.44,1.06,1.01,1.06h.28c.57,0,1-.47,1-1.06"/>
  <path class="st1" d="M168.82,314.35c-1.25.24-3.15.54-4.75.54-3.9,0-5.53-2.79-5.53-6.88v-1.86c0-4.48,1.86-6.75,5.53-6.75,1.11,0,2.76.16,3.91.4v-5.56c0-.29.2-.53.5-.53h.28c.28,0,.47.24.47.53v19.59c0,.36-.09.43-.41.53M167.99,300.87c-1.08-.25-2.8-.38-3.91-.38-3.12,0-4.3,1.93-4.3,5.66v1.86c0,3.64,1.14,5.79,4.3,5.79,1.36,0,2.91-.21,3.91-.38v-12.56Z"/>
  <path class="st1" d="M168.71,313.86c-1.01.19-2.97.51-4.63.51-4.16,0-5.03-3.46-5.03-6.36v-1.86c0-4.21,1.64-6.25,5.03-6.25,1.11,0,2.75.18,3.79.4l.62.14v-6.24s0,.02,0,.02h.28s-.05-.02-.05-.02v19.72s.05-.09.07-.11c0,0-.01.01-.11.05h.04ZM169.75,313.82v-19.59c0-.59-.45-1.04-.99-1.04h-.28c-.56,0-1.01.45-1.01,1.04v5.57l.63-.5c-1.13-.24-2.83-.42-4.02-.42-2.76,0-6.07,1.25-6.07,7.28v1.86c0,4.78,2.16,7.41,6.07,7.41,1.74,0,3.78-.35,4.84-.55h.03s.01-.02.01-.02c.4-.11.78-.34.78-1.03"/>
  <path class="st1" d="M168.1,300.36c-1.09-.26-2.85-.38-4.03-.38-4.32,0-4.82,3.52-4.82,6.17v1.85c0,4.26,1.59,6.3,4.82,6.3,1.6,0,3.33-.26,3.99-.37l.43-.07v-13.41l-.4-.09ZM167.9,312.91c-.64.1-2.32.35-3.83.35-2.65,0-3.78-1.57-3.78-5.26v-1.85c0-3.66,1.09-5.15,3.78-5.15,1.09,0,2.79.14,3.8.36l-.4-.49v12.56l.43-.51Z"/>
  <path class="st1" d="M195.09,294.85h-6.04v19.34c0,.26-.22.52-.48.52h-.29c-.3,0-.48-.26-.48-.52v-19.34h-6.07c-.3,0-.55-.16-.55-.44v-.25c0-.27.25-.47.55-.47h13.35c.34,0,.55.2.55.47v.25c0,.28-.2.44-.55.44"/>
  <path class="st1" d="M195.1,294.33h-6.55v19.87s-.03.01-.03.02c0,0,.04-.02.07-.02h-.3s.03.01.05.02c-.03,0-.03-.02-.03-.02v-19.87h-6.66s.06.06.06.1v-.26s-.03.06-.03.06c0,0,.03-.01.05-.01h13.35s.05.01.07.01c-.03,0-.04-.04-.04-.06v.26s.04-.09.07-.1h-.1ZM196.16,294.43v-.26c0-.55-.45-.99-1.06-.99h-13.35c-.61,0-1.07.44-1.07.99v.26c0,.55.45.94,1.07.94h6.07l-.51-.51v19.34c0,.57.45,1.03.99,1.03h.3c.53,0,.98-.47.98-1.03v-19.34l-.51.51h6.05c.63,0,1.06-.38,1.06-.94"/>
  <path class="st1" d="M202.76,300.49h-.86c-1.44,0-2.24.14-3.1.69v13.17c0,.3-.19.54-.46.54h-.26c-.3,0-.48-.24-.48-.54v-13.39c0-.25.15-.4.26-.47,1.4-.85,2.54-1.11,4.07-1.11,1.25,0,1.43.14,1.43.52v.12c0,.36-.2.47-.59.47"/>
  <path class="st1" d="M202.77,299.98h-.86c-1.38,0-2.34.1-3.36.76l-.26.14v13.46s0,.05-.01.05c.01-.01.07-.02.07-.02h-.27s.04.02.04.04v-13.49.03c1.23-.78,2.26-1.05,3.81-1.05.76,0,.96.05,1,.08-.03-.01-.07-.08-.07-.12v.19s.05-.08.1-.1c-.03,0-.05.03-.18.03M203.89,300.02v-.11c0-1.04-1.09-1.04-1.96-1.04-1.73,0-2.96.34-4.33,1.19-.21.1-.51.43-.51.9v13.39c0,.61.44,1.07.99,1.07h.27c.54,0,.98-.48.98-1.07v-13.17l-.24.43c.75-.47,1.4-.6,2.82-.6h.86c.96,0,1.12-.61,1.12-.99"/>
  <path class="st1" d="M215.58,314.3c-1.36.37-2.83.59-4.25.59-4.29,0-5.71-1.47-5.71-4.55v-.39c0-2.93,1.86-4.34,6.98-4.34h2.19v-1.02c0-2.94-.82-4.1-3.57-4.1-1.86,0-2.68.11-4.03.24-.35.05-.65-.1-.65-.4v-.18c0-.3.24-.47.65-.51,1.21-.13,2.17-.27,4.03-.27,3.81,0,4.8,2.16,4.8,5.22v9.11c0,.34-.08.49-.44.6M214.78,306.74h-2.19c-4.26,0-5.7.82-5.7,3.2v.39c0,2.27.76,3.45,4.44,3.45,1.42,0,2.89-.22,3.45-.34v-6.7Z"/>
  <path class="st1" d="M215.45,313.79c-1.38.38-2.79.59-4.13.59-4.32,0-5.19-1.54-5.19-4.03v-.39c0-2.29,1.1-3.82,6.46-3.82h2.68v-1.53c0-1.69-.26-2.76-.86-3.5-.64-.76-1.67-1.13-3.2-1.13s-2.41.08-3.44.18l-.64.07c-.09,0-.14,0-.14,0,.03,0,.05.06.05.1v-.17h0s-.01.03-.03.04c0,0,.05-.02.23-.04l.34-.04c1.05-.13,1.96-.21,3.63-.21,3.04,0,4.27,1.37,4.27,4.7v9.09c0,.1,0,.14,0,.14,0-.02.03-.05.04-.05,0,0,0,.01-.07.02M216.52,313.69v-9.09c0-2.46-.54-5.73-5.3-5.73-1.73,0-2.71.1-3.75.22l-.33.04c-1.03.09-1.12.8-1.12,1.03v.17c0,.26.11.52.31.68.22.2.56.3.92.26l.63-.07c1.01-.1,1.8-.18,3.34-.18,1.19,0,1.98.25,2.41.76.42.51.63,1.42.63,2.83v1.02l.53-.53h-2.19c-5.26,0-7.5,1.45-7.5,4.86v.39c0,3.55,1.86,5.07,6.23,5.07,1.43,0,2.96-.2,4.4-.62.72-.2.8-.73.8-1.1"/>
  <path class="st1" d="M214.78,306.22h-2.19c-3.84,0-6.21.63-6.21,3.72v.4c0,2.89,1.34,3.95,4.95,3.95,1.48,0,2.97-.22,3.57-.35l.39-.09v-7.63h-.5ZM214.65,312.94c-.56.12-1.96.32-3.33.32-3.64,0-3.91-1.16-3.91-2.92v-.4c0-1.82.78-2.67,5.18-2.67h2.19l-.53-.53v6.69l.4-.49Z"/>
  <path class="st1" d="M221.65,296.72h-.17c-.26,0-.53-.22-.53-.55v-2.07c0-.28.26-.55.53-.55h.17c.3,0,.55.26.55.55v2.07c0,.33-.25.55-.55.55M221.65,314.88h-.17c-.26,0-.53-.24-.53-.53v-14.28c0-.28.26-.54.53-.54h.17c.3,0,.55.26.55.54v14.28c0,.29-.25.53-.55.53"/>
  <path class="st1" d="M221.65,296.21h-.17.03s-.04,0-.04-.04v-2.07h0s.01-.02.04-.02h-.03.17s.03.02.03.03h0s0,2.06,0,2.06c0,0,0,.04-.03.04M222.73,296.17v-2.07c0-.58-.5-1.07-1.09-1.07h-.17c-.58,0-1.03.51-1.03,1.07v2.07c0,.58.45,1.07,1.03,1.07h.17c.6,0,1.09-.45,1.09-1.07"/>
  <path class="st1" d="M221.65,314.38h-.17.03s-.04-.03-.04-.03v-14.28.02s.01-.05.04-.05h-.03.17s.03.03.03.03h0s0,14.28,0,14.28c0,0,0,.03-.03.03M222.73,314.35v-14.28c0-.57-.5-1.07-1.09-1.07h-.17c-.58,0-1.03.51-1.03,1.07v14.28c0,.56.45,1.06,1.03,1.06h.17c.6,0,1.09-.47,1.09-1.06"/>
  <path class="st1" d="M237.28,314.88h-.27c-.3,0-.52-.24-.52-.53v-9.75c0-3.58-1.61-4.05-3.48-4.05h-1.23c-1.91,0-3.52.47-3.52,4.05v9.75c0,.29-.21.53-.49.53h-.28c-.26,0-.49-.24-.49-.53v-9.75c0-4.76,2.83-5.22,4.78-5.22h1.23c1.93,0,4.75.47,4.75,5.22v9.75c0,.29-.19.53-.48.53"/>
  <path class="st1" d="M237.28,314.38h-.27.03s0-.03,0-.03v-9.76c0-4.01-2.04-4.55-4.03-4.55h-1.22c-2.01,0-4.06.54-4.06,4.55v9.79s0,0,.03,0h-.27s.02,0,.02,0v-9.79c0-4.13,2.16-4.68,4.28-4.68h1.22c2.09,0,4.23.55,4.23,4.68v9.81s.02-.03.04-.03M238.27,314.35v-9.76c0-5.72-3.96-5.72-5.26-5.72h-1.22c-1.31,0-5.32,0-5.32,5.72v9.76c0,.59.45,1.06,1.02,1.06h.27c.56,0,1.01-.47,1.01-1.06v-9.76c0-3.26,1.36-3.52,3.02-3.52h1.22c1.63,0,2.98.26,2.98,3.52v9.76c0,.59.44,1.06,1.02,1.06h.27c.56,0,.99-.46.99-1.06"/>
  <path class="st1" d="M243.25,296.72h-.16c-.3,0-.55-.22-.55-.55v-2.07c0-.28.26-.55.55-.55h.16c.28,0,.54.26.54.55v2.07c0,.33-.26.55-.54.55M243.25,314.88h-.16c-.3,0-.55-.24-.55-.53v-14.28c0-.28.26-.54.55-.54h.16c.28,0,.54.26.54.54v14.28c0,.29-.26.53-.54.53"/>
  <path class="st1" d="M243.25,296.21h-.16s-.01,0-.01-.04v-2.07h-.01s.01-.02.03-.02h.16l.02.02v2.07s-.02.04-.02.04M244.31,296.17v-2.07c0-.58-.47-1.07-1.06-1.07h-.16c-.57,0-1.06.49-1.06,1.07v2.07c0,.62.47,1.07,1.06,1.07h.16c.59,0,1.06-.48,1.06-1.07"/>
  <path class="st1" d="M243.25,314.38h-.16s-.01-.01-.01-.03v-14.28h0s0-.03.01-.03h.16s.02.02.02.03h0s0,14.28,0,14.28l-.02.03ZM244.31,314.35v-14.28c0-.57-.47-1.07-1.06-1.07h-.16c-.57,0-1.06.5-1.06,1.07v14.28c0,.59.49,1.06,1.06,1.06h.16c.59,0,1.06-.48,1.06-1.06"/>
  <path class="st1" d="M258.89,314.88h-.3c-.26,0-.47-.24-.47-.53v-9.75c0-3.58-1.62-4.05-3.54-4.05h-1.21c-1.88,0-3.54.47-3.54,4.05v9.75c0,.29-.18.53-.47.53h-.3c-.28,0-.47-.24-.47-.53v-9.75c0-4.76,2.83-5.22,4.77-5.22h1.21c1.97,0,4.78.47,4.78,5.22v9.75c0,.29-.18.53-.47.53"/>
  <path class="st1" d="M258.89,314.38h-.3s.05,0,.05.01v-9.8c0-1.78-.41-3.03-1.24-3.74-.82-.72-1.88-.81-2.82-.81h-1.21c-2.02,0-4.05.54-4.05,4.55v9.76s-.02.05-.02.05c0-.01.02-.03.07-.03h-.3s.05,0,.05.01c0,0-.02,0-.02-.04v-9.76c0-4.13,2.15-4.68,4.26-4.68h1.21c2.12,0,4.25.55,4.25,4.68v9.81s.05-.03.06-.03M259.88,314.35v-9.76c0-5.72-3.99-5.72-5.3-5.72h-1.21c-1.29,0-5.3,0-5.3,5.72v9.76c0,.59.43,1.06,1,1.06h.3c.55,0,.98-.47.98-1.06v-9.76c0-3.26,1.42-3.52,3.02-3.52h1.21c1.06,0,1.69.17,2.14.55.6.51.88,1.5.88,2.97v9.76c0,.59.44,1.06,1,1.06h.3c.56,0,.99-.46.99-1.06"/>
  <path class="st1" d="M269.04,320.22c-1.93,0-3.76-.22-4.33-.33-.42-.07-.51-.25-.51-.54v-.14c0-.29.2-.44.45-.44h.11c.74.13,2.59.36,4.28.36,2.98,0,3.91-.75,3.91-4.4v-.31c-.79.26-2.63.46-3.66.46-2.55,0-5.83-.69-5.83-6.8v-1.94c0-5.02,1.93-6.75,5.83-6.75,1.57,0,3.55.32,4.45.51.33.11.42.2.42.56v14.27c0,4.53-1.77,5.49-5.11,5.49M272.9,300.87c-1.01-.18-2.25-.38-3.61-.38-3.18,0-4.59,1.05-4.59,5.66v1.94c0,4.91,1.98,5.71,4.59,5.71.93,0,2.69-.2,3.61-.43v-12.5Z"/>
  <path class="st1" d="M269.04,319.71c-1.87,0-3.65-.22-4.22-.32-.11-.03-.16-.05-.16-.05.02.01.05.06.05.07v-.2h0s-.05.08-.08.09h.13-.08c.84.14,2.71.35,4.35.35,1.31,0,2.62-.13,3.45-.99.7-.74.98-1.88.98-3.93v-1.02l-.67.22c-.76.25-2.52.44-3.51.44-2.63,0-5.32-.75-5.32-6.3v-1.93c0-5.2,2.13-6.24,5.32-6.24,1.57,0,3.51.32,4.33.52.06,0,.09.01.09.01-.03,0-.06-.05-.06-.08v14.38c0,4.2-1.57,4.97-4.62,4.97M274.7,314.74v-14.27c0-.57-.25-.89-.82-1.06-.89-.19-2.91-.54-4.59-.54-4.39,0-6.34,2.23-6.34,7.28v1.93c0,7.33,4.76,7.33,6.34,7.33,1.1,0,2.98-.2,3.83-.49l-.68-.49v.31c0,1.7-.21,2.71-.69,3.21-.45.47-1.22.67-2.71.67-1.77,0-3.62-.24-4.19-.34h-.03s-.05,0-.05,0h-.11c-.56,0-.97.39-.97.94v.15c0,.59.33.92.96,1.04.66.13,2.53.34,4.4.34,3.39,0,5.66-1.03,5.66-6"/>
  <path class="st1" d="M272.99,300.34c-1.13-.19-2.34-.36-3.69-.36-3.77,0-5.12,1.63-5.12,6.17v1.94c0,5.47,2.48,6.21,5.12,6.21.88,0,2.71-.16,3.73-.43l.38-.11v-13.33l-.42-.09ZM272.77,312.86c-.86.24-2.56.41-3.47.41-2.15,0-4.08-.4-4.08-5.19v-1.94c0-4.41,1.26-5.13,4.08-5.13,1.27,0,2.44.18,3.51.36l-.42-.51v12.5l.38-.5Z"/>
</svg>